Name Sans-Display Hairline.ufo
<glyph name="exclam" format="2">
	<advance width="193"/>
	<unicode hex="0021"/>
	<outline>
		<contour>
			<point x="96" y="209" type="line"/>
			<point x="96" y="509" type="line"/>
			<point x="96" y="727" type="line"/>
			<point x="97" y="727" type="line"/>
			<point x="97" y="509" type="line"/>
			<point x="97" y="209" type="line"/>
		</contour>
		<component base="period" xOffset="-3"/>
	</outline>
</glyph>
<glyph name="numbersign" format="2">
	<advance width="884"/>
	<unicode hex="0023"/>
	<guideline y="727" name="capCenter"/>
	<guideline x="254" y="410" angle="90"/>
	<outline>
		<contour>
			<point x="398" y="727" type="line"/>
			<point x="171" y="0" type="line"/>
			<point x="172" y="0" type="line"/>
			<point x="399" y="727" type="line"/>
		</contour>
		<contour>
			<point x="712" y="727" type="line"/>
			<point x="485" y="0" type="line"/>
			<point x="486" y="0" type="line"/>
			<point x="713" y="727" type="line"/>
		</contour>
		<contour>
			<point x="91" y="508" type="line"/>
			<point x="330" y="508" type="line"/>
			<point x="331" y="508" type="line"/>
			<point x="644" y="508" type="line"/>
			<point x="644" y="508" type="line"/>
			<point x="830" y="508" type="line"/>
			<point x="830" y="509" type="line"/>
			<point x="91" y="509" type="line"/>
		</contour>
		<contour>
			<point x="54" y="220" type="line"/>
			<point x="793" y="220" type="line"/>
			<point x="793" y="221" type="line"/>
			<point x="555" y="221" type="line"/>
			<point x="554" y="221" type="line"/>
			<point x="241" y="221" type="line"/>
			<point x="241" y="221" type="line"/>
			<point x="54" y="221" type="line"/>
		</contour>
	</outline>
</glyph>
<glyph name="dollar" format="2">
	<advance width="620"/>
	<unicode hex="0024"/>
	<outline>
		<contour>
			<point x="90" y="575" type="curve" smooth="yes"/>
			<point x="90" y="486"/>
			<point x="137" y="434"/>
			<point x="250" y="399" type="curve" smooth="yes"/>
			<point x="354" y="366" type="line" smooth="yes"/>
			<point x="492" y="323"/>
			<point x="539" y="276"/>
			<point x="539" y="177" type="curve" smooth="yes"/>
			<point x="539" y="61"/>
			<point x="445" y="-14"/>
			<point x="300" y="-14" type="curve" smooth="yes"/>
			<point x="158" y="-14"/>
			<point x="74" y="48"/>
			<point x="47" y="171" type="curve"/>
			<point x="46" y="171" type="line"/>
			<point x="73" y="47"/>
			<point x="158" y="-15"/>
			<point x="300" y="-15" type="curve" smooth="yes"/>
			<point x="445" y="-15"/>
			<point x="540" y="61"/>
			<point x="540" y="177" type="curve" smooth="yes"/>
			<point x="540" y="276"/>
			<point x="493" y="324"/>
			<point x="355" y="367" type="curve" smooth="yes"/>
			<point x="250" y="400" type="line" smooth="yes"/>
			<point x="137" y="435"/>
			<point x="91" y="486"/>
			<point x="91" y="575" type="curve" smooth="yes"/>
			<point x="91" y="675"/>
			<point x="172" y="741"/>
			<point x="295" y="741" type="curve" smooth="yes"/>
			<point x="409" y="741"/>
			<point x="479" y="693"/>
			<point x="511" y="593" type="curve"/>
			<point x="512" y="593" type="line"/>
			<point x="480" y="694"/>
			<point x="409" y="742"/>
			<point x="295" y="742" type="curve" smooth="yes"/>
			<point x="171" y="742"/>
			<point x="90" y="676"/>
		</contour>
		<contour>
			<point x="301" y="859" type="line"/>
			<point x="300" y="859" type="line"/>
			<point x="300" y="742" type="line"/>
			<point x="301" y="742" type="line"/>
		</contour>
		<contour>
			<point x="300" y="-132" type="line"/>
			<point x="301" y="-132" type="line"/>
			<point x="301" y="-15" type="line"/>
			<point x="300" y="-15" type="line"/>
		</contour>
		<contour>
			<point x="301" y="742" type="line"/>
			<point x="300" y="742" type="line"/>
			<point x="300" y="382" type="line"/>
			<point x="300" y="382" type="line"/>
			<point x="300" y="-15" type="line"/>
			<point x="301" y="-15" type="line"/>
			<point x="301" y="381" type="line"/>
			<point x="301" y="382" type="line"/>
		</contour>
	</outline>
</glyph>
<glyph name="percent" format="2">
	<advance width="822"/>
	<unicode hex="0025"/>
	<guideline x="627" y="561" angle="226.3055"/>
	<guideline x="953" y="893" angle="46.3055"/>
	<outline>
		<contour>
			<point x="240" y="345" type="curve" smooth="yes"/>
			<point x="129" y="345"/>
			<point x="50" y="428"/>
			<point x="50" y="540" type="curve" smooth="yes"/>
			<point x="50" y="652"/>
			<point x="129" y="734"/>
			<point x="240" y="734" type="curve" smooth="yes"/>
			<point x="352" y="734"/>
			<point x="430" y="652"/>
			<point x="430" y="540" type="curve" smooth="yes"/>
			<point x="430" y="428"/>
			<point x="352" y="345"/>
		</contour>
		<contour>
			<point x="240" y="346" type="curve" smooth="yes"/>
			<point x="351" y="346"/>
			<point x="429" y="428"/>
			<point x="429" y="540" type="curve" smooth="yes"/>
			<point x="429" y="651"/>
			<point x="351" y="733"/>
			<point x="240" y="733" type="curve" smooth="yes"/>
			<point x="129" y="733"/>
			<point x="51" y="651"/>
			<point x="51" y="540" type="curve" smooth="yes"/>
			<point x="51" y="428"/>
			<point x="129" y="346"/>
		</contour>
		<contour>
			<point x="582" y="-6" type="curve" smooth="yes"/>
			<point x="471" y="-6"/>
			<point x="392" y="77"/>
			<point x="392" y="189" type="curve" smooth="yes"/>
			<point x="392" y="301"/>
			<point x="471" y="383"/>
			<point x="582" y="383" type="curve" smooth="yes"/>
			<point x="694" y="383"/>
			<point x="772" y="301"/>
			<point x="772" y="189" type="curve" smooth="yes"/>
			<point x="772" y="77"/>
			<point x="694" y="-6"/>
		</contour>
		<contour>
			<point x="582" y="-5" type="curve" smooth="yes"/>
			<point x="693" y="-5"/>
			<point x="771" y="77"/>
			<point x="771" y="189" type="curve" smooth="yes"/>
			<point x="771" y="300"/>
			<point x="693" y="382"/>
			<point x="582" y="382" type="curve" smooth="yes"/>
			<point x="471" y="382"/>
			<point x="393" y="300"/>
			<point x="393" y="189" type="curve" smooth="yes"/>
			<point x="393" y="77"/>
			<point x="471" y="-5"/>
		</contour>
		<contour>
			<point x="762" y="727" type="line"/>
			<point x="493" y="446" type="line"/>
			<point x="492" y="447" type="line"/>
			<point x="760" y="727" type="line"/>
		</contour>
		<contour>
			<point x="59" y="0" type="line"/>
			<point x="327" y="281" type="line"/>
			<point x="328" y="281" type="line"/>
			<point x="60" y="0" type="line"/>
		</contour>
	</outline>
</glyph>
<glyph name="ampersand" format="2">
	<advance width="678"/>
	<unicode hex="0026"/>
	<guideline x="1006" y="206" angle="235.4915"/>
	<guideline x="475" y="757" angle="200.0561"/>
	<outline>
		<contour>
			<point x="505" y="103" type="line"/>
			<point x="503" y="103" type="line"/>
			<point x="447" y="22"/>
			<point x="380" y="-14"/>
			<point x="282" y="-14" type="curve" smooth="yes"/>
			<point x="149" y="-14"/>
			<point x="65" y="59"/>
			<point x="65" y="173" type="curve" smooth="yes"/>
			<point x="65" y="273"/>
			<point x="117" y="336"/>
			<point x="236" y="379" type="curve"/>
			<point x="236" y="381" type="line"/>
			<point x="238" y="379" type="line"/>
			<point x="118" y="335"/>
			<point x="66" y="273"/>
			<point x="66" y="173" type="curve" smooth="yes"/>
			<point x="66" y="59"/>
			<point x="149" y="-13"/>
			<point x="282" y="-13" type="curve" smooth="yes"/>
			<point x="380" y="-13"/>
			<point x="447" y="23"/>
			<point x="503" y="105" type="curve"/>
		</contour>
		<contour>
			<point x="162" y="456"/>
			<point x="137" y="510"/>
			<point x="137" y="573" type="curve" smooth="yes"/>
			<point x="137" y="668"/>
			<point x="198" y="730"/>
			<point x="292" y="730" type="curve" smooth="yes"/>
			<point x="381" y="730"/>
			<point x="440" y="672"/>
			<point x="440" y="585" type="curve" smooth="yes"/>
			<point x="440" y="490"/>
			<point x="384" y="432"/>
			<point x="239" y="379" type="curve"/>
			<point x="239" y="377" type="line"/>
			<point x="237" y="380" type="line"/>
			<point x="384" y="433"/>
			<point x="439" y="490"/>
			<point x="439" y="585" type="curve" smooth="yes"/>
			<point x="439" y="672"/>
			<point x="380" y="729"/>
			<point x="292" y="729" type="curve" smooth="yes"/>
			<point x="199" y="729"/>
			<point x="138" y="667"/>
			<point x="138" y="574" type="curve" smooth="yes"/>
			<point x="138" y="510"/>
			<point x="163" y="456"/>
			<point x="223" y="395" type="curve" smooth="yes"/>
			<point x="504" y="105" type="line" smooth="yes"/>
			<point x="587" y="19"/>
			<point x="620" y="-1"/>
			<point x="696" y="-9" type="curve"/>
			<point x="695" y="-10" type="line"/>
			<point x="620" y="-2"/>
			<point x="587" y="18"/>
			<point x="503" y="104" type="curve" smooth="yes"/>
			<point x="222" y="395" type="line" smooth="yes"/>
		</contour>
		<contour>
			<point x="593" y="422" type="line"/>
			<point x="590" y="296"/>
			<point x="565" y="193"/>
			<point x="504" y="104" type="curve"/>
			<point x="502" y="106" type="line"/>
			<point x="504" y="106" type="line"/>
			<point x="563" y="193"/>
			<point x="589" y="297"/>
			<point x="592" y="423" type="curve"/>
		</contour>
	</outline>
</glyph>
<glyph name="quotesingle" format="2">
	<advance width="198"/>
	<unicode hex="0027"/>
	<outline>
		<contour>
			<point x="98" y="626" type="line"/>
			<point x="98" y="747" type="line"/>
			<point x="100" y="747" type="line"/>
			<point x="100" y="626" type="line"/>
			<point x="100" y="457" type="line"/>
			<point x="99" y="457" type="line"/>
		</contour>
	</outline>
</glyph>
<glyph name="parenleft" format="2">
	<advance width="303"/>
	<unicode hex="0028"/>
	<outline>
		<contour>
			<point x="136" y="-3"/>
			<point x="69" y="139"/>
			<point x="69" y="318" type="curve" smooth="yes"/>
			<point x="69" y="497"/>
			<point x="136" y="638"/>
			<point x="289" y="759" type="curve"/>
			<point x="290" y="758" type="line"/>
			<point x="137" y="638"/>
			<point x="70" y="496"/>
			<point x="70" y="318" type="curve" smooth="yes"/>
			<point x="70" y="140"/>
			<point x="137" y="-3"/>
			<point x="290" y="-123" type="curve"/>
			<point x="289" y="-124" type="line"/>
		</contour>
	</outline>
</glyph>
<glyph name="asterisk" format="2">
	<advance width="610"/>
	<unicode hex="002A"/>
	<outline>
		<contour>
			<point x="305" y="745" type="line"/>
			<point x="305" y="507" type="line"/>
			<point x="306" y="507" type="line"/>
			<point x="306" y="745" type="line"/>
		</contour>
		<contour>
			<point x="78" y="579" type="line"/>
			<point x="304" y="506" type="line"/>
			<point x="305" y="507" type="line"/>
			<point x="78" y="580" type="line"/>
		</contour>
		<contour>
			<point x="165" y="313" type="line"/>
			<point x="305" y="505" type="line"/>
			<point x="304" y="506" type="line"/>
			<point x="164" y="313" type="line"/>
		</contour>
		<contour>
			<point x="446" y="313" type="line"/>
			<point x="306" y="506" type="line"/>
			<point x="305" y="505" type="line"/>
			<point x="445" y="313" type="line"/>
		</contour>
		<contour>
			<point x="532" y="581" type="line"/>
			<point x="306" y="507" type="line"/>
			<point x="306" y="506" type="line"/>
			<point x="533" y="580" type="line"/>
		</contour>
		<contour>
			<point x="306" y="504" type="line"/>
			<point x="308" y="507" type="line"/>
			<point x="305" y="508" type="line"/>
			<point x="303" y="507" type="line"/>
			<point x="304" y="504" type="line"/>
		</contour>
	</outline>
</glyph>
<glyph name="plus" format="2">
	<advance width="620"/>
	<unicode hex="002B"/>
	<outline>
		<contour>
			<point x="53" y="317" type="line"/>
			<point x="568" y="317" type="line"/>
			<point x="568" y="318" type="line"/>
			<point x="53" y="318" type="line"/>
		</contour>
		<contour>
			<point x="311" y="61" type="line"/>
			<point x="311" y="576" type="line"/>
			<point x="310" y="576" type="line"/>
			<point x="310" y="61" type="line"/>
		</contour>
	</outline>
</glyph>
<glyph name="comma" format="2">
	<advance width="198"/>
	<unicode hex="002C"/>
	<outline>
		<contour>
			<point x="98" y="0" type="line"/>
			<point x="98" y="147" type="line"/>
			<point x="100" y="147" type="line"/>
			<point x="100" y="0" type="line"/>
			<point x="81" y="-157" type="line"/>
			<point x="79" y="-157" type="line"/>
			<point x="99" y="0" type="line"/>
			<point x="99" y="0" type="line"/>
		</contour>
	</outline>
</glyph>
<glyph name="hyphen" format="2">
	<advance width="430"/>
	<unicode hex="002D"/>
	<outline>
		<contour>
			<point x="57" y="317" type="line"/>
			<point x="374" y="317" type="line"/>
			<point x="374" y="319" type="line"/>
			<point x="57" y="319" type="line"/>
		</contour>
	</outline>
</glyph>
<glyph name="period" format="2">
	<advance width="198"/>
	<unicode hex="002E"/>
	<guideline x="0"/>
	<guideline x="97"/>
	<guideline x="194"/>
	<guideline x="291"/>
	<guideline x="388"/>
	<guideline y="0"/>
	<guideline y="97"/>
	<guideline y="194"/>
	<guideline y="291"/>
	<guideline y="388"/>
	<guideline y="485"/>
	<guideline y="582"/>
	<guideline y="679"/>
	<guideline y="776"/>
	<guideline y="873"/>
	<guideline y="970"/>
	<guideline y="1067"/>
	<guideline y="1164"/>
	<guideline y="1261"/>
	<guideline y="1358"/>
	<guideline y="0"/>
	<guideline y="-97"/>
	<guideline y="-194"/>
	<guideline y="-291"/>
	<outline>
		<contour>
			<point x="98" y="0" type="line"/>
			<point x="98" y="147" type="line"/>
			<point x="100" y="147" type="line"/>
			<point x="100" y="0" type="line"/>
		</contour>
	</outline>
</glyph>
<glyph name="zero" format="2">
	<advance width="620"/>
	<unicode hex="0030"/>
	<outline>
		<contour>
			<point x="309" y="-15" type="curve" smooth="yes"/>
			<point x="149" y="-15"/>
			<point x="58" y="126"/>
			<point x="58" y="363" type="curve" smooth="yes"/>
			<point x="58" y="599"/>
			<point x="150" y="742"/>
			<point x="309" y="742" type="curve" smooth="yes"/>
			<point x="469" y="742"/>
			<point x="563" y="598"/>
			<point x="563" y="363" type="curve" smooth="yes"/>
			<point x="563" y="127"/>
			<point x="469" y="-15"/>
		</contour>
		<contour>
			<point x="309" y="-14" type="curve" smooth="yes"/>
			<point x="469" y="-14"/>
			<point x="562" y="128"/>
			<point x="562" y="363" type="curve" smooth="yes"/>
			<point x="562" y="598"/>
			<point x="468" y="741"/>
			<point x="309" y="741" type="curve" smooth="yes"/>
			<point x="150" y="741"/>
			<point x="59" y="599"/>
			<point x="59" y="363" type="curve" smooth="yes"/>
			<point x="59" y="126"/>
			<point x="150" y="-14"/>
		</contour>
	</outline>
</glyph>
<glyph name="one" format="2">
	<advance width="320"/>
	<unicode hex="0031"/>
	<outline>
		<contour>
			<point x="235" y="727" type="line"/>
			<point x="235" y="0" type="line"/>
			<point x="234" y="0" type="line"/>
			<point x="234" y="725" type="line"/>
			<point x="234" y="725" type="line"/>
			<point x="187" y="641"/>
			<point x="132" y="597"/>
			<point x="50" y="571" type="curve"/>
			<point x="50" y="572" type="line"/>
			<point x="131" y="599"/>
			<point x="186" y="641"/>
			<point x="234" y="727" type="curve"/>
		</contour>
	</outline>
</glyph>
<glyph name="two" format="2">
	<advance width="570"/>
	<unicode hex="0032"/>
	<outline>
		<contour>
			<point x="57" y="0" type="line"/>
			<point x="533" y="0" type="line"/>
			<point x="533" y="1" type="line"/>
			<point x="58" y="1" type="line"/>
			<point x="58" y="1" type="line"/>
			<point x="58" y="126"/>
			<point x="112" y="198"/>
			<point x="273" y="289" type="curve" smooth="yes"/>
			<point x="325" y="319" type="line" smooth="yes"/>
			<point x="457" y="393"/>
			<point x="505" y="459"/>
			<point x="505" y="561" type="curve" smooth="yes"/>
			<point x="505" y="674"/>
			<point x="428" y="742"/>
			<point x="302" y="742" type="curve" smooth="yes"/>
			<point x="177" y="742"/>
			<point x="101" y="678"/>
			<point x="80" y="556" type="curve"/>
			<point x="81" y="555" type="line"/>
			<point x="102" y="678"/>
			<point x="178" y="741"/>
			<point x="302" y="741" type="curve" smooth="yes"/>
			<point x="428" y="741"/>
			<point x="504" y="673"/>
			<point x="504" y="561" type="curve" smooth="yes"/>
			<point x="504" y="460"/>
			<point x="455" y="394"/>
			<point x="325" y="320" type="curve" smooth="yes"/>
			<point x="273" y="290" type="line" smooth="yes"/>
			<point x="110" y="198"/>
			<point x="57" y="127"/>
			<point x="57" y="2" type="curve" smooth="yes"/>
		</contour>
	</outline>
</glyph>
<glyph name="three" format="2">
	<advance width="616"/>
	<unicode hex="0033"/>
	<outline>
		<contour>
			<point x="525" y="565" type="curve" smooth="yes"/>
			<point x="525" y="457"/>
			<point x="444" y="395"/>
			<point x="305" y="393" type="curve"/>
			<point x="311" y="393" type="line"/>
			<point x="311" y="392" type="line"/>
			<point x="306" y="393" type="line"/>
			<point x="466" y="390"/>
			<point x="556" y="320"/>
			<point x="556" y="197" type="curve" smooth="yes"/>
			<point x="556" y="64"/>
			<point x="462" y="-14"/>
			<point x="313" y="-14" type="curve" smooth="yes"/>
			<point x="170" y="-14"/>
			<point x="85" y="57"/>
			<point x="53" y="204" type="curve"/>
			<point x="54" y="204" type="line"/>
			<point x="86" y="58"/>
			<point x="170" y="-13"/>
			<point x="313" y="-13" type="curve" smooth="yes"/>
			<point x="462" y="-13"/>
			<point x="555" y="65"/>
			<point x="555" y="197" type="curve" smooth="yes"/>
			<point x="555" y="321"/>
			<point x="461" y="392"/>
			<point x="296" y="392" type="curve"/>
			<point x="283" y="392" type="line"/>
			<point x="283" y="393" type="line"/>
			<point x="296" y="393" type="line"/>
			<point x="440" y="394"/>
			<point x="524" y="455"/>
			<point x="524" y="565" type="curve" smooth="yes"/>
			<point x="524" y="669"/>
			<point x="439" y="741"/>
			<point x="318" y="741" type="curve" smooth="yes"/>
			<point x="208" y="741"/>
			<point x="128" y="681"/>
			<point x="101" y="582" type="curve"/>
			<point x="100" y="582" type="line"/>
			<point x="126" y="682"/>
			<point x="208" y="742"/>
			<point x="318" y="742" type="curve" smooth="yes"/>
			<point x="439" y="742"/>
			<point x="525" y="669"/>
		</contour>
	</outline>
</glyph>
<glyph name="four" format="2">
	<advance width="639"/>
	<unicode hex="0034"/>
	<outline>
		<contour>
			<point x="53" y="179" type="line"/>
			<point x="53" y="180" type="line"/>
			<point x="473" y="727" type="line"/>
			<point x="474" y="727" type="line"/>
			<point x="474" y="0" type="line"/>
			<point x="473" y="0" type="line"/>
			<point x="473" y="179" type="line"/>
			<point x="473" y="727" type="line"/>
			<point x="474" y="725" type="line"/>
			<point x="472" y="725" type="line"/>
			<point x="473" y="726" type="line"/>
			<point x="54" y="179" type="line"/>
			<point x="55" y="182" type="line"/>
			<point x="55" y="179" type="line"/>
			<point x="54" y="180" type="line"/>
			<point x="607" y="180" type="line"/>
			<point x="607" y="179" type="line"/>
		</contour>
	</outline>
</glyph>
<glyph name="five" format="2">
	<advance width="620"/>
	<unicode hex="0035"/>
	<outline>
		<contour>
			<point x="322" y="471" type="curve" smooth="yes"/>
			<point x="471" y="471"/>
			<point x="560" y="379"/>
			<point x="560" y="231" type="curve" smooth="yes"/>
			<point x="560" y="80"/>
			<point x="461" y="-14"/>
			<point x="314" y="-14" type="curve" smooth="yes"/>
			<point x="189" y="-14"/>
			<point x="107" y="44"/>
			<point x="62" y="156" type="curve"/>
			<point x="63" y="156" type="line"/>
			<point x="108" y="44"/>
			<point x="189" y="-13"/>
			<point x="314" y="-13" type="curve" smooth="yes"/>
			<point x="461" y="-13"/>
			<point x="559" y="80"/>
			<point x="559" y="231" type="curve" smooth="yes"/>
			<point x="559" y="379"/>
			<point x="470" y="470"/>
			<point x="322" y="470" type="curve" smooth="yes"/>
			<point x="230" y="470"/>
			<point x="162" y="437"/>
			<point x="105" y="361" type="curve"/>
			<point x="103" y="362" type="line"/>
			<point x="103" y="727" type="line"/>
			<point x="520" y="727" type="line"/>
			<point x="519" y="726" type="line"/>
			<point x="104" y="726" type="line"/>
			<point x="104" y="362" type="line"/>
			<point x="104" y="363" type="line"/>
			<point x="105" y="362" type="line"/>
			<point x="104" y="362" type="line"/>
			<point x="162" y="438"/>
			<point x="230" y="471"/>
		</contour>
	</outline>
</glyph>
<glyph name="six" format="2">
	<advance width="620"/>
	<unicode hex="0036"/>
	<outline>
		<contour>
			<point x="319" y="-14" type="curve" smooth="yes"/>
			<point x="472" y="-14"/>
			<point x="571" y="87"/>
			<point x="571" y="240" type="curve" smooth="yes"/>
			<point x="571" y="387"/>
			<point x="472" y="482"/>
			<point x="319" y="482" type="curve" smooth="yes"/>
			<point x="147" y="482"/>
			<point x="30" y="325"/>
			<point x="82" y="163" type="curve" smooth="yes"/>
			<point x="120" y="48"/>
			<point x="202" y="-14"/>
		</contour>
		<contour>
			<point x="54" y="354" type="curve"/>
			<point x="54" y="604"/>
			<point x="148" y="741"/>
			<point x="320" y="741" type="curve" smooth="yes"/>
			<point x="428" y="741"/>
			<point x="490" y="701"/>
			<point x="532" y="604" type="curve"/>
			<point x="531" y="604" type="line"/>
			<point x="489" y="701"/>
			<point x="428" y="740"/>
			<point x="320" y="740" type="curve"/>
			<point x="149" y="740"/>
			<point x="55" y="603"/>
			<point x="55" y="354" type="curve" smooth="yes"/>
			<point x="55" y="287"/>
			<point x="64" y="224"/>
			<point x="76" y="185" type="curve"/>
			<point x="73" y="192" type="line"/>
			<point x="74" y="192" type="line"/>
			<point x="76" y="183" type="line"/>
			<point x="37" y="337"/>
			<point x="152" y="483"/>
			<point x="319" y="483" type="curve" smooth="yes"/>
			<point x="473" y="483"/>
			<point x="572" y="388"/>
			<point x="572" y="240" type="curve" smooth="yes"/>
			<point x="572" y="86"/>
			<point x="472" y="-15"/>
			<point x="319" y="-15" type="curve" smooth="yes"/>
			<point x="147" y="-15"/>
			<point x="54" y="115"/>
		</contour>
	</outline>
</glyph>
<glyph name="seven" format="2">
	<advance width="584"/>
	<unicode hex="0037"/>
	<outline>
		<contour>
			<point x="536" y="727" type="line"/>
			<point x="536" y="726" type="line"/>
			<point x="328" y="516"/>
			<point x="256" y="353"/>
			<point x="256" y="88" type="curve" smooth="yes"/>
			<point x="256" y="0" type="line"/>
			<point x="255" y="0" type="line"/>
			<point x="255" y="88" type="line" smooth="yes"/>
			<point x="255" y="352"/>
			<point x="326" y="515"/>
			<point x="535" y="727" type="curve"/>
			<point x="534" y="725" type="line"/>
			<point x="534" y="727" type="line"/>
			<point x="535" y="726" type="line"/>
			<point x="49" y="726" type="line"/>
			<point x="49" y="727" type="line"/>
		</contour>
	</outline>
</glyph>
<glyph name="eight" format="2">
	<advance width="620"/>
	<unicode hex="0038"/>
	<guideline x="623"/>
	<outline>
		<contour>
			<point x="313" y="742" type="curve" smooth="yes"/>
			<point x="194" y="742"/>
			<point x="112" y="669"/>
			<point x="112" y="564" type="curve" smooth="yes"/>
			<point x="112" y="483"/>
			<point x="170" y="418"/>
			<point x="257" y="402" type="curve"/>
			<point x="257" y="402" type="line"/>
			<point x="137" y="376"/>
			<point x="61" y="295"/>
			<point x="61" y="192" type="curve" smooth="yes"/>
			<point x="62" y="67"/>
			<point x="161" y="-14"/>
			<point x="313" y="-14" type="curve" smooth="yes"/>
			<point x="463" y="-14"/>
			<point x="559" y="66"/>
			<point x="559" y="190" type="curve" smooth="yes"/>
			<point x="559" y="290"/>
			<point x="485" y="361"/>
			<point x="358" y="384" type="curve"/>
			<point x="358" y="384" type="line"/>
			<point x="453" y="411"/>
			<point x="509" y="478"/>
			<point x="509" y="562" type="curve" smooth="yes"/>
			<point x="509" y="668"/>
			<point x="428" y="742"/>
		</contour>
		<contour>
			<point x="258" y="403" type="line" smooth="yes"/>
			<point x="170" y="419"/>
			<point x="113" y="484"/>
			<point x="113" y="564" type="curve" smooth="yes"/>
			<point x="113" y="668"/>
			<point x="195" y="741"/>
			<point x="313" y="741" type="curve" smooth="yes"/>
			<point x="428" y="741"/>
			<point x="508" y="668"/>
			<point x="508" y="562" type="curve" smooth="yes"/>
			<point x="508" y="478"/>
			<point x="452" y="412"/>
			<point x="357" y="384" type="curve"/>
		</contour>
		<contour>
			<point x="313" y="-13" type="curve" smooth="yes"/>
			<point x="161" y="-13"/>
			<point x="62" y="68"/>
			<point x="62" y="192" type="curve" smooth="yes"/>
			<point x="62" y="294"/>
			<point x="138" y="375"/>
			<point x="258" y="402" type="curve"/>
			<point x="357" y="383" type="line" smooth="yes"/>
			<point x="485" y="360"/>
			<point x="558" y="289"/>
			<point x="558" y="190" type="curve" smooth="yes"/>
			<point x="558" y="66"/>
			<point x="463" y="-13"/>
		</contour>
	</outline>
</glyph>
<glyph name="nine" format="2">
	<advance width="620"/>
	<unicode hex="0039"/>
	<outline>
		<contour>
			<point x="301" y="740" type="curve" smooth="yes"/>
			<point x="150" y="740"/>
			<point x="50" y="640"/>
			<point x="50" y="486" type="curve" smooth="yes"/>
			<point x="50" y="341"/>
			<point x="146" y="245"/>
			<point x="306" y="245" type="curve" smooth="yes"/>
			<point x="477" y="245"/>
			<point x="590" y="405"/>
			<point x="538" y="564" type="curve" smooth="yes"/>
			<point x="502" y="676"/>
			<point x="422" y="740"/>
		</contour>
		<contour>
			<point x="566" y="373" type="curve"/>
			<point x="566" y="123"/>
			<point x="472" y="-15"/>
			<point x="300" y="-15" type="curve" smooth="yes"/>
			<point x="192" y="-15"/>
			<point x="125" y="26"/>
			<point x="77" y="136" type="curve"/>
			<point x="78" y="137" type="line"/>
			<point x="126" y="26"/>
			<point x="192" y="-14"/>
			<point x="300" y="-14" type="curve"/>
			<point x="471" y="-14"/>
			<point x="565" y="124"/>
			<point x="565" y="373" type="curve" smooth="yes"/>
			<point x="565" y="435"/>
			<point x="556" y="506"/>
			<point x="545" y="542" type="curve"/>
			<point x="547" y="535" type="line"/>
			<point x="546" y="535" type="line"/>
			<point x="544" y="544" type="line"/>
			<point x="582" y="400"/>
			<point x="476" y="244"/>
			<point x="306" y="244" type="curve" smooth="yes"/>
			<point x="145" y="244"/>
			<point x="49" y="341"/>
			<point x="49" y="486" type="curve" smooth="yes"/>
			<point x="49" y="641"/>
			<point x="150" y="741"/>
			<point x="301" y="741" type="curve" smooth="yes"/>
			<point x="473" y="741"/>
			<point x="566" y="612"/>
		</contour>
	</outline>
</glyph>
<glyph name="less" format="2">
	<advance width="620"/>
	<unicode hex="003C"/>
	<outline>
		<contour>
			<point x="568" y="558" type="line" smooth="yes"/>
			<point x="53" y="319" type="line"/>
			<point x="53" y="317" type="line"/>
			<point x="568" y="78" type="line"/>
			<point x="568" y="80" type="line"/>
			<point x="55" y="318" type="line"/>
			<point x="55" y="317" type="line"/>
			<point x="55" y="319" type="line"/>
			<point x="55" y="318" type="line"/>
			<point x="568" y="557" type="line"/>
		</contour>
	</outline>
</glyph>
<glyph name="greater" format="2">
	<advance width="620"/>
	<unicode hex="003E"/>
	<outline>
		<contour>
			<point x="61" y="558" type="line" smooth="yes"/>
			<point x="559" y="318" type="line"/>
			<point x="559" y="318" type="line"/>
			<point x="61" y="79" type="line"/>
			<point x="61" y="80" type="line"/>
			<point x="557" y="318" type="line"/>
			<point x="556" y="317" type="line"/>
			<point x="556" y="319" type="line"/>
			<point x="557" y="318" type="line"/>
			<point x="61" y="557" type="line"/>
		</contour>
	</outline>
</glyph>
<glyph name="question" format="2">
	<advance width="504"/>
	<unicode hex="003F"/>
	<guideline x="457" y="338" angle="90"/>
	<outline>
		<contour>
			<point x="239" y="247" type="line" smooth="yes"/>
			<point x="239" y="306"/>
			<point x="251" y="348"/>
			<point x="316" y="391" type="curve" smooth="yes"/>
			<point x="354" y="415" type="line" smooth="yes"/>
			<point x="404" y="448"/>
			<point x="438" y="501"/>
			<point x="438" y="572" type="curve" smooth="yes"/>
			<point x="438" y="678"/>
			<point x="372" y="744"/>
			<point x="257" y="744" type="curve" smooth="yes"/>
			<point x="148" y="744"/>
			<point x="82" y="680"/>
			<point x="66" y="578" type="curve"/>
			<point x="65" y="578" type="line"/>
			<point x="81" y="681"/>
			<point x="148" y="745"/>
			<point x="257" y="745" type="curve" smooth="yes"/>
			<point x="372" y="745"/>
			<point x="439" y="678"/>
			<point x="439" y="572" type="curve" smooth="yes"/>
			<point x="439" y="500"/>
			<point x="405" y="448"/>
			<point x="354" y="414" type="curve" smooth="yes"/>
			<point x="317" y="390" type="line" smooth="yes"/>
			<point x="252" y="347"/>
			<point x="240" y="305"/>
			<point x="240" y="247" type="curve" smooth="yes"/>
			<point x="240" y="209" type="line"/>
			<point x="239" y="209" type="line"/>
		</contour>
		<component base="period" xOffset="140"/>
	</outline>
</glyph>
<glyph name="at" format="2">
	<advance width="996"/>
	<unicode hex="0040"/>
	<outline>
		<contour>
			<point x="502" y="508" type="curve" smooth="yes"/>
			<point x="618" y="508"/>
			<point x="699" y="424"/>
			<point x="700" y="302" type="curve"/>
			<point x="700" y="302" type="line"/>
			<point x="700" y="179"/>
			<point x="620" y="98"/>
			<point x="499" y="98" type="curve" smooth="yes"/>
			<point x="377" y="98"/>
			<point x="295" y="179"/>
			<point x="295" y="303" type="curve" smooth="yes"/>
			<point x="295" y="426"/>
			<point x="378" y="508"/>
		</contour>
		<contour>
			<point x="504" y="722" type="curve" smooth="yes"/>
			<point x="254" y="722"/>
			<point x="84" y="551"/>
			<point x="84" y="302" type="curve" smooth="yes"/>
			<point x="84" y="53"/>
			<point x="253" y="-115"/>
			<point x="504" y="-115" type="curve" smooth="yes"/>
			<point x="630" y="-115"/>
			<point x="737" y="-79"/>
			<point x="806" y="-11" type="curve"/>
			<point x="805" y="-11" type="line"/>
			<point x="736" y="-79"/>
			<point x="630" y="-114"/>
			<point x="504" y="-114" type="curve" smooth="yes"/>
			<point x="253" y="-114"/>
			<point x="85" y="54"/>
			<point x="85" y="302" type="curve" smooth="yes"/>
			<point x="85" y="551"/>
			<point x="255" y="721"/>
			<point x="504" y="721" type="curve" smooth="yes"/>
			<point x="743" y="721"/>
			<point x="911" y="558"/>
			<point x="911" y="326" type="curve" smooth="yes"/>
			<point x="911" y="178"/>
			<point x="868" y="99"/>
			<point x="786" y="99" type="curve" smooth="yes"/>
			<point x="723" y="99"/>
			<point x="701" y="127"/>
			<point x="701" y="207" type="curve" smooth="yes"/>
			<point x="701" y="497" type="line"/>
			<point x="699" y="497" type="line"/>
			<point x="700" y="317" type="line"/>
			<point x="700" y="317" type="line"/>
			<point x="695" y="431"/>
			<point x="614" y="509"/>
			<point x="502" y="509" type="curve" smooth="yes"/>
			<point x="377" y="509"/>
			<point x="294" y="427"/>
			<point x="294" y="303" type="curve" smooth="yes"/>
			<point x="294" y="179"/>
			<point x="376" y="97"/>
			<point x="499" y="97" type="curve" smooth="yes"/>
			<point x="614" y="97"/>
			<point x="693" y="170"/>
			<point x="699" y="281" type="curve"/>
			<point x="700" y="281" type="line"/>
			<point x="700" y="282" type="line"/>
			<point x="700" y="206" type="line" smooth="yes"/>
			<point x="700" y="127"/>
			<point x="723" y="98"/>
			<point x="786" y="98" type="curve" smooth="yes"/>
			<point x="868" y="98"/>
			<point x="912" y="178"/>
			<point x="912" y="326" type="curve" smooth="yes"/>
			<point x="912" y="559"/>
			<point x="744" y="722"/>
		</contour>
	</outline>
</glyph>
<glyph name="A" format="2">
	<advance width="677"/>
	<unicode hex="0041"/>
	<anchor x="648" y="0" name="ogonek"/>
	<anchor x="339" y="727" name="top"/>
	<anchor x="339" y="737" name="ring"/>
	<anchor x="339" y="0" name="bottom"/>
	<outline>
		<contour>
			<point x="128" y="233" type="line"/>
			<point x="549" y="233" type="line"/>
			<point x="549" y="234" type="line"/>
			<point x="128" y="234" type="line"/>
		</contour>
		<contour>
			<point x="646" y="0" type="line"/>
			<point x="648" y="0" type="line"/>
			<point x="339" y="737" type="line"/>
			<point x="338" y="737" type="line"/>
			<point x="30" y="0" type="line"/>
			<point x="31" y="0" type="line"/>
			<point x="339" y="737" type="line"/>
			<point x="338" y="735" type="line"/>
			<point x="339" y="735" type="line"/>
			<point x="338" y="737" type="line"/>
		</contour>
	</outline>
</glyph>
<glyph name="B" format="2">
	<advance width="605"/>
	<unicode hex="0042"/>
	<outline>
		<contour>
			<point x="85" y="0" type="line"/>
			<point x="320" y="0" type="line" smooth="yes"/>
			<point x="464" y="0"/>
			<point x="543" y="70"/>
			<point x="543" y="194" type="curve" smooth="yes"/>
			<point x="543" y="321"/>
			<point x="466" y="378"/>
			<point x="293" y="380" type="curve"/>
			<point x="299" y="379" type="line"/>
			<point x="299" y="380" type="line"/>
			<point x="293" y="380" type="line"/>
			<point x="451" y="382"/>
			<point x="529" y="442"/>
			<point x="529" y="559" type="curve" smooth="yes"/>
			<point x="529" y="667"/>
			<point x="450" y="727"/>
			<point x="309" y="727" type="curve" smooth="yes"/>
			<point x="85" y="727" type="line"/>
		</contour>
		<contour>
			<point x="309" y="726" type="line" smooth="yes"/>
			<point x="450" y="726"/>
			<point x="528" y="667"/>
			<point x="528" y="559" type="curve" smooth="yes"/>
			<point x="528" y="440"/>
			<point x="446" y="380"/>
			<point x="281" y="380" type="curve" smooth="yes"/>
			<point x="86" y="380" type="line"/>
			<point x="86" y="726" type="line"/>
		</contour>
		<contour>
			<point x="281" y="379" type="line" smooth="yes"/>
			<point x="463" y="379"/>
			<point x="542" y="323"/>
			<point x="542" y="194" type="curve" smooth="yes"/>
			<point x="542" y="70"/>
			<point x="463" y="1"/>
			<point x="320" y="1" type="curve" smooth="yes"/>
			<point x="86" y="1" type="line"/>
			<point x="86" y="379" type="line"/>
		</contour>
	</outline>
</glyph>
<glyph name="C" format="2">
	<advance width="767"/>
	<unicode hex="0043"/>
	<guideline x="1044" y="1286" angle="90"/>
	<guideline x="2591.98" y="1909.1" angle="90"/>
	<guideline x="2195.47" y="1934.81" angle="0"/>
	<anchor x="403" y="727" name="top"/>
	<anchor x="403" y="-17" name="bottom"/>
	<outline>
		<contour>
			<point x="63" y="363" type="curve"/>
			<point x="63" y="136"/>
			<point x="199" y="-17"/>
			<point x="403" y="-17" type="curve" smooth="yes"/>
			<point x="533" y="-17"/>
			<point x="628" y="34"/>
			<point x="684" y="131" type="curve"/>
			<point x="683" y="131" type="line"/>
			<point x="628" y="35"/>
			<point x="532" y="-16"/>
			<point x="403" y="-16" type="curve" smooth="yes"/>
			<point x="200" y="-16"/>
			<point x="64" y="137"/>
			<point x="64" y="363" type="curve" smooth="yes"/>
			<point x="64" y="589"/>
			<point x="200" y="741"/>
			<point x="403" y="741" type="curve" smooth="yes"/>
			<point x="532" y="741"/>
			<point x="627" y="691"/>
			<point x="684" y="594" type="curve"/>
			<point x="685" y="594" type="line"/>
			<point x="628" y="691"/>
			<point x="533" y="742"/>
			<point x="403" y="742" type="curve" smooth="yes"/>
			<point x="199" y="742"/>
			<point x="63" y="590"/>
		</contour>
	</outline>
</glyph>
<glyph name="D" format="2">
	<advance width="707"/>
	<unicode hex="0044"/>
	<anchor x="332" y="727" name="top"/>
	<outline>
		<contour>
			<point x="272" y="0" type="curve" smooth="yes"/>
			<point x="85" y="0" type="line"/>
			<point x="85" y="727" type="line"/>
			<point x="272" y="727" type="line" smooth="yes"/>
			<point x="502" y="727"/>
			<point x="644" y="588"/>
			<point x="644" y="363" type="curve" smooth="yes"/>
			<point x="644" y="138"/>
			<point x="503" y="0"/>
		</contour>
		<contour>
			<point x="272" y="726" type="curve" smooth="yes"/>
			<point x="86" y="726" type="line"/>
			<point x="86" y="1" type="line"/>
			<point x="272" y="1" type="line" smooth="yes"/>
			<point x="502" y="1"/>
			<point x="643" y="139"/>
			<point x="643" y="363" type="curve" smooth="yes"/>
			<point x="643" y="587"/>
			<point x="501" y="726"/>
		</contour>
	</outline>
</glyph>
<glyph name="E" format="2">
	<advance width="573"/>
	<unicode hex="0045"/>
	<anchor x="518" y="0" name="ogonek"/>
	<anchor x="307" y="0" name="bottom"/>
	<anchor x="307" y="727" name="top"/>
	<outline>
		<contour>
			<point x="518" y="0" type="line"/>
			<point x="518" y="1" type="line"/>
			<point x="86" y="1" type="line"/>
			<point x="86" y="374" type="line"/>
			<point x="411" y="374" type="line"/>
			<point x="411" y="375" type="line"/>
			<point x="86" y="375" type="line"/>
			<point x="86" y="726" type="line"/>
			<point x="518" y="726" type="line"/>
			<point x="518" y="727" type="line"/>
			<point x="85" y="727" type="line"/>
			<point x="85" y="0" type="line"/>
		</contour>
	</outline>
</glyph>
<glyph name="F" format="2">
	<advance width="568"/>
	<unicode hex="0046"/>
	<outline>
		<contour>
			<point x="518" y="726" type="line"/>
			<point x="518" y="727" type="line"/>
			<point x="85" y="727" type="line"/>
			<point x="85" y="0" type="line"/>
			<point x="86" y="0" type="line"/>
			<point x="86" y="353" type="line"/>
			<point x="411" y="353" type="line"/>
			<point x="411" y="354" type="line"/>
			<point x="86" y="354" type="line"/>
			<point x="86" y="726" type="line"/>
		</contour>
	</outline>
</glyph>
<glyph name="G" format="2">
	<advance width="818"/>
	<unicode hex="0047"/>
	<anchor x="413" y="727" name="top"/>
	<anchor x="413" y="0" name="bottom"/>
	<outline>
		<contour>
			<point x="456" y="328" type="line"/>
			<point x="456" y="327" type="line"/>
			<point x="733" y="327" type="line"/>
			<point x="732" y="328" type="line"/>
			<point x="732" y="292" type="line"/>
			<point x="732" y="102"/>
			<point x="611" y="-16"/>
			<point x="413" y="-16" type="curve" smooth="yes"/>
			<point x="205" y="-16"/>
			<point x="64" y="134"/>
			<point x="64" y="355" type="curve" smooth="yes"/>
			<point x="64" y="587"/>
			<point x="203" y="741"/>
			<point x="413" y="741" type="curve" smooth="yes"/>
			<point x="560" y="741"/>
			<point x="663" y="677"/>
			<point x="715" y="554" type="curve"/>
			<point x="716" y="555" type="line"/>
			<point x="664" y="677"/>
			<point x="560" y="742"/>
			<point x="413" y="742" type="curve" smooth="yes"/>
			<point x="202" y="742"/>
			<point x="63" y="588"/>
			<point x="63" y="355" type="curve" smooth="yes"/>
			<point x="63" y="133"/>
			<point x="204" y="-17"/>
			<point x="413" y="-17" type="curve" smooth="yes"/>
			<point x="604" y="-17"/>
			<point x="725" y="93"/>
			<point x="732" y="271" type="curve"/>
			<point x="733" y="271" type="line"/>
			<point x="732" y="0" type="line"/>
			<point x="733" y="0" type="line"/>
			<point x="733" y="328" type="line"/>
		</contour>
	</outline>
</glyph>
<glyph name="H" format="2">
	<advance width="685"/>
	<unicode hex="0048"/>
	<outline>
		<contour>
			<point x="86" y="727" type="line"/>
			<point x="86" y="0" type="line"/>
			<point x="85" y="0" type="line"/>
			<point x="85" y="727" type="line"/>
		</contour>
		<contour>
			<point x="86" y="373" type="line"/>
			<point x="86" y="374" type="line"/>
			<point x="600" y="374" type="line"/>
			<point x="600" y="373" type="line"/>
		</contour>
		<contour>
			<point x="600" y="727" type="line"/>
			<point x="600" y="0" type="line"/>
			<point x="599" y="0" type="line"/>
			<point x="599" y="727" type="line"/>
		</contour>
	</outline>
</glyph>
<glyph name="I" format="2">
	<advance width="191"/>
	<unicode hex="0049"/>
	<anchor x="96" y="0" name="ogonek"/>
	<anchor x="96" y="0" name="bottom"/>
	<anchor x="96" y="727" name="top"/>
	<outline>
		<contour>
			<point x="96" y="727" type="line"/>
			<point x="95" y="727" type="line"/>
			<point x="95" y="0" type="line"/>
			<point x="96" y="0" type="line"/>
		</contour>
	</outline>
</glyph>
<glyph name="K" format="2">
	<advance width="641"/>
	<unicode hex="004B"/>
	<guideline x="189.07" y="636.06" angle="40.1026"/>
	<anchor x="307" y="727" name="top"/>
	<anchor x="307" y="0" name="bottom"/>
	<outline>
		<contour>
			<point x="86" y="727" type="line"/>
			<point x="86" y="0" type="line"/>
			<point x="85" y="0" type="line"/>
			<point x="85" y="727" type="line"/>
		</contour>
		<contour>
			<point x="572" y="727" type="line"/>
			<point x="245" y="452" type="line"/>
			<point x="244" y="451" type="line"/>
			<point x="86" y="318" type="line"/>
			<point x="86" y="320" type="line"/>
			<point x="87" y="320" type="line"/>
			<point x="570" y="727" type="line"/>
		</contour>
		<contour>
			<point x="591" y="0" type="line"/>
			<point x="244" y="451" type="line"/>
			<point x="243" y="451" type="line"/>
			<point x="245" y="452" type="line"/>
			<point x="592" y="0" type="line"/>
		</contour>
	</outline>
</glyph>
<glyph name="L" format="2">
	<advance width="551"/>
	<unicode hex="004C"/>
	<anchor x="86" y="727" name="top"/>
	<anchor x="298" y="0" name="bottom"/>
	<outline>
		<contour>
			<point x="86" y="727" type="line"/>
			<point x="85" y="727" type="line"/>
			<point x="85" y="0" type="line"/>
			<point x="501" y="0" type="line"/>
			<point x="501" y="1" type="line"/>
			<point x="86" y="1" type="line"/>
		</contour>
	</outline>
</glyph>
<glyph name="M" format="2">
	<advance width="859"/>
	<unicode hex="004D"/>
	<outline>
		<contour>
			<point x="85" y="0" type="line"/>
			<point x="85" y="727" type="line"/>
			<point x="86" y="727" type="line"/>
			<point x="429" y="1" type="line"/>
			<point x="428" y="1" type="line"/>
			<point x="430" y="1" type="line"/>
			<point x="429" y="1" type="line"/>
			<point x="773" y="727" type="line"/>
			<point x="774" y="727" type="line"/>
			<point x="774" y="0" type="line"/>
			<point x="773" y="0" type="line"/>
			<point x="773" y="726" type="line"/>
			<point x="773" y="724" type="line"/>
			<point x="772" y="724" type="line"/>
			<point x="773" y="726" type="line"/>
			<point x="430" y="0" type="line"/>
			<point x="428" y="0" type="line"/>
			<point x="86" y="726" type="line"/>
			<point x="87" y="724" type="line"/>
			<point x="86" y="724" type="line"/>
			<point x="86" y="726" type="line"/>
			<point x="86" y="0" type="line"/>
		</contour>
	</outline>
</glyph>
<glyph name="N" format="2">
	<advance width="713"/>
	<unicode hex="004E"/>
	<guideline x="1329.03" y="407.52" angle="90"/>
	<anchor x="356" y="727" name="top"/>
	<anchor x="356" y="0" name="bottom"/>
	<outline>
		<contour>
			<point x="85" y="0" type="line"/>
			<point x="85" y="727" type="line"/>
			<point x="86" y="727" type="line"/>
			<point x="627" y="1" type="line"/>
			<point x="626" y="3" type="line"/>
			<point x="627" y="3" type="line"/>
			<point x="627" y="1" type="line"/>
			<point x="627" y="727" type="line"/>
			<point x="628" y="727" type="line"/>
			<point x="628" y="0" type="line"/>
			<point x="627" y="0" type="line"/>
			<point x="86" y="726" type="line"/>
			<point x="87" y="725" type="line"/>
			<point x="86" y="725" type="line"/>
			<point x="86" y="726" type="line"/>
			<point x="86" y="0" type="line"/>
		</contour>
	</outline>
</glyph>
<glyph name="O" format="2">
	<advance width="842"/>
	<unicode hex="004F"/>
	<anchor x="421" y="727" name="top"/>
	<anchor x="421" y="-15" name="bottom"/>
	<outline>
		<contour>
			<point x="421" y="-15" type="curve" smooth="yes"/>
			<point x="206" y="-15"/>
			<point x="63" y="137"/>
			<point x="63" y="364" type="curve" smooth="yes"/>
			<point x="63" y="591"/>
			<point x="206" y="742"/>
			<point x="421" y="742" type="curve" smooth="yes"/>
			<point x="636" y="742"/>
			<point x="779" y="591"/>
			<point x="779" y="364" type="curve" smooth="yes"/>
			<point x="779" y="137"/>
			<point x="636" y="-15"/>
		</contour>
		<contour>
			<point x="421" y="-14" type="curve" smooth="yes"/>
			<point x="635" y="-14"/>
			<point x="778" y="137"/>
			<point x="778" y="364" type="curve" smooth="yes"/>
			<point x="778" y="590"/>
			<point x="636" y="741"/>
			<point x="421" y="741" type="curve" smooth="yes"/>
			<point x="207" y="741"/>
			<point x="64" y="590"/>
			<point x="64" y="364" type="curve" smooth="yes"/>
			<point x="64" y="137"/>
			<point x="206" y="-14"/>
		</contour>
	</outline>
</glyph>
<glyph name="P" format="2">
	<advance width="586"/>
	<unicode hex="0050"/>
	<outline>
		<contour>
			<point x="85" y="727" type="line"/>
			<point x="85" y="0" type="line"/>
			<point x="86" y="0" type="line"/>
			<point x="86" y="726" type="line"/>
			<point x="298" y="726" type="line" smooth="yes"/>
			<point x="432" y="726"/>
			<point x="523" y="641"/>
			<point x="523" y="517" type="curve" smooth="yes"/>
			<point x="523" y="387"/>
			<point x="438" y="308"/>
			<point x="299" y="308" type="curve" smooth="yes"/>
			<point x="86" y="308" type="line"/>
			<point x="86" y="307" type="line"/>
			<point x="299" y="307" type="line" smooth="yes"/>
			<point x="439" y="307"/>
			<point x="524" y="387"/>
			<point x="524" y="517" type="curve" smooth="yes"/>
			<point x="524" y="642"/>
			<point x="432" y="727"/>
			<point x="298" y="727" type="curve" smooth="yes"/>
		</contour>
	</outline>
</glyph>
<glyph name="Q" format="2">
	<advance width="834"/>
	<unicode hex="0051"/>
	<guideline x="1253" y="-31" angle="128.047"/>
	<outline>
		<contour>
			<point x="500" y="168" type="line"/>
			<point x="604" y="34" type="line"/>
			<point x="605" y="34" type="line"/>
			<point x="641" y="-13" type="line" smooth="yes"/>
			<point x="664" y="-42"/>
			<point x="687" y="-54"/>
			<point x="729" y="-54" type="curve" smooth="yes"/>
			<point x="798" y="-54" type="line"/>
			<point x="798" y="-55" type="line"/>
			<point x="729" y="-55" type="line"/>
			<point x="686" y="-55"/>
			<point x="663" y="-42"/>
			<point x="640" y="-13" type="curve" smooth="yes"/>
			<point x="604" y="33" type="line"/>
			<point x="603" y="34" type="line"/>
			<point x="499" y="167" type="line"/>
		</contour>
		<component base="O" xOffset="-5"/>
	</outline>
</glyph>
<glyph name="R" format="2">
	<advance width="635"/>
	<unicode hex="0052"/>
	<anchor x="302" y="727" name="top"/>
	<anchor x="302" y="0" name="bottom"/>
	<outline>
		<contour>
			<point x="306" y="340" type="curve"/>
			<point x="86" y="340" type="line"/>
			<point x="86" y="0" type="line"/>
			<point x="85" y="0" type="line"/>
			<point x="85" y="727" type="line"/>
			<point x="324" y="727" type="line" smooth="yes"/>
			<point x="476" y="727"/>
			<point x="560" y="659"/>
			<point x="560" y="535" type="curve" smooth="yes"/>
			<point x="560" y="408"/>
			<point x="475" y="341"/>
			<point x="312" y="341" type="curve"/>
			<point x="333" y="341" type="line"/>
			<point x="333" y="340" type="line"/>
			<point x="311" y="341" type="line"/>
			<point x="410" y="341"/>
			<point x="463" y="302"/>
			<point x="481" y="230" type="curve" smooth="yes"/>
			<point x="512" y="107" type="line" smooth="yes"/>
			<point x="532" y="23"/>
			<point x="552" y="1"/>
			<point x="627" y="1" type="curve"/>
			<point x="635" y="1" type="line"/>
			<point x="635" y="0" type="line"/>
			<point x="627" y="0" type="line"/>
			<point x="551" y="0"/>
			<point x="531" y="23"/>
			<point x="511" y="107" type="curve" smooth="yes"/>
			<point x="480" y="230" type="line" smooth="yes"/>
			<point x="462" y="302"/>
			<point x="410" y="340"/>
		</contour>
		<contour>
			<point x="324" y="726" type="curve" smooth="yes"/>
			<point x="86" y="726" type="line"/>
			<point x="86" y="341" type="line"/>
			<point x="306" y="341" type="line"/>
			<point x="474" y="341"/>
			<point x="559" y="407"/>
			<point x="559" y="535" type="curve" smooth="yes"/>
			<point x="559" y="658"/>
			<point x="475" y="726"/>
		</contour>
	</outline>
</glyph>
<glyph name="S" format="2">
	<advance width="593"/>
	<unicode hex="0053"/>
	<anchor x="296" y="727" name="top"/>
	<anchor x="301" y="-15" name="bottom"/>
	<outline>
		<contour>
			<point x="90" y="576" type="curve"/>
			<point x="90" y="496"/>
			<point x="137" y="441"/>
			<point x="250" y="406" type="curve" smooth="yes"/>
			<point x="355" y="374" type="line" smooth="yes"/>
			<point x="489" y="333"/>
			<point x="540" y="273"/>
			<point x="540" y="182" type="curve"/>
			<point x="540" y="61"/>
			<point x="450" y="-14"/>
			<point x="295" y="-14" type="curve" smooth="yes"/>
			<point x="171" y="-14"/>
			<point x="93" y="34"/>
			<point x="36" y="138" type="curve"/>
			<point x="35" y="137" type="line"/>
			<point x="92" y="33"/>
			<point x="171" y="-15"/>
			<point x="295" y="-15" type="curve" smooth="yes"/>
			<point x="451" y="-15"/>
			<point x="541" y="60"/>
			<point x="541" y="182" type="curve"/>
			<point x="541" y="273"/>
			<point x="490" y="334"/>
			<point x="356" y="375" type="curve" smooth="yes"/>
			<point x="251" y="407" type="line" smooth="yes"/>
			<point x="138" y="442"/>
			<point x="91" y="496"/>
			<point x="91" y="576" type="curve"/>
			<point x="91" y="681"/>
			<point x="173" y="741"/>
			<point x="298" y="741" type="curve"/>
			<point x="399" y="741"/>
			<point x="464" y="703"/>
			<point x="508" y="623" type="curve"/>
			<point x="509" y="624" type="line"/>
			<point x="466" y="704"/>
			<point x="399" y="742"/>
			<point x="298" y="742" type="curve"/>
			<point x="172" y="742"/>
			<point x="90" y="681"/>
		</contour>
	</outline>
</glyph>
<glyph name="T" format="2">
	<advance width="664"/>
	<unicode hex="0054"/>
	<anchor x="332" y="727" name="top"/>
	<anchor x="332" y="0" name="bottom"/>
	<outline>
		<contour>
			<point x="49" y="726" type="line"/>
			<point x="332" y="726" type="line"/>
			<point x="332" y="0" type="line"/>
			<point x="333" y="0" type="line"/>
			<point x="333" y="726" type="line"/>
			<point x="616" y="726" type="line"/>
			<point x="616" y="727" type="line"/>
			<point x="49" y="727" type="line"/>
		</contour>
	</outline>
</glyph>
<glyph name="U" format="2">
	<advance width="678"/>
	<unicode hex="0055"/>
	<anchor x="434" y="0" name="ogonek"/>
	<anchor x="339" y="-14" name="bottom"/>
	<anchor x="338" y="727" name="top"/>
	<outline>
		<contour>
			<point x="597" y="727" type="line"/>
			<point x="596" y="727" type="line"/>
			<point x="596" y="266" type="line" smooth="yes"/>
			<point x="596" y="88"/>
			<point x="502" y="-13"/>
			<point x="337" y="-13" type="curve" smooth="yes"/>
			<point x="175" y="-13"/>
			<point x="82" y="88"/>
			<point x="82" y="266" type="curve" smooth="yes"/>
			<point x="82" y="727" type="line"/>
			<point x="81" y="727" type="line"/>
			<point x="81" y="266" type="line" smooth="yes"/>
			<point x="81" y="88"/>
			<point x="174" y="-14"/>
			<point x="337" y="-14" type="curve" smooth="yes"/>
			<point x="502" y="-14"/>
			<point x="597" y="88"/>
			<point x="597" y="266" type="curve" smooth="yes"/>
		</contour>
	</outline>
</glyph>
<glyph name="V" format="2">
	<advance width="686"/>
	<unicode hex="0056"/>
	<guideline x="866.44" y="0" angle="112.0836"/>
	<guideline x="2173.44" y="2180.79" angle="247.9164"/>
	<outline>
		<contour>
			<point x="48" y="727" type="line"/>
			<point x="342" y="2" type="line"/>
			<point x="341" y="3" type="line"/>
			<point x="344" y="3" type="line"/>
			<point x="343" y="2" type="line"/>
			<point x="639" y="727" type="line"/>
			<point x="640" y="727" type="line"/>
			<point x="343" y="0" type="line"/>
			<point x="342" y="0" type="line"/>
			<point x="46" y="727" type="line"/>
		</contour>
	</outline>
</glyph>
<glyph name="W" format="2">
	<advance width="1017"/>
	<unicode hex="0057"/>
	<outline>
		<contour>
			<point x="52" y="727" type="line"/>
			<point x="53" y="727" type="line"/>
			<point x="261" y="2" type="line"/>
			<point x="260" y="3" type="line"/>
			<point x="262" y="3" type="line"/>
			<point x="261" y="2" type="line"/>
			<point x="508" y="727" type="line"/>
			<point x="509" y="727" type="line"/>
			<point x="756" y="2" type="line"/>
			<point x="755" y="3" type="line"/>
			<point x="758" y="3" type="line"/>
			<point x="757" y="2" type="line"/>
			<point x="964" y="727" type="line"/>
			<point x="966" y="727" type="line"/>
			<point x="757" y="0" type="line"/>
			<point x="756" y="0" type="line"/>
			<point x="509" y="725" type="line"/>
			<point x="510" y="724" type="line"/>
			<point x="508" y="724" type="line"/>
			<point x="509" y="725" type="line"/>
			<point x="262" y="0" type="line"/>
			<point x="260" y="0" type="line"/>
		</contour>
	</outline>
</glyph>
<glyph name="X" format="2">
	<advance width="652"/>
	<unicode hex="0058"/>
	<guideline x="260.67" y="2547.92" angle="302.0303"/>
	<guideline x="2265.23" y="367.14" angle="122.6635"/>
	<guideline x="1519.94" y="1325.36" angle="57.6403"/>
	<guideline x="1005.95" y="1549.31" angle="236.146"/>
	<outline>
		<contour>
			<point x="75" y="727" type="line"/>
			<point x="73" y="727" type="line"/>
			<point x="327" y="377" type="line"/>
			<point x="328" y="376" type="line"/>
			<point x="601" y="0" type="line"/>
			<point x="603" y="0" type="line"/>
			<point x="328" y="377" type="line"/>
			<point x="327" y="378" type="line"/>
		</contour>
		<contour>
			<point x="51" y="0" type="line"/>
			<point x="327" y="376" type="line"/>
			<point x="329" y="376" type="line"/>
			<point x="327" y="378" type="line"/>
			<point x="49" y="0" type="line"/>
		</contour>
		<contour>
			<point x="583" y="727" type="line"/>
			<point x="328" y="378" type="line"/>
			<point x="326" y="378" type="line"/>
			<point x="328" y="377" type="line"/>
			<point x="584" y="727" type="line"/>
		</contour>
	</outline>
</glyph>
<glyph name="Y" format="2">
	<advance width="683"/>
	<unicode hex="0059"/>
	<anchor x="342" y="727" name="top"/>
	<anchor x="342" y="0" name="bottom"/>
	<outline>
		<contour>
			<point x="47" y="727" type="line"/>
			<point x="341" y="344" type="line"/>
			<point x="341" y="344" type="line"/>
			<point x="343" y="344" type="line"/>
			<point x="342" y="344" type="line"/>
			<point x="639" y="727" type="line"/>
			<point x="641" y="727" type="line"/>
			<point x="342" y="343" type="line"/>
			<point x="341" y="343" type="line"/>
			<point x="46" y="727" type="line"/>
		</contour>
		<contour>
			<point x="342" y="343" type="line"/>
			<point x="342" y="0" type="line"/>
			<point x="341" y="0" type="line"/>
			<point x="341" y="343" type="line"/>
		</contour>
	</outline>
</glyph>
<glyph name="Z" format="2">
	<advance width="652"/>
	<unicode hex="005A"/>
	<anchor x="326" y="727" name="top"/>
	<outline>
		<contour>
			<point x="65" y="727" type="line"/>
			<point x="586" y="727" type="line"/>
			<point x="586" y="727" type="line"/>
			<point x="66" y="1" type="line"/>
			<point x="67" y="3" type="line"/>
			<point x="68" y="1" type="line"/>
			<point x="66" y="1" type="line"/>
			<point x="587" y="1" type="line"/>
			<point x="587" y="0" type="line"/>
			<point x="65" y="0" type="line"/>
			<point x="65" y="1" type="line"/>
			<point x="584" y="727" type="line"/>
			<point x="583" y="725" type="line"/>
			<point x="582" y="727" type="line"/>
			<point x="585" y="726" type="line"/>
			<point x="65" y="726" type="line"/>
		</contour>
	</outline>
</glyph>
<glyph name="bracketleft" format="2">
	<advance width="311"/>
	<unicode hex="005B"/>
	<outline>
		<contour>
			<point x="106" y="-95" type="line"/>
			<point x="271" y="-95" type="line"/>
			<point x="271" y="-96" type="line"/>
			<point x="105" y="-96" type="line"/>
			<point x="105" y="756" type="line"/>
			<point x="271" y="756" type="line"/>
			<point x="271" y="755" type="line"/>
			<point x="106" y="755" type="line"/>
		</contour>
	</outline>
</glyph>
<glyph name="asciicircum" format="2">
	<advance width="620"/>
	<unicode hex="005E"/>
	<outline>
		<contour>
			<point x="575" y="433" type="line"/>
			<point x="577" y="433" type="line"/>
			<point x="310" y="727" type="line"/>
			<point x="309" y="727" type="line"/>
			<point x="44" y="433" type="line"/>
			<point x="45" y="433" type="line"/>
			<point x="310" y="726" type="line"/>
			<point x="310" y="726" type="line"/>
		</contour>
	</outline>
</glyph>
<glyph name="underscore" format="2">
	<advance width="480"/>
	<unicode hex="005F"/>
	<guideline x="0"/>
	<guideline x="102"/>
	<guideline x="204"/>
	<guideline x="306"/>
	<guideline x="408"/>
	<guideline x="510"/>
	<guideline x="612"/>
	<guideline x="714"/>
	<guideline x="816"/>
	<guideline x="918"/>
	<guideline y="-356"/>
	<guideline y="-254"/>
	<guideline y="-152"/>
	<guideline y="-50"/>
	<guideline y="52"/>
	<guideline y="154"/>
	<guideline y="256"/>
	<guideline y="358"/>
	<guideline y="460"/>
	<guideline y="562"/>
	<guideline y="664"/>
	<guideline y="766"/>
	<guideline y="868"/>
	<guideline y="970"/>
	<guideline y="1072"/>
	<guideline y="1174"/>
	<guideline y="1276"/>
	<guideline y="1378"/>
	<guideline y="1480"/>
	<guideline y="1582"/>
	<guideline y="1684"/>
	<outline>
		<contour>
			<point x="57" y="-178" type="line"/>
			<point x="424" y="-178" type="line"/>
			<point x="424" y="-177" type="line"/>
			<point x="57" y="-177" type="line"/>
		</contour>
	</outline>
</glyph>
<glyph name="a" format="2">
	<advance width="548"/>
	<unicode hex="0061"/>
	<anchor x="470" y="0" name="ogonek"/>
	<anchor x="269" y="-11" name="bottom"/>
	<anchor x="285" y="509" name="top"/>
	<outline>
		<contour>
			<point x="93" y="362" type="line"/>
			<point x="104" y="459"/>
			<point x="172" y="520"/>
			<point x="286" y="520" type="curve" smooth="yes"/>
			<point x="401" y="520"/>
			<point x="469" y="445"/>
			<point x="469" y="316" type="curve" smooth="yes"/>
			<point x="469" y="291" type="line"/>
			<point x="247" y="281" type="line" smooth="yes"/>
			<point x="122" y="275"/>
			<point x="61" y="233"/>
			<point x="61" y="132" type="curve" smooth="yes"/>
			<point x="61" y="43"/>
			<point x="131" y="-11"/>
			<point x="248" y="-11" type="curve" smooth="yes"/>
			<point x="378" y="-11"/>
			<point x="464" y="72"/>
			<point x="469" y="203" type="curve"/>
			<point x="469" y="203" type="line"/>
			<point x="469" y="0" type="line"/>
			<point x="470" y="0" type="line"/>
			<point x="470" y="316" type="line" smooth="yes"/>
			<point x="470" y="446"/>
			<point x="402" y="521"/>
			<point x="286" y="521" type="curve" smooth="yes"/>
			<point x="171" y="521"/>
			<point x="103" y="459"/>
			<point x="92" y="362" type="curve"/>
		</contour>
		<contour>
			<point x="248" y="-10" type="curve" smooth="yes"/>
			<point x="132" y="-10"/>
			<point x="62" y="43"/>
			<point x="62" y="132" type="curve" smooth="yes"/>
			<point x="62" y="232"/>
			<point x="122" y="274"/>
			<point x="247" y="280" type="curve" smooth="yes"/>
			<point x="469" y="290" type="line"/>
			<point x="469" y="220" type="line"/>
			<point x="469" y="80"/>
			<point x="384" y="-10"/>
		</contour>
	</outline>
</glyph>
<glyph name="b" format="2">
	<advance width="623"/>
	<unicode hex="0062"/>
	<outline>
		<contour>
			<point x="86" y="727" type="line"/>
			<point x="86" y="274" type="line"/>
			<point x="86" y="274" type="line"/>
			<point x="92" y="425"/>
			<point x="186" y="523"/>
			<point x="324" y="523" type="curve" smooth="yes"/>
			<point x="467" y="523"/>
			<point x="563" y="415"/>
			<point x="563" y="256" type="curve" smooth="yes"/>
			<point x="563" y="96"/>
			<point x="465" y="-15"/>
			<point x="324" y="-15" type="curve" smooth="yes"/>
			<point x="190" y="-15"/>
			<point x="92" y="88"/>
			<point x="86" y="235" type="curve"/>
			<point x="86" y="235" type="line"/>
			<point x="86" y="0" type="line"/>
			<point x="85" y="0" type="line"/>
			<point x="85" y="727" type="line"/>
		</contour>
		<contour>
			<point x="324" y="522" type="curve" smooth="yes"/>
			<point x="180" y="522"/>
			<point x="86" y="417"/>
			<point x="86" y="255" type="curve" smooth="yes"/>
			<point x="86" y="96"/>
			<point x="184" y="-14"/>
			<point x="324" y="-14" type="curve" smooth="yes"/>
			<point x="465" y="-14"/>
			<point x="562" y="96"/>
			<point x="562" y="256" type="curve" smooth="yes"/>
			<point x="562" y="415"/>
			<point x="466" y="522"/>
		</contour>
	</outline>
</glyph>
<glyph name="c" format="2">
	<advance width="574"/>
	<unicode hex="0063"/>
	<anchor x="306" y="509" name="top"/>
	<anchor x="306" y="-17" name="bottom"/>
	<outline>
		<contour>
			<point x="514" y="107" type="curve"/>
			<point x="513" y="107" type="line"/>
			<point x="475" y="27"/>
			<point x="404" y="-16"/>
			<point x="306" y="-16" type="curve" smooth="yes"/>
			<point x="159" y="-16"/>
			<point x="61" y="92"/>
			<point x="61" y="252" type="curve" smooth="yes"/>
			<point x="61" y="413"/>
			<point x="159" y="520"/>
			<point x="306" y="520" type="curve" smooth="yes"/>
			<point x="395" y="520"/>
			<point x="462" y="485"/>
			<point x="501" y="418" type="curve"/>
			<point x="502" y="419" type="line"/>
			<point x="462" y="486"/>
			<point x="395" y="521"/>
			<point x="306" y="521" type="curve" smooth="yes"/>
			<point x="159" y="521"/>
			<point x="60" y="414"/>
			<point x="60" y="252" type="curve" smooth="yes"/>
			<point x="60" y="91"/>
			<point x="159" y="-17"/>
			<point x="306" y="-17" type="curve" smooth="yes"/>
			<point x="404" y="-17"/>
			<point x="476" y="26"/>
		</contour>
	</outline>
</glyph>
<glyph name="d" format="2">
	<advance width="623"/>
	<unicode hex="0064"/>
	<outline>
		<contour>
			<point x="537" y="727" type="line"/>
			<point x="537" y="274" type="line"/>
			<point x="537" y="274" type="line"/>
			<point x="532" y="425"/>
			<point x="438" y="523"/>
			<point x="299" y="523" type="curve" smooth="yes"/>
			<point x="157" y="523"/>
			<point x="60" y="415"/>
			<point x="60" y="256" type="curve" smooth="yes"/>
			<point x="60" y="96"/>
			<point x="158" y="-15"/>
			<point x="299" y="-15" type="curve" smooth="yes"/>
			<point x="434" y="-15"/>
			<point x="531" y="88"/>
			<point x="537" y="235" type="curve"/>
			<point x="537" y="235" type="line"/>
			<point x="537" y="0" type="line"/>
			<point x="538" y="0" type="line"/>
			<point x="538" y="727" type="line"/>
		</contour>
		<contour>
			<point x="299" y="522" type="curve" smooth="yes"/>
			<point x="443" y="522"/>
			<point x="537" y="417"/>
			<point x="537" y="255" type="curve" smooth="yes"/>
			<point x="537" y="96"/>
			<point x="439" y="-14"/>
			<point x="299" y="-14" type="curve" smooth="yes"/>
			<point x="159" y="-14"/>
			<point x="61" y="96"/>
			<point x="61" y="256" type="curve" smooth="yes"/>
			<point x="61" y="415"/>
			<point x="157" y="522"/>
		</contour>
	</outline>
</glyph>
<glyph name="e" format="2">
	<advance width="605"/>
	<unicode hex="0065"/>
	<anchor x="523" y="101" name="ogonek"/>
	<anchor x="315" y="0" name="bottom"/>
	<anchor x="309" y="509" name="top"/>
	<outline>
		<contour>
			<point x="61" y="258" type="line"/>
			<point x="546" y="258" type="line"/>
			<point x="546" y="422"/>
			<point x="457" y="521"/>
			<point x="309" y="521" type="curve" smooth="yes"/>
			<point x="157" y="521"/>
			<point x="60" y="415"/>
			<point x="60" y="249" type="curve" smooth="yes"/>
			<point x="60" y="83"/>
			<point x="155" y="-17"/>
			<point x="315" y="-17" type="curve" smooth="yes"/>
			<point x="417" y="-17"/>
			<point x="501" y="31"/>
			<point x="534" y="142" type="curve"/>
			<point x="533" y="142" type="line"/>
			<point x="500" y="31"/>
			<point x="416" y="-16"/>
			<point x="315" y="-16" type="curve" smooth="yes"/>
			<point x="156" y="-16"/>
			<point x="61" y="83"/>
			<point x="61" y="249" type="curve" smooth="yes"/>
			<point x="61" y="250" type="line" smooth="yes"/>
			<point x="61" y="415"/>
			<point x="158" y="520"/>
			<point x="309" y="520" type="curve" smooth="yes"/>
			<point x="456" y="520"/>
			<point x="545" y="421"/>
			<point x="545" y="259" type="curve"/>
			<point x="546" y="259" type="line"/>
			<point x="61" y="259" type="line"/>
		</contour>
	</outline>
</glyph>
<glyph name="f" format="2">
	<advance width="284"/>
	<unicode hex="0066"/>
	<outline>
		<contour>
			<point x="9" y="509" type="line"/>
			<point x="9" y="508" type="line"/>
			<point x="265" y="508" type="line"/>
			<point x="265" y="509" type="line"/>
		</contour>
		<contour>
			<point x="104" y="0" type="line"/>
			<point x="104" y="508" type="line"/>
			<point x="104" y="509" type="line"/>
			<point x="104" y="621" type="line" smooth="yes"/>
			<point x="104" y="687"/>
			<point x="144" y="731"/>
			<point x="211" y="731" type="curve" smooth="yes"/>
			<point x="229" y="731"/>
			<point x="247" y="729"/>
			<point x="265" y="726" type="curve"/>
			<point x="265" y="727" type="line"/>
			<point x="247" y="730"/>
			<point x="229" y="732"/>
			<point x="211" y="732" type="curve" smooth="yes"/>
			<point x="143" y="732"/>
			<point x="103" y="688"/>
			<point x="103" y="621" type="curve" smooth="yes"/>
			<point x="103" y="0" type="line"/>
		</contour>
	</outline>
</glyph>
<glyph name="g" format="2">
	<advance width="619"/>
	<unicode hex="0067"/>
	<anchor x="303" y="509" name="top"/>
	<outline>
		<contour>
			<point x="533" y="36" type="line" smooth="yes"/>
			<point x="533" y="-110"/>
			<point x="446" y="-177"/>
			<point x="308" y="-177" type="curve" smooth="yes"/>
			<point x="188" y="-177"/>
			<point x="120" y="-128"/>
			<point x="98" y="-33" type="curve"/>
			<point x="97" y="-33" type="line"/>
			<point x="119" y="-129"/>
			<point x="188" y="-178"/>
			<point x="308" y="-178" type="curve" smooth="yes"/>
			<point x="446" y="-178"/>
			<point x="534" y="-111"/>
			<point x="534" y="36" type="curve" smooth="yes"/>
			<point x="534" y="509" type="line"/>
			<point x="533" y="509" type="line"/>
			<point x="533" y="280" type="line"/>
			<point x="533" y="280" type="line"/>
			<point x="526" y="421"/>
			<point x="433" y="519"/>
			<point x="303" y="519" type="curve" smooth="yes"/>
			<point x="160" y="519"/>
			<point x="66" y="417"/>
			<point x="66" y="262" type="curve" smooth="yes"/>
			<point x="66" y="107"/>
			<point x="159" y="5"/>
			<point x="300" y="5" type="curve" smooth="yes"/>
			<point x="435" y="5"/>
			<point x="527" y="99"/>
			<point x="533" y="242" type="curve"/>
			<point x="533" y="242" type="line"/>
		</contour>
		<contour>
			<point x="67" y="262" type="curve" smooth="yes"/>
			<point x="67" y="416"/>
			<point x="161" y="518"/>
			<point x="303" y="518" type="curve" smooth="yes"/>
			<point x="438" y="518"/>
			<point x="533" y="412"/>
			<point x="533" y="261" type="curve"/>
			<point x="533" y="260" type="line"/>
			<point x="533" y="107"/>
			<point x="440" y="6"/>
			<point x="300" y="6" type="curve" smooth="yes"/>
			<point x="160" y="6"/>
			<point x="67" y="107"/>
		</contour>
	</outline>
</glyph>
<glyph name="h" format="2">
	<advance width="565"/>
	<unicode hex="0068"/>
	<outline>
		<contour>
			<point x="86" y="0" type="line"/>
			<point x="86" y="306" type="line"/>
			<point x="86" y="441"/>
			<point x="161" y="522"/>
			<point x="287" y="522" type="curve" smooth="yes"/>
			<point x="411" y="522"/>
			<point x="487" y="446"/>
			<point x="487" y="306" type="curve" smooth="yes"/>
			<point x="487" y="0" type="line"/>
			<point x="488" y="0" type="line"/>
			<point x="488" y="306" type="line" smooth="yes"/>
			<point x="488" y="446"/>
			<point x="412" y="523"/>
			<point x="287" y="523" type="curve" smooth="yes"/>
			<point x="165" y="523"/>
			<point x="90" y="446"/>
			<point x="86" y="321" type="curve"/>
			<point x="86" y="321" type="line"/>
			<point x="86" y="509" type="line"/>
			<point x="86" y="727" type="line"/>
			<point x="85" y="727" type="line"/>
			<point x="85" y="0" type="line"/>
		</contour>
	</outline>
</glyph>
<glyph name="k" format="2">
	<advance width="545"/>
	<unicode hex="006B"/>
	<anchor x="86" y="727" name="top"/>
	<anchor x="262" y="0" name="bottom"/>
	<outline>
		<contour>
			<point x="86" y="0" type="line"/>
			<point x="85" y="0" type="line"/>
			<point x="85" y="727" type="line"/>
			<point x="86" y="727" type="line"/>
		</contour>
		<contour>
			<point x="477" y="509" type="line"/>
			<point x="231" y="314" type="line"/>
			<point x="230" y="314" type="line"/>
			<point x="86" y="200" type="line"/>
			<point x="86" y="200" type="line"/>
			<point x="86" y="201" type="line"/>
			<point x="87" y="201" type="line"/>
			<point x="476" y="509" type="line"/>
		</contour>
		<contour>
			<point x="487" y="0" type="line"/>
			<point x="231" y="314" type="line"/>
			<point x="230" y="314" type="line"/>
			<point x="231" y="315" type="line"/>
			<point x="488" y="0" type="line"/>
		</contour>
	</outline>
</glyph>
<glyph name="l" format="2">
	<advance width="185"/>
	<unicode hex="006C"/>
	<anchor x="92" y="727" name="top"/>
	<anchor x="93" y="0" name="bottom"/>
	<outline>
		<contour>
			<point x="93" y="727" type="line"/>
			<point x="92" y="727" type="line"/>
			<point x="92" y="0" type="line"/>
			<point x="93" y="0" type="line"/>
		</contour>
	</outline>
</glyph>
<glyph name="m" format="2">
	<advance width="875"/>
	<unicode hex="006D"/>
	<outline>
		<contour>
			<point x="86" y="0" type="line"/>
			<point x="86" y="288" type="line"/>
			<point x="86" y="434"/>
			<point x="153" y="521"/>
			<point x="264" y="522" type="curve" smooth="yes"/>
			<point x="374" y="522"/>
			<point x="438" y="447"/>
			<point x="438" y="316" type="curve" smooth="yes"/>
			<point x="438" y="0" type="line"/>
			<point x="439" y="0" type="line"/>
			<point x="439" y="298" type="line"/>
			<point x="439" y="438"/>
			<point x="506" y="522"/>
			<point x="616" y="522" type="curve"/>
			<point x="728" y="522"/>
			<point x="791" y="447"/>
			<point x="791" y="316" type="curve" smooth="yes"/>
			<point x="791" y="0" type="line"/>
			<point x="792" y="0" type="line"/>
			<point x="792" y="316" type="line" smooth="yes"/>
			<point x="792" y="448"/>
			<point x="728" y="523"/>
			<point x="616" y="523" type="curve"/>
			<point x="510" y="523"/>
			<point x="444" y="446"/>
			<point x="439" y="316" type="curve"/>
			<point x="439" y="316" type="line"/>
			<point x="439" y="448"/>
			<point x="375" y="523"/>
			<point x="264" y="523" type="curve" smooth="yes"/>
			<point x="157" y="522"/>
			<point x="91" y="442"/>
			<point x="86" y="308" type="curve"/>
			<point x="86" y="308" type="line"/>
			<point x="86" y="509" type="line"/>
			<point x="85" y="509" type="line"/>
			<point x="85" y="0" type="line"/>
		</contour>
	</outline>
</glyph>
<glyph name="n" format="2">
	<advance width="565"/>
	<unicode hex="006E"/>
	<guideline x="146" y="564" angle="0"/>
	<guideline x="145" y="609" angle="0"/>
	<anchor x="287" y="509" name="top"/>
	<anchor x="287" y="0" name="bottom"/>
	<outline>
		<contour>
			<point x="86" y="0" type="line"/>
			<point x="86" y="306" type="line"/>
			<point x="86" y="441"/>
			<point x="161" y="522"/>
			<point x="287" y="522" type="curve" smooth="yes"/>
			<point x="411" y="522"/>
			<point x="487" y="446"/>
			<point x="487" y="306" type="curve" smooth="yes"/>
			<point x="487" y="0" type="line"/>
			<point x="488" y="0" type="line"/>
			<point x="488" y="306" type="line" smooth="yes"/>
			<point x="488" y="446"/>
			<point x="412" y="523"/>
			<point x="287" y="523" type="curve" smooth="yes"/>
			<point x="165" y="523"/>
			<point x="90" y="446"/>
			<point x="86" y="321" type="curve"/>
			<point x="86" y="321" type="line"/>
			<point x="86" y="509" type="line"/>
			<point x="85" y="509" type="line"/>
			<point x="85" y="0" type="line"/>
		</contour>
	</outline>
</glyph>
<glyph name="o" format="2">
	<advance width="647"/>
	<unicode hex="006F"/>
	<guideline x="1147" y="498" angle="90"/>
	<guideline x="93" y="507" angle="90"/>
	<anchor x="587" y="0" name="ogonek"/>
	<anchor x="324" y="-16" name="bottom"/>
	<anchor x="324" y="509" name="top"/>
	<outline>
		<contour>
			<point x="324" y="-16" type="curve" smooth="yes"/>
			<point x="171" y="-16"/>
			<point x="60" y="97"/>
			<point x="60" y="252" type="curve" smooth="yes"/>
			<point x="60" y="407"/>
			<point x="171" y="520"/>
			<point x="324" y="520" type="curve" smooth="yes"/>
			<point x="476" y="520"/>
			<point x="587" y="407"/>
			<point x="587" y="252" type="curve" smooth="yes"/>
			<point x="587" y="98"/>
			<point x="476" y="-16"/>
		</contour>
		<contour>
			<point x="324" y="-15" type="curve" smooth="yes"/>
			<point x="475" y="-15"/>
			<point x="586" y="98"/>
			<point x="586" y="252" type="curve" smooth="yes"/>
			<point x="586" y="406"/>
			<point x="475" y="519"/>
			<point x="324" y="519" type="curve" smooth="yes"/>
			<point x="172" y="519"/>
			<point x="61" y="406"/>
			<point x="61" y="252" type="curve" smooth="yes"/>
			<point x="61" y="98"/>
			<point x="172" y="-15"/>
		</contour>
	</outline>
</glyph>
<glyph name="p" format="2">
	<advance width="623"/>
	<unicode hex="0070"/>
	<outline>
		<contour>
			<point x="86" y="-178" type="line"/>
			<point x="86" y="236" type="line"/>
			<point x="86" y="236" type="line"/>
			<point x="92" y="85"/>
			<point x="186" y="-14"/>
			<point x="324" y="-14" type="curve" smooth="yes"/>
			<point x="467" y="-14"/>
			<point x="563" y="94"/>
			<point x="563" y="254" type="curve" smooth="yes"/>
			<point x="563" y="414"/>
			<point x="465" y="524"/>
			<point x="324" y="524" type="curve" smooth="yes"/>
			<point x="190" y="524"/>
			<point x="92" y="422"/>
			<point x="86" y="274" type="curve"/>
			<point x="86" y="274" type="line"/>
			<point x="86" y="509" type="line"/>
			<point x="85" y="509" type="line"/>
			<point x="85" y="-178" type="line"/>
		</contour>
		<contour>
			<point x="324" y="-13" type="curve" smooth="yes"/>
			<point x="180" y="-13"/>
			<point x="86" y="92"/>
			<point x="86" y="255" type="curve" smooth="yes"/>
			<point x="86" y="413"/>
			<point x="184" y="523"/>
			<point x="324" y="523" type="curve" smooth="yes"/>
			<point x="465" y="523"/>
			<point x="562" y="413"/>
			<point x="562" y="254" type="curve" smooth="yes"/>
			<point x="562" y="95"/>
			<point x="466" y="-13"/>
		</contour>
	</outline>
</glyph>
<glyph name="q" format="2">
	<advance width="623"/>
	<unicode hex="0071"/>
	<outline>
		<contour>
			<point x="537" y="-178" type="line"/>
			<point x="537" y="236" type="line"/>
			<point x="537" y="236" type="line"/>
			<point x="532" y="85"/>
			<point x="438" y="-14"/>
			<point x="299" y="-14" type="curve" smooth="yes"/>
			<point x="157" y="-14"/>
			<point x="60" y="94"/>
			<point x="60" y="254" type="curve" smooth="yes"/>
			<point x="60" y="414"/>
			<point x="158" y="524"/>
			<point x="299" y="524" type="curve" smooth="yes"/>
			<point x="434" y="524"/>
			<point x="531" y="422"/>
			<point x="537" y="274" type="curve"/>
			<point x="537" y="274" type="line"/>
			<point x="537" y="509" type="line"/>
			<point x="538" y="509" type="line"/>
			<point x="538" y="-178" type="line"/>
		</contour>
		<contour>
			<point x="299" y="-13" type="curve" smooth="yes"/>
			<point x="443" y="-13"/>
			<point x="537" y="92"/>
			<point x="537" y="255" type="curve" smooth="yes"/>
			<point x="537" y="413"/>
			<point x="439" y="523"/>
			<point x="299" y="523" type="curve" smooth="yes"/>
			<point x="159" y="523"/>
			<point x="61" y="413"/>
			<point x="61" y="254" type="curve" smooth="yes"/>
			<point x="61" y="95"/>
			<point x="157" y="-13"/>
		</contour>
	</outline>
</glyph>
<glyph name="r" format="2">
	<advance width="356"/>
	<unicode hex="0072"/>
	<anchor x="196" y="509" name="top"/>
	<anchor x="86" y="0" name="bottom"/>
	<outline>
		<contour>
			<point x="86" y="0" type="line"/>
			<point x="86" y="281" type="line"/>
			<point x="86" y="430"/>
			<point x="155" y="513"/>
			<point x="286" y="513" type="curve" smooth="yes"/>
			<point x="305" y="513"/>
			<point x="325" y="511"/>
			<point x="344" y="508" type="curve"/>
			<point x="344" y="509" type="line"/>
			<point x="325" y="512"/>
			<point x="305" y="514"/>
			<point x="286" y="514" type="curve" smooth="yes"/>
			<point x="158" y="514"/>
			<point x="89" y="434"/>
			<point x="86" y="296" type="curve"/>
			<point x="86" y="296" type="line"/>
			<point x="86" y="509" type="line"/>
			<point x="85" y="509" type="line"/>
			<point x="85" y="0" type="line"/>
		</contour>
	</outline>
</glyph>
<glyph name="s" format="2">
	<advance width="459"/>
	<unicode hex="0073"/>
	<anchor x="219" y="509" name="top"/>
	<anchor x="225" y="-14" name="bottom"/>
	<outline>
		<contour>
			<point x="60" y="400" type="curve" smooth="yes"/>
			<point x="60" y="334"/>
			<point x="102" y="297"/>
			<point x="199" y="275" type="curve" smooth="yes"/>
			<point x="272" y="259" type="line" smooth="yes"/>
			<point x="372" y="237"/>
			<point x="412" y="198"/>
			<point x="412" y="126" type="curve" smooth="yes"/>
			<point x="412" y="39"/>
			<point x="341" y="-13"/>
			<point x="225" y="-13" type="curve" smooth="yes"/>
			<point x="130" y="-13"/>
			<point x="64" y="28"/>
			<point x="19" y="107" type="curve"/>
			<point x="19" y="107" type="line"/>
			<point x="63" y="27"/>
			<point x="130" y="-14"/>
			<point x="225" y="-14" type="curve" smooth="yes"/>
			<point x="342" y="-14"/>
			<point x="413" y="39"/>
			<point x="413" y="126" type="curve" smooth="yes"/>
			<point x="413" y="198"/>
			<point x="373" y="238"/>
			<point x="272" y="260" type="curve" smooth="yes"/>
			<point x="199" y="276" type="line" smooth="yes"/>
			<point x="103" y="297"/>
			<point x="61" y="335"/>
			<point x="61" y="400" type="curve" smooth="yes"/>
			<point x="61" y="475"/>
			<point x="122" y="522"/>
			<point x="219" y="522" type="curve" smooth="yes"/>
			<point x="293" y="522"/>
			<point x="350" y="491"/>
			<point x="383" y="432" type="curve"/>
			<point x="384" y="432" type="line"/>
			<point x="350" y="491"/>
			<point x="293" y="523"/>
			<point x="219" y="523" type="curve" smooth="yes"/>
			<point x="121" y="523"/>
			<point x="60" y="475"/>
		</contour>
	</outline>
</glyph>
<glyph name="t" format="2">
	<advance width="391"/>
	<unicode hex="0074"/>
	<anchor x="196" y="0" name="bottom"/>
	<outline>
		<contour>
			<point x="23" y="508" type="line"/>
			<point x="342" y="508" type="line"/>
			<point x="342" y="509" type="line"/>
			<point x="23" y="509" type="line"/>
		</contour>
		<contour>
			<point x="125" y="650" type="line"/>
			<point x="124" y="650" type="line"/>
			<point x="124" y="509" type="line"/>
			<point x="124" y="131" type="line" smooth="yes"/>
			<point x="124" y="39"/>
			<point x="168" y="-8"/>
			<point x="256" y="-8" type="curve" smooth="yes"/>
			<point x="285" y="-8"/>
			<point x="313" y="-6"/>
			<point x="342" y="0" type="curve"/>
			<point x="342" y="1" type="line"/>
			<point x="313" y="-5"/>
			<point x="285" y="-7"/>
			<point x="256" y="-7" type="curve" smooth="yes"/>
			<point x="168" y="-7"/>
			<point x="125" y="40"/>
			<point x="125" y="131" type="curve" smooth="yes"/>
		</contour>
	</outline>
</glyph>
<glyph name="u" format="2">
	<advance width="565"/>
	<unicode hex="0075"/>
	<anchor x="480" y="0" name="ogonek"/>
	<anchor x="279" y="-14" name="bottom"/>
	<anchor x="279" y="509" name="top"/>
	<outline>
		<contour>
			<point x="479" y="509" type="line"/>
			<point x="479" y="204" type="line"/>
			<point x="479" y="68"/>
			<point x="404" y="-13"/>
			<point x="279" y="-13" type="curve" smooth="yes"/>
			<point x="154" y="-13"/>
			<point x="79" y="63"/>
			<point x="79" y="204" type="curve" smooth="yes"/>
			<point x="79" y="509" type="line"/>
			<point x="78" y="509" type="line"/>
			<point x="78" y="204" type="line" smooth="yes"/>
			<point x="78" y="63"/>
			<point x="154" y="-14"/>
			<point x="279" y="-14" type="curve" smooth="yes"/>
			<point x="401" y="-14"/>
			<point x="476" y="63"/>
			<point x="479" y="189" type="curve"/>
			<point x="479" y="189" type="line"/>
			<point x="479" y="0" type="line"/>
			<point x="480" y="0" type="line"/>
			<point x="480" y="509" type="line"/>
		</contour>
	</outline>
</glyph>
<glyph name="v" format="2">
	<advance width="548"/>
	<unicode hex="0076"/>
	<outline>
		<contour>
			<point x="51" y="509" type="line"/>
			<point x="275" y="1" type="line"/>
			<point x="274" y="2" type="line"/>
			<point x="276" y="2" type="line"/>
			<point x="275" y="1" type="line"/>
			<point x="498" y="509" type="line"/>
			<point x="499" y="509" type="line"/>
			<point x="275" y="0" type="line"/>
			<point x="274" y="0" type="line"/>
			<point x="49" y="509" type="line"/>
		</contour>
	</outline>
</glyph>
<glyph name="w" format="2">
	<advance width="798"/>
	<unicode hex="0077"/>
	<guideline x="730" y="439" angle="0"/>
	<outline>
		<contour>
			<point x="49" y="509" type="line"/>
			<point x="51" y="509" type="line"/>
			<point x="229" y="1" type="line"/>
			<point x="228" y="2" type="line"/>
			<point x="229" y="2" type="line"/>
			<point x="228" y="1" type="line"/>
			<point x="399" y="509" type="line"/>
			<point x="400" y="509" type="line"/>
			<point x="570" y="1" type="line"/>
			<point x="569" y="2" type="line"/>
			<point x="571" y="2" type="line"/>
			<point x="570" y="1" type="line"/>
			<point x="748" y="509" type="line"/>
			<point x="749" y="509" type="line"/>
			<point x="571" y="0" type="line"/>
			<point x="569" y="0" type="line"/>
			<point x="399" y="507" type="line"/>
			<point x="400" y="506" type="line"/>
			<point x="399" y="506" type="line"/>
			<point x="399" y="507" type="line"/>
			<point x="229" y="0" type="line"/>
			<point x="228" y="0" type="line"/>
		</contour>
	</outline>
</glyph>
<glyph name="x" format="2">
	<advance width="505"/>
	<unicode hex="0078"/>
	<guideline x="88" y="1018" angle="306.8886"/>
	<outline>
		<contour>
			<point x="64" y="509" type="line"/>
			<point x="63" y="509" type="line"/>
			<point x="253" y="265" type="line"/>
			<point x="254" y="264" type="line"/>
			<point x="459" y="0" type="line"/>
			<point x="460" y="0" type="line"/>
			<point x="255" y="264" type="line"/>
			<point x="255" y="265" type="line"/>
		</contour>
		<contour>
			<point x="47" y="0" type="line"/>
			<point x="253" y="263" type="line"/>
			<point x="255" y="263" type="line"/>
			<point x="253" y="266" type="line"/>
			<point x="45" y="0" type="line"/>
		</contour>
		<contour>
			<point x="446" y="509" type="line"/>
			<point x="255" y="265" type="line"/>
			<point x="253" y="265" type="line"/>
			<point x="255" y="263" type="line"/>
			<point x="447" y="509" type="line"/>
		</contour>
	</outline>
</glyph>
<glyph name="y" format="2">
	<advance width="542"/>
	<unicode hex="0079"/>
	<anchor x="274" y="509" name="top"/>
	<anchor x="412" y="0" name="bottom"/>
	<outline>
		<contour>
			<point x="119" y="-178" type="line"/>
			<point x="184" y="-178"/>
			<point x="213" y="-159"/>
			<point x="238" y="-101" type="curve" smooth="yes"/>
			<point x="497" y="509" type="line"/>
			<point x="496" y="509" type="line"/>
			<point x="279" y="-1" type="line"/>
			<point x="280" y="0" type="line"/>
			<point x="278" y="0" type="line"/>
			<point x="279" y="-1" type="line"/>
			<point x="46" y="509" type="line"/>
			<point x="45" y="509" type="line"/>
			<point x="278" y="1" type="line"/>
			<point x="279" y="-2"/>
			<point x="279" y="-2"/>
			<point x="278" y="-4" type="curve"/>
			<point x="237" y="-100" type="line" smooth="yes"/>
			<point x="212" y="-158"/>
			<point x="183" y="-177"/>
			<point x="119" y="-177" type="curve"/>
			<point x="53" y="-177" type="line"/>
			<point x="53" y="-178" type="line"/>
		</contour>
	</outline>
</glyph>
<glyph name="z" format="2">
	<advance width="530"/>
	<unicode hex="007A"/>
	<anchor x="265" y="509" name="top"/>
	<outline>
		<contour>
			<point x="64" y="0" type="line"/>
			<point x="64" y="1" type="line"/>
			<point x="463" y="509" type="line"/>
			<point x="463" y="507" type="line"/>
			<point x="462" y="509" type="line"/>
			<point x="464" y="508" type="line"/>
			<point x="64" y="508" type="line"/>
			<point x="64" y="509" type="line"/>
			<point x="465" y="509" type="line"/>
			<point x="465" y="509" type="line"/>
			<point x="65" y="0" type="line"/>
			<point x="66" y="2" type="line"/>
			<point x="67" y="1" type="line"/>
			<point x="65" y="1" type="line"/>
			<point x="466" y="1" type="line"/>
			<point x="465" y="0" type="line"/>
		</contour>
	</outline>
</glyph>
<glyph name="braceleft" format="2">
	<advance width="341"/>
	<unicode hex="007B"/>
	<outline>
		<contour>
			<point x="36" y="331" type="line"/>
			<point x="36" y="330" type="line"/>
			<point x="64" y="330" type="line" smooth="yes"/>
			<point x="130" y="330"/>
			<point x="172" y="292"/>
			<point x="172" y="219" type="curve" smooth="yes"/>
			<point x="172" y="16" type="line" smooth="yes"/>
			<point x="172" y="-59"/>
			<point x="214" y="-96"/>
			<point x="280" y="-96" type="curve" smooth="yes"/>
			<point x="305" y="-96" type="line"/>
			<point x="305" y="-95" type="line"/>
			<point x="280" y="-95" type="line" smooth="yes"/>
			<point x="214" y="-95"/>
			<point x="173" y="-58"/>
			<point x="173" y="16" type="curve" smooth="yes"/>
			<point x="173" y="219" type="line" smooth="yes"/>
			<point x="173" y="288"/>
			<point x="136" y="327"/>
			<point x="74" y="330" type="curve"/>
			<point x="74" y="331" type="line"/>
			<point x="136" y="334"/>
			<point x="173" y="372"/>
			<point x="173" y="441" type="curve" smooth="yes"/>
			<point x="173" y="645" type="line" smooth="yes"/>
			<point x="173" y="718"/>
			<point x="214" y="755"/>
			<point x="280" y="755" type="curve" smooth="yes"/>
			<point x="305" y="755" type="line"/>
			<point x="305" y="756" type="line"/>
			<point x="280" y="756" type="line" smooth="yes"/>
			<point x="214" y="756"/>
			<point x="172" y="719"/>
			<point x="172" y="645" type="curve" smooth="yes"/>
			<point x="172" y="441" type="line" smooth="yes"/>
			<point x="172" y="368"/>
			<point x="130" y="331"/>
			<point x="64" y="331" type="curve" smooth="yes"/>
		</contour>
	</outline>
</glyph>
<glyph name="bar" format="2">
	<advance width="171"/>
	<unicode hex="007C"/>
	<outline>
		<contour>
			<point x="86" y="775" type="line"/>
			<point x="86" y="-143" type="line"/>
			<point x="85" y="-143" type="line"/>
			<point x="85" y="775" type="line"/>
		</contour>
	</outline>
</glyph>
<glyph name="asciitilde" format="2">
	<advance width="620"/>
	<unicode hex="007E"/>
	<outline>
		<contour>
			<point x="537" y="388" type="line"/>
			<point x="532" y="303"/>
			<point x="487" y="261"/>
			<point x="425" y="261" type="curve" smooth="yes"/>
			<point x="319" y="261"/>
			<point x="303" y="394"/>
			<point x="196" y="394" type="curve" smooth="yes"/>
			<point x="133" y="394"/>
			<point x="87" y="351"/>
			<point x="83" y="265" type="curve"/>
			<point x="84" y="265" type="line"/>
			<point x="88" y="351"/>
			<point x="134" y="393"/>
			<point x="196" y="393" type="curve" smooth="yes"/>
			<point x="302" y="393"/>
			<point x="319" y="260"/>
			<point x="425" y="260" type="curve" smooth="yes"/>
			<point x="487" y="260"/>
			<point x="533" y="302"/>
			<point x="538" y="388" type="curve"/>
		</contour>
	</outline>
</glyph>
<glyph name="exclamdown" format="2">
	<advance width="193"/>
	<unicode hex="00A1"/>
	<outline>
		<contour>
			<point x="97" y="301" type="line"/>
			<point x="97" y="0" type="line"/>
			<point x="97" y="-178" type="line"/>
			<point x="96" y="-178" type="line"/>
			<point x="96" y="0" type="line"/>
			<point x="96" y="301" type="line"/>
		</contour>
		<component base="period" xScale="-1" yScale="-1" xOffset="156" yOffset="509"/>
	</outline>
</glyph>
<glyph name="sterling" format="2">
	<advance width="620"/>
	<unicode hex="00A3"/>
	<outline>
		<contour>
			<point x="96" y="353" type="line"/>
			<point x="528" y="353" type="line"/>
			<point x="528" y="354" type="line"/>
			<point x="181" y="354" type="line"/>
			<point x="96" y="354" type="line"/>
		</contour>
		<contour>
			<point x="54" y="1" type="curve"/>
			<point x="54" y="0" type="line"/>
			<point x="579" y="0" type="line"/>
			<point x="579" y="1" type="line"/>
			<point x="56" y="1" type="line"/>
			<point x="57" y="1" type="line"/>
			<point x="57" y="2" type="line"/>
			<point x="56" y="1" type="line"/>
			<point x="170" y="61"/>
			<point x="208" y="135"/>
			<point x="208" y="222" type="curve" smooth="yes"/>
			<point x="208" y="363"/>
			<point x="124" y="427"/>
			<point x="124" y="555" type="curve"/>
			<point x="124" y="671"/>
			<point x="201" y="741"/>
			<point x="318" y="741" type="curve" smooth="yes"/>
			<point x="421" y="741"/>
			<point x="486" y="696"/>
			<point x="519" y="603" type="curve"/>
			<point x="520" y="603" type="line"/>
			<point x="487" y="697"/>
			<point x="421" y="742"/>
			<point x="318" y="742" type="curve" smooth="yes"/>
			<point x="200" y="742"/>
			<point x="123" y="672"/>
			<point x="123" y="555" type="curve"/>
			<point x="123" y="427"/>
			<point x="207" y="363"/>
			<point x="207" y="222" type="curve" smooth="yes"/>
			<point x="207" y="135"/>
			<point x="169" y="62"/>
		</contour>
	</outline>
</glyph>
<glyph name="yen" format="2">
	<advance width="620"/>
	<unicode hex="00A5"/>
	<outline>
		<contour>
			<point x="31" y="727" type="line"/>
			<point x="29" y="727" type="line"/>
			<point x="310" y="358" type="line"/>
			<point x="311" y="358" type="line"/>
			<point x="594" y="727" type="line"/>
			<point x="593" y="727" type="line"/>
			<point x="311" y="359" type="line"/>
			<point x="311" y="359" type="line"/>
			<point x="309" y="359" type="line"/>
			<point x="310" y="359" type="line"/>
		</contour>
		<contour>
			<point x="311" y="358" type="line"/>
			<point x="310" y="358" type="line"/>
			<point x="310" y="0" type="line"/>
			<point x="311" y="0" type="line"/>
		</contour>
		<contour>
			<point x="61" y="268" type="line"/>
			<point x="572" y="268" type="line"/>
			<point x="572" y="269" type="line"/>
			<point x="61" y="269" type="line"/>
		</contour>
		<contour>
			<point x="61" y="456" type="line"/>
			<point x="236" y="456" type="line"/>
			<point x="235" y="457" type="line"/>
			<point x="61" y="457" type="line"/>
		</contour>
		<contour>
			<point x="386" y="456" type="line"/>
			<point x="572" y="456" type="line"/>
			<point x="572" y="457" type="line"/>
			<point x="387" y="457" type="line"/>
		</contour>
	</outline>
</glyph>
<glyph name="section" format="2">
	<advance width="610"/>
	<unicode hex="00A7"/>
	<outline>
		<contour>
			<point x="504" y="-37" type="curve" smooth="yes"/>
			<point x="504" y="-117"/>
			<point x="431" y="-189"/>
			<point x="308" y="-189" type="curve" smooth="yes"/>
			<point x="179" y="-189"/>
			<point x="107" y="-118"/>
			<point x="97" y="-1" type="curve"/>
			<point x="98" y="-1" type="line"/>
			<point x="108" y="-119"/>
			<point x="180" y="-188"/>
			<point x="308" y="-188" type="curve" smooth="yes"/>
			<point x="431" y="-188"/>
			<point x="503" y="-117"/>
			<point x="503" y="-37" type="curve" smooth="yes"/>
			<point x="503" y="20"/>
			<point x="475" y="62"/>
			<point x="395" y="94" type="curve"/>
			<point x="180" y="183" type="line" smooth="yes"/>
			<point x="87" y="221"/>
			<point x="56" y="266"/>
			<point x="56" y="331" type="curve" smooth="yes"/>
			<point x="56" y="395"/>
			<point x="93" y="452"/>
			<point x="209" y="465" type="curve"/>
			<point x="210" y="464" type="line"/>
			<point x="94" y="451"/>
			<point x="57" y="394"/>
			<point x="57" y="331" type="curve" smooth="yes"/>
			<point x="57" y="266"/>
			<point x="87" y="222"/>
			<point x="180" y="184" type="curve" smooth="yes"/>
			<point x="395" y="95" type="line"/>
			<point x="395" y="95" type="line"/>
			<point x="476" y="63"/>
			<point x="504" y="20"/>
		</contour>
		<contour>
			<point x="114" y="595" type="curve" smooth="yes"/>
			<point x="114" y="684"/>
			<point x="190" y="741"/>
			<point x="300" y="741" type="curve" smooth="yes"/>
			<point x="417" y="741"/>
			<point x="472" y="679"/>
			<point x="489" y="574" type="curve"/>
			<point x="488" y="574" type="line"/>
			<point x="471" y="679"/>
			<point x="417" y="740"/>
			<point x="300" y="740" type="curve" smooth="yes"/>
			<point x="190" y="740"/>
			<point x="115" y="684"/>
			<point x="115" y="595" type="curve" smooth="yes"/>
			<point x="115" y="528"/>
			<point x="142" y="493"/>
			<point x="209" y="465" type="curve" smooth="yes"/>
			<point x="425" y="376" type="line" smooth="yes"/>
			<point x="514" y="339"/>
			<point x="544" y="292"/>
			<point x="544" y="225" type="curve" smooth="yes"/>
			<point x="544" y="156"/>
			<point x="505" y="100"/>
			<point x="395" y="95" type="curve"/>
			<point x="394" y="95" type="line"/>
			<point x="504" y="101"/>
			<point x="543" y="157"/>
			<point x="543" y="225" type="curve" smooth="yes"/>
			<point x="543" y="291"/>
			<point x="514" y="338"/>
			<point x="425" y="375" type="curve" smooth="yes"/>
			<point x="209" y="464" type="line"/>
			<point x="209" y="465" type="line"/>
			<point x="142" y="492"/>
			<point x="114" y="528"/>
		</contour>
	</outline>
</glyph>
<glyph name="copyright" format="2">
	<advance width="1060"/>
	<unicode hex="00A9"/>
	<outline>
		<contour>
			<point x="770" y="276" type="line"/>
			<point x="740" y="179"/>
			<point x="661" y="105"/>
			<point x="530" y="105" type="curve" smooth="yes"/>
			<point x="373" y="105"/>
			<point x="274" y="212"/>
			<point x="274" y="363" type="curve" smooth="yes"/>
			<point x="274" y="514"/>
			<point x="373" y="623"/>
			<point x="530" y="623" type="curve" smooth="yes"/>
			<point x="656" y="623"/>
			<point x="733" y="560"/>
			<point x="772" y="464" type="curve"/>
			<point x="771" y="463" type="line"/>
			<point x="732" y="559"/>
			<point x="656" y="622"/>
			<point x="530" y="622" type="curve" smooth="yes"/>
			<point x="374" y="622"/>
			<point x="275" y="514"/>
			<point x="275" y="363" type="curve" smooth="yes"/>
			<point x="275" y="212"/>
			<point x="374" y="106"/>
			<point x="530" y="106" type="curve" smooth="yes"/>
			<point x="661" y="106"/>
			<point x="739" y="180"/>
			<point x="769" y="277" type="curve"/>
		</contour>
		<contour>
			<point x="528" y="-31" type="curve" smooth="yes"/>
			<point x="295" y="-31"/>
			<point x="122" y="125"/>
			<point x="122" y="362" type="curve" smooth="yes"/>
			<point x="122" y="598"/>
			<point x="296" y="758"/>
			<point x="528" y="758" type="curve" smooth="yes"/>
			<point x="760" y="758"/>
			<point x="938" y="599"/>
			<point x="938" y="362" type="curve" smooth="yes"/>
			<point x="938" y="125"/>
			<point x="760" y="-31"/>
		</contour>
		<contour>
			<point x="528" y="-30" type="curve" smooth="yes"/>
			<point x="761" y="-30"/>
			<point x="937" y="126"/>
			<point x="937" y="362" type="curve" smooth="yes"/>
			<point x="937" y="597"/>
			<point x="760" y="757"/>
			<point x="528" y="757" type="curve" smooth="yes"/>
			<point x="296" y="757"/>
			<point x="123" y="597"/>
			<point x="123" y="362" type="curve" smooth="yes"/>
			<point x="123" y="126"/>
			<point x="295" y="-30"/>
		</contour>
	</outline>
</glyph>
<glyph name="ordfeminine" format="2">
	<advance width="349"/>
	<unicode hex="00AA"/>
	<guideline x="610" y="1006" angle="90"/>
	<outline>
		<contour>
			<point x="65" y="660" type="line"/>
			<point x="88" y="711"/>
			<point x="126" y="734"/>
			<point x="181" y="734" type="curve" smooth="yes"/>
			<point x="256" y="734"/>
			<point x="305" y="695"/>
			<point x="305" y="604" type="curve" smooth="yes"/>
			<point x="305" y="403" type="line"/>
			<point x="304" y="403" type="line"/>
			<point x="304" y="526" type="line"/>
			<point x="304" y="526" type="line"/>
			<point x="296" y="440"/>
			<point x="230" y="396"/>
			<point x="151" y="396" type="curve" smooth="yes"/>
			<point x="79" y="396"/>
			<point x="42" y="435"/>
			<point x="42" y="493" type="curve" smooth="yes"/>
			<point x="42" y="546"/>
			<point x="75" y="584"/>
			<point x="158" y="584" type="curve" smooth="yes"/>
			<point x="304" y="584" type="line"/>
			<point x="304" y="604" type="line" smooth="yes"/>
			<point x="304" y="695"/>
			<point x="256" y="733"/>
			<point x="181" y="733" type="curve" smooth="yes"/>
			<point x="126" y="733"/>
			<point x="89" y="710"/>
			<point x="66" y="660" type="curve"/>
		</contour>
		<contour>
			<point x="151" y="397" type="curve" smooth="yes"/>
			<point x="233" y="397"/>
			<point x="304" y="446"/>
			<point x="304" y="546" type="curve"/>
			<point x="304" y="583" type="line"/>
			<point x="158" y="583" type="line" smooth="yes"/>
			<point x="76" y="583"/>
			<point x="43" y="545"/>
			<point x="43" y="493" type="curve" smooth="yes"/>
			<point x="43" y="436"/>
			<point x="79" y="397"/>
		</contour>
		<contour>
			<point x="44" y="272" type="line"/>
			<point x="305" y="272" type="line"/>
			<point x="305" y="273" type="line"/>
			<point x="44" y="273" type="line"/>
		</contour>
	</outline>
</glyph>
<glyph name="logicalnot" format="2">
	<advance width="620"/>
	<unicode hex="00AC"/>
	<outline>
		<contour>
			<point x="567" y="317" type="line"/>
			<point x="567" y="61" type="line"/>
			<point x="568" y="61" type="line"/>
			<point x="568" y="318" type="line"/>
			<point x="53" y="318" type="line"/>
			<point x="53" y="317" type="line"/>
		</contour>
	</outline>
</glyph>
<glyph name="registered" format="2">
	<advance width="486"/>
	<unicode hex="00AE"/>
	<outline>
		<contour>
			<point x="242" y="388" type="curve" smooth="yes"/>
			<point x="138" y="388"/>
			<point x="60" y="458"/>
			<point x="60" y="564" type="curve" smooth="yes"/>
			<point x="60" y="670"/>
			<point x="138" y="742"/>
			<point x="242" y="742" type="curve" smooth="yes"/>
			<point x="346" y="742"/>
			<point x="426" y="670"/>
			<point x="426" y="564" type="curve" smooth="yes"/>
			<point x="426" y="458"/>
			<point x="346" y="388"/>
		</contour>
		<contour>
			<point x="242" y="389" type="curve" smooth="yes"/>
			<point x="346" y="389"/>
			<point x="425" y="459"/>
			<point x="425" y="564" type="curve" smooth="yes"/>
			<point x="425" y="669"/>
			<point x="346" y="741"/>
			<point x="242" y="741" type="curve" smooth="yes"/>
			<point x="138" y="741"/>
			<point x="61" y="669"/>
			<point x="61" y="564" type="curve" smooth="yes"/>
			<point x="61" y="459"/>
			<point x="138" y="389"/>
		</contour>
		<contour>
			<point x="262" y="550" type="line"/>
			<point x="325" y="457" type="line"/>
			<point x="323" y="457" type="line"/>
			<point x="261" y="550" type="line"/>
		</contour>
		<contour>
			<point x="172" y="674" type="line"/>
			<point x="260" y="674" type="line" smooth="yes"/>
			<point x="302" y="674"/>
			<point x="327" y="649"/>
			<point x="327" y="612" type="curve" smooth="yes"/>
			<point x="327" y="575"/>
			<point x="302" y="549"/>
			<point x="260" y="549" type="curve"/>
			<point x="172" y="549" type="line"/>
			<point x="172" y="550" type="line"/>
			<point x="260" y="550" type="line"/>
			<point x="302" y="550"/>
			<point x="326" y="575"/>
			<point x="326" y="612" type="curve" smooth="yes"/>
			<point x="326" y="648"/>
			<point x="302" y="673"/>
			<point x="260" y="673" type="curve" smooth="yes"/>
			<point x="173" y="673" type="line"/>
			<point x="173" y="457" type="line"/>
			<point x="172" y="457" type="line"/>
		</contour>
	</outline>
</glyph>
<glyph name="degree" format="2">
	<advance width="377"/>
	<unicode hex="00B0"/>
	<outline>
		<contour>
			<point x="189" y="482" type="curve" smooth="yes"/>
			<point x="264" y="482"/>
			<point x="315" y="534"/>
			<point x="315" y="606" type="curve" smooth="yes"/>
			<point x="315" y="678"/>
			<point x="264" y="731"/>
			<point x="189" y="731" type="curve" smooth="yes"/>
			<point x="114" y="731"/>
			<point x="62" y="678"/>
			<point x="62" y="606" type="curve" smooth="yes"/>
			<point x="62" y="534"/>
			<point x="114" y="482"/>
		</contour>
		<contour>
			<point x="189" y="483" type="curve" smooth="yes"/>
			<point x="114" y="483"/>
			<point x="63" y="535"/>
			<point x="63" y="606" type="curve" smooth="yes"/>
			<point x="63" y="677"/>
			<point x="114" y="730"/>
			<point x="189" y="730" type="curve" smooth="yes"/>
			<point x="264" y="730"/>
			<point x="314" y="677"/>
			<point x="314" y="606" type="curve"/>
			<point x="314" y="535"/>
			<point x="264" y="483"/>
		</contour>
	</outline>
</glyph>
<glyph name="ordmasculine" format="2">
	<advance width="410"/>
	<unicode hex="00BA"/>
	<guideline x="1147" y="498" angle="90"/>
	<guideline x="88" y="900" angle="90"/>
	<guideline x="742" y="1118" angle="90"/>
	<outline>
		<contour>
			<point x="205" y="396" type="curve" smooth="yes"/>
			<point x="104" y="396"/>
			<point x="39" y="472"/>
			<point x="39" y="565" type="curve" smooth="yes"/>
			<point x="39" y="657"/>
			<point x="104" y="734"/>
			<point x="205" y="734" type="curve" smooth="yes"/>
			<point x="306" y="734"/>
			<point x="371" y="657"/>
			<point x="371" y="565" type="curve" smooth="yes"/>
			<point x="371" y="473"/>
			<point x="306" y="396"/>
		</contour>
		<contour>
			<point x="205" y="397" type="curve" smooth="yes"/>
			<point x="305" y="397"/>
			<point x="370" y="473"/>
			<point x="370" y="565" type="curve" smooth="yes"/>
			<point x="370" y="657"/>
			<point x="305" y="733"/>
			<point x="205" y="733" type="curve" smooth="yes"/>
			<point x="105" y="733"/>
			<point x="40" y="657"/>
			<point x="40" y="565" type="curve" smooth="yes"/>
			<point x="40" y="473"/>
			<point x="105" y="397"/>
		</contour>
		<contour>
			<point x="44" y="272" type="line"/>
			<point x="366" y="272" type="line"/>
			<point x="366" y="273" type="line"/>
			<point x="44" y="273" type="line"/>
		</contour>
	</outline>
</glyph>
<glyph name="questiondown" format="2">
	<advance width="504"/>
	<unicode hex="00BF"/>
	<guideline x="457" y="338" angle="90"/>
	<outline>
		<contour>
			<point x="266" y="286" type="line" smooth="yes"/>
			<point x="266" y="228"/>
			<point x="253" y="185"/>
			<point x="188" y="143" type="curve" smooth="yes"/>
			<point x="151" y="118" type="line" smooth="yes"/>
			<point x="102" y="86"/>
			<point x="66" y="36"/>
			<point x="66" y="-32" type="curve" smooth="yes"/>
			<point x="66" y="-128"/>
			<point x="133" y="-187"/>
			<point x="247" y="-187" type="curve" smooth="yes"/>
			<point x="356" y="-187"/>
			<point x="422" y="-123"/>
			<point x="438" y="-20" type="curve"/>
			<point x="439" y="-21" type="line"/>
			<point x="423" y="-123"/>
			<point x="357" y="-188"/>
			<point x="247" y="-188" type="curve" smooth="yes"/>
			<point x="132" y="-188"/>
			<point x="65" y="-128"/>
			<point x="65" y="-32" type="curve" smooth="yes"/>
			<point x="65" y="36"/>
			<point x="100" y="86"/>
			<point x="150" y="119" type="curve" smooth="yes"/>
			<point x="188" y="144" type="line" smooth="yes"/>
			<point x="253" y="186"/>
			<point x="265" y="229"/>
			<point x="265" y="286" type="curve" smooth="yes"/>
			<point x="265" y="301" type="line"/>
			<point x="266" y="301" type="line"/>
		</contour>
		<component base="period" xScale="-1" yScale="-1" xOffset="324" yOffset="509"/>
	</outline>
</glyph>
<glyph name="AE" format="2">
	<advance width="937"/>
	<unicode hex="00C6"/>
	<outline>
		<contour>
			<point x="163" y="245" type="line"/>
			<point x="478" y="245" type="line"/>
			<point x="478" y="246" type="line"/>
			<point x="164" y="246" type="line"/>
		</contour>
		<contour>
			<point x="882" y="0" type="line"/>
			<point x="882" y="1" type="line"/>
			<point x="478" y="1" type="line"/>
			<point x="478" y="372" type="line"/>
			<point x="722" y="372" type="line"/>
			<point x="722" y="373" type="line"/>
			<point x="478" y="373" type="line"/>
			<point x="478" y="726" type="line"/>
			<point x="863" y="726" type="line"/>
			<point x="863" y="727" type="line"/>
			<point x="425" y="727" type="line"/>
			<point x="30" y="0" type="line"/>
			<point x="31" y="0" type="line"/>
			<point x="426" y="726" type="line"/>
			<point x="477" y="726" type="line"/>
			<point x="477" y="0" type="line"/>
		</contour>
	</outline>
</glyph>
<glyph name="Eth" format="2">
	<advance width="716"/>
	<unicode hex="00D0"/>
	<outline>
		<contour>
			<point x="23" y="372" type="line"/>
			<point x="23" y="373" type="line"/>
			<point x="95" y="373" type="line"/>
			<point x="96" y="373" type="line"/>
			<point x="396" y="373" type="line"/>
			<point x="396" y="372" type="line"/>
			<point x="96" y="372" type="line"/>
			<point x="95" y="372" type="line"/>
		</contour>
		<component base="D" xOffset="10"/>
	</outline>
</glyph>
<glyph name="Oslash" format="2">
	<advance width="854"/>
	<unicode hex="00D8"/>
	<guideline x="1586" y="1356" angle="219.2389"/>
	<guideline x="1402" y="1531" angle="233.8713"/>
	<guideline x="1197" y="1127" angle="226.5266"/>
	<guideline x="450" y="341" angle="46.5622"/>
	<anchor x="420" y="727" name="top"/>
	<outline>
		<contour>
			<point x="83" y="0" type="line"/>
			<point x="167" y="89" type="line"/>
			<point x="168" y="89" type="line"/>
			<point x="680" y="630" type="line"/>
			<point x="680" y="630" type="line"/>
			<point x="773" y="728" type="line"/>
			<point x="774" y="727" type="line"/>
			<point x="681" y="629" type="line"/>
			<point x="680" y="629" type="line"/>
			<point x="169" y="89" type="line"/>
			<point x="168" y="88" type="line"/>
			<point x="84" y="-1" type="line"/>
		</contour>
		<component base="O"/>
	</outline>
</glyph>
<glyph name="Thorn" format="2">
	<advance width="586"/>
	<unicode hex="00DE"/>
	<outline>
		<contour>
			<point x="86" y="573" type="line"/>
			<point x="298" y="573" type="line" smooth="yes"/>
			<point x="441" y="573"/>
			<point x="523" y="479"/>
			<point x="523" y="364" type="curve" smooth="yes"/>
			<point x="523" y="236"/>
			<point x="440" y="155"/>
			<point x="299" y="155" type="curve" smooth="yes"/>
			<point x="86" y="155" type="line"/>
			<point x="86" y="154" type="line"/>
			<point x="299" y="154" type="line" smooth="yes"/>
			<point x="441" y="154"/>
			<point x="524" y="235"/>
			<point x="524" y="364" type="curve" smooth="yes"/>
			<point x="524" y="480"/>
			<point x="441" y="574"/>
			<point x="298" y="574" type="curve" smooth="yes"/>
			<point x="86" y="574" type="line"/>
		</contour>
		<contour>
			<point x="85" y="727" type="line"/>
			<point x="85" y="0" type="line"/>
			<point x="86" y="0" type="line"/>
			<point x="86" y="727" type="line"/>
		</contour>
	</outline>
</glyph>
<glyph name="germandbls" format="2">
	<advance width="599"/>
	<unicode hex="00DF"/>
	<outline>
		<contour>
			<point x="208" y="0" type="line"/>
			<point x="309" y="0" type="line" smooth="yes"/>
			<point x="451" y="0"/>
			<point x="531" y="79"/>
			<point x="531" y="210" type="curve" smooth="yes"/>
			<point x="531" y="354"/>
			<point x="422" y="411"/>
			<point x="297" y="415" type="curve"/>
			<point x="297" y="415" type="line"/>
			<point x="381" y="420"/>
			<point x="462" y="472"/>
			<point x="462" y="574" type="curve" smooth="yes"/>
			<point x="462" y="664"/>
			<point x="401" y="727"/>
			<point x="302" y="727" type="curve" smooth="yes"/>
			<point x="225" y="727" type="line" smooth="yes"/>
			<point x="133" y="727"/>
			<point x="80" y="671"/>
			<point x="80" y="571" type="curve" smooth="yes"/>
			<point x="80" y="0" type="line"/>
			<point x="81" y="0" type="line"/>
			<point x="81" y="571" type="line" smooth="yes"/>
			<point x="81" y="671"/>
			<point x="133" y="726"/>
			<point x="225" y="726" type="curve" smooth="yes"/>
			<point x="302" y="726" type="line" smooth="yes"/>
			<point x="401" y="726"/>
			<point x="461" y="664"/>
			<point x="461" y="574" type="curve" smooth="yes"/>
			<point x="461" y="472"/>
			<point x="377" y="415"/>
			<point x="282" y="415" type="curve" smooth="yes"/>
			<point x="208" y="415" type="line"/>
			<point x="208" y="414" type="line"/>
			<point x="282" y="414" type="line" smooth="yes"/>
			<point x="420" y="414"/>
			<point x="530" y="353"/>
			<point x="530" y="210" type="curve" smooth="yes"/>
			<point x="530" y="80"/>
			<point x="451" y="1"/>
			<point x="309" y="1" type="curve" smooth="yes"/>
			<point x="208" y="1" type="line"/>
		</contour>
	</outline>
</glyph>
<glyph name="ae" format="2">
	<advance width="978"/>
	<unicode hex="00E6"/>
	<outline>
		<contour>
			<point x="243" y="-10" type="curve" smooth="yes"/>
			<point x="130" y="-10"/>
			<point x="62" y="44"/>
			<point x="62" y="133" type="curve" smooth="yes"/>
			<point x="62" y="221"/>
			<point x="127" y="271"/>
			<point x="242" y="271" type="curve" smooth="yes"/>
			<point x="479" y="271" type="line"/>
			<point x="479" y="266" type="line" smooth="yes"/>
			<point x="479" y="93"/>
			<point x="390" y="-10"/>
		</contour>
		<contour>
			<point x="706" y="-10" type="curve" smooth="yes"/>
			<point x="559" y="-10"/>
			<point x="481" y="87"/>
			<point x="481" y="266" type="curve"/>
			<point x="481" y="276" type="line" smooth="yes"/>
			<point x="481" y="426"/>
			<point x="566" y="520"/>
			<point x="703" y="520" type="curve" smooth="yes"/>
			<point x="842" y="520"/>
			<point x="918" y="433"/>
			<point x="918" y="271" type="curve"/>
			<point x="918" y="272" type="line"/>
			<point x="480" y="272" type="line"/>
			<point x="480" y="271" type="line"/>
			<point x="919" y="271" type="line"/>
			<point x="919" y="433"/>
			<point x="844" y="521"/>
			<point x="703" y="521" type="curve" smooth="yes"/>
			<point x="567" y="521"/>
			<point x="481" y="429"/>
			<point x="480" y="281" type="curve"/>
			<point x="480" y="281" type="line"/>
			<point x="480" y="435"/>
			<point x="410" y="521"/>
			<point x="285" y="521" type="curve" smooth="yes"/>
			<point x="203" y="521"/>
			<point x="142" y="487"/>
			<point x="104" y="423" type="curve"/>
			<point x="105" y="422" type="line"/>
			<point x="143" y="486"/>
			<point x="204" y="520"/>
			<point x="285" y="520" type="curve" smooth="yes"/>
			<point x="411" y="520"/>
			<point x="479" y="434"/>
			<point x="479" y="276" type="curve" smooth="yes"/>
			<point x="479" y="272" type="line"/>
			<point x="242" y="272" type="line" smooth="yes"/>
			<point x="126" y="272"/>
			<point x="61" y="222"/>
			<point x="61" y="133" type="curve" smooth="yes"/>
			<point x="61" y="44"/>
			<point x="129" y="-11"/>
			<point x="243" y="-11" type="curve" smooth="yes"/>
			<point x="390" y="-11"/>
			<point x="480" y="92"/>
			<point x="480" y="260" type="curve"/>
			<point x="480" y="260" type="line"/>
			<point x="481" y="84"/>
			<point x="560" y="-11"/>
			<point x="706" y="-11" type="curve" smooth="yes"/>
			<point x="794" y="-11"/>
			<point x="864" y="32"/>
			<point x="898" y="103" type="curve"/>
			<point x="897" y="103" type="line"/>
			<point x="864" y="33"/>
			<point x="794" y="-10"/>
		</contour>
	</outline>
</glyph>
<glyph name="eth" format="2">
	<advance width="608"/>
	<unicode hex="00F0"/>
	<guideline x="182" y="1178" angle="16.3994"/>
	<outline>
		<contour>
			<point x="92" y="588" type="line"/>
			<point x="91" y="589" type="line"/>
			<point x="326" y="658" type="line"/>
			<point x="326" y="659" type="line"/>
			<point x="327" y="658" type="line"/>
			<point x="498" y="709" type="line"/>
			<point x="498" y="708" type="line"/>
			<point x="328" y="658" type="line"/>
			<point x="328" y="657" type="line"/>
			<point x="327" y="658" type="line"/>
		</contour>
		<contour>
			<point x="49" y="246" type="curve" smooth="yes"/>
			<point x="49" y="93"/>
			<point x="152" y="-13"/>
			<point x="300" y="-13" type="curve" smooth="yes"/>
			<point x="448" y="-13"/>
			<point x="550" y="93"/>
			<point x="550" y="246" type="curve" smooth="yes"/>
			<point x="550" y="397"/>
			<point x="451" y="498"/>
			<point x="300" y="498" type="curve" smooth="yes"/>
			<point x="149" y="498"/>
			<point x="49" y="398"/>
		</contour>
		<contour>
			<point x="551" y="246" type="curve" smooth="yes"/>
			<point x="551" y="92"/>
			<point x="449" y="-14"/>
			<point x="300" y="-14" type="curve" smooth="yes"/>
			<point x="151" y="-14"/>
			<point x="48" y="92"/>
			<point x="48" y="246" type="curve" smooth="yes"/>
			<point x="48" y="398"/>
			<point x="148" y="499"/>
			<point x="300" y="499" type="curve" smooth="yes"/>
			<point x="436" y="499"/>
			<point x="533" y="416"/>
			<point x="549" y="287" type="curve"/>
			<point x="549" y="287" type="line"/>
			<point x="533" y="511"/>
			<point x="386" y="674"/>
			<point x="151" y="727" type="curve"/>
			<point x="151" y="728" type="line"/>
			<point x="153" y="728" type="line"/>
			<point x="401" y="671"/>
			<point x="551" y="491"/>
		</contour>
	</outline>
</glyph>
<glyph name="divide" format="2">
	<advance width="620"/>
	<unicode hex="00F7"/>
	<outline>
		<contour>
			<point x="53" y="317" type="line"/>
			<point x="568" y="317" type="line"/>
			<point x="568" y="318" type="line"/>
			<point x="53" y="318" type="line"/>
		</contour>
		<contour>
			<point x="309" y="431" type="line"/>
			<point x="309" y="578" type="line"/>
			<point x="311" y="578" type="line"/>
			<point x="311" y="431" type="line"/>
		</contour>
		<contour>
			<point x="309" y="57" type="line"/>
			<point x="309" y="204" type="line"/>
			<point x="311" y="204" type="line"/>
			<point x="311" y="57" type="line"/>
		</contour>
	</outline>
</glyph>
<glyph name="oslash" format="2">
	<advance width="647"/>
	<unicode hex="00F8"/>
	<guideline x="1129" y="1020" angle="315"/>
	<guideline x="1129" y="1020" angle="226.5279"/>
	<anchor x="320" y="509" name="top"/>
	<outline>
		<contour>
			<point x="81" y="0" type="line"/>
			<point x="138" y="59" type="line"/>
			<point x="139" y="60" type="line"/>
			<point x="507" y="450" type="line"/>
			<point x="508" y="451" type="line"/>
			<point x="565" y="510" type="line"/>
			<point x="566" y="509" type="line"/>
			<point x="508" y="450" type="line"/>
			<point x="508" y="449" type="line"/>
			<point x="140" y="60" type="line"/>
			<point x="139" y="59" type="line"/>
			<point x="82" y="-1" type="line"/>
		</contour>
		<component base="o"/>
	</outline>
</glyph>
<glyph name="thorn" format="2">
	<advance width="631"/>
	<unicode hex="00FE"/>
	<outline>
		<contour>
			<point x="463" y="-14"/>
			<point x="563" y="90"/>
			<point x="563" y="254" type="curve" smooth="yes"/>
			<point x="563" y="418"/>
			<point x="468" y="524"/>
			<point x="324" y="524" type="curve" smooth="yes"/>
			<point x="189" y="524"/>
			<point x="92" y="429"/>
			<point x="86" y="274" type="curve"/>
			<point x="86" y="274" type="line"/>
			<point x="86" y="509" type="line"/>
			<point x="86" y="727" type="line"/>
			<point x="85" y="727" type="line"/>
			<point x="85" y="-178" type="line"/>
			<point x="86" y="-178" type="line"/>
			<point x="86" y="0" type="line"/>
			<point x="86" y="236" type="line"/>
			<point x="86" y="236" type="line"/>
			<point x="92" y="77"/>
			<point x="191" y="-14"/>
			<point x="324" y="-14" type="curve" smooth="yes"/>
		</contour>
		<contour>
			<point x="467" y="523"/>
			<point x="562" y="417"/>
			<point x="562" y="254" type="curve" smooth="yes"/>
			<point x="562" y="90"/>
			<point x="462" y="-13"/>
			<point x="324" y="-13" type="curve" smooth="yes"/>
			<point x="189" y="-13"/>
			<point x="86" y="82"/>
			<point x="86" y="255" type="curve" smooth="yes"/>
			<point x="86" y="428"/>
			<point x="190" y="523"/>
			<point x="324" y="523" type="curve" smooth="yes"/>
		</contour>
	</outline>
</glyph>
<glyph name="aogonek" format="2">
	<advance width="548"/>
	<unicode hex="0105"/>
	<outline>
		<contour>
			<point x="470" y="1" type="line"/>
			<point x="469" y="0" type="line"/>
			<point x="374" y="-55" type="line" smooth="yes"/>
			<point x="339" y="-76"/>
			<point x="326" y="-95"/>
			<point x="326" y="-123" type="curve" smooth="yes"/>
			<point x="326" y="-157"/>
			<point x="353" y="-178"/>
			<point x="403" y="-178" type="curve" smooth="yes"/>
			<point x="490" y="-178" type="line"/>
			<point x="490" y="-177" type="line"/>
			<point x="403" y="-177" type="line"/>
			<point x="353" y="-177"/>
			<point x="327" y="-156"/>
			<point x="327" y="-123" type="curve" smooth="yes"/>
			<point x="327" y="-95"/>
			<point x="339" y="-77"/>
			<point x="375" y="-56" type="curve" smooth="yes"/>
			<point x="470" y="0" type="line"/>
			<point x="470" y="1" type="line"/>
		</contour>
		<component base="a"/>
	</outline>
</glyph>
<glyph name="dcaron" format="2">
	<advance width="703"/>
	<unicode hex="010F"/>
	<outline>
		<contour>
			<point x="655" y="469" type="line"/>
			<point x="708" y="727" type="line"/>
			<point x="707" y="727" type="line"/>
			<point x="654" y="469" type="line"/>
		</contour>
		<component base="d"/>
	</outline>
</glyph>
<glyph name="dcroat" format="2">
	<advance width="631"/>
	<unicode hex="0111"/>
	<outline>
		<contour>
			<point x="288" y="620" type="line"/>
			<point x="605" y="620" type="line"/>
			<point x="605" y="621" type="line"/>
			<point x="288" y="621" type="line"/>
		</contour>
		<component base="d"/>
	</outline>
</glyph>
<glyph name="eogonek" format="2">
	<advance width="605"/>
	<unicode hex="0119"/>
	<outline>
		<contour>
			<point x="522" y="101" type="curve"/>
			<point x="521" y="101" type="line"/>
			<point x="521" y="100" type="line"/>
			<point x="520" y="99" type="line"/>
			<point x="514" y="39"/>
			<point x="489" y="-3"/>
			<point x="436" y="-65" type="curve" smooth="yes"/>
			<point x="385" y="-125"/>
			<point x="410" y="-178"/>
			<point x="477" y="-178" type="curve" smooth="yes"/>
			<point x="569" y="-178" type="line"/>
			<point x="569" y="-177" type="line"/>
			<point x="477" y="-177" type="line" smooth="yes"/>
			<point x="410" y="-177"/>
			<point x="387" y="-125"/>
			<point x="438" y="-65" type="curve" smooth="yes"/>
			<point x="491" y="-2"/>
			<point x="515" y="39"/>
		</contour>
		<component base="e"/>
	</outline>
</glyph>
<glyph name="idotless" format="2">
	<advance width="181"/>
	<unicode hex="0131"/>
	<anchor x="91" y="-1" name="ogonek"/>
	<anchor x="91" y="0" name="bottom"/>
	<anchor x="91" y="509" name="top"/>
	<outline>
		<contour>
			<point x="91" y="0" type="line"/>
			<point x="91" y="509" type="line"/>
			<point x="90" y="509" type="line"/>
			<point x="90" y="0" type="line"/>
		</contour>
	</outline>
</glyph>
<glyph name="IJ" format="2">
	<advance width="552"/>
	<unicode hex="0132"/>
	<outline>
		<contour>
			<point x="91" y="727" type="line"/>
			<point x="91" y="258" type="line"/>
			<point x="90" y="258" type="line"/>
			<point x="90" y="727" type="line"/>
		</contour>
		<contour>
			<point x="466" y="727" type="line"/>
			<point x="466" y="216" type="line" smooth="yes"/>
			<point x="466" y="70"/>
			<point x="391" y="-14"/>
			<point x="259" y="-14" type="curve" smooth="yes"/>
			<point x="154" y="-14"/>
			<point x="85" y="50"/>
			<point x="61" y="170" type="curve"/>
			<point x="62" y="170" type="line"/>
			<point x="86" y="51"/>
			<point x="154" y="-13"/>
			<point x="259" y="-13" type="curve" smooth="yes"/>
			<point x="391" y="-13"/>
			<point x="465" y="70"/>
			<point x="465" y="216" type="curve" smooth="yes"/>
			<point x="465" y="727" type="line"/>
		</contour>
	</outline>
</glyph>
<glyph name="Lcaron" format="2">
	<advance width="551"/>
	<unicode hex="013D"/>
	<outline>
		<contour>
			<point x="323" y="469" type="line"/>
			<point x="376" y="727" type="line"/>
			<point x="374" y="727" type="line"/>
			<point x="322" y="469" type="line"/>
		</contour>
		<component base="L"/>
	</outline>
</glyph>
<glyph name="lcaron" format="2">
	<advance width="258"/>
	<unicode hex="013E"/>
	<outline>
		<contour>
			<point x="210" y="469" type="line"/>
			<point x="263" y="727" type="line"/>
			<point x="261" y="727" type="line"/>
			<point x="209" y="469" type="line"/>
		</contour>
		<component base="l"/>
	</outline>
</glyph>
<glyph name="Lslash" format="2">
	<advance width="550"/>
	<unicode hex="0141"/>
	<guideline x="-72" y="665" angle="28.8266"/>
	<guideline x="608" y="745" angle="208.7475"/>
	<note>
		just draw this
	</note>
	<outline>
		<contour>
			<point x="19" y="275" type="line"/>
			<point x="367" y="467" type="line"/>
			<point x="367" y="468" type="line"/>
			<point x="19" y="276" type="line"/>
		</contour>
		<component base="L" xOffset="15"/>
	</outline>
</glyph>
<glyph name="lslash" format="2">
	<advance width="241"/>
	<unicode hex="0142"/>
	<guideline x="704" y="1094" angle="208.9497"/>
	<note>
		just draw this
	</note>
	<outline>
		<contour>
			<point x="27" y="329" type="line"/>
			<point x="205" y="432" type="line"/>
			<point x="205" y="433" type="line"/>
			<point x="27" y="330" type="line"/>
		</contour>
		<component base="l" xOffset="8"/>
	</outline>
</glyph>
<glyph name="OE" format="2">
	<advance width="1256"/>
	<unicode hex="0152"/>
	<outline>
		<contour>
			<point x="420" y="-14" type="curve" smooth="yes"/>
			<point x="212" y="-14"/>
			<point x="74" y="133"/>
			<point x="74" y="363" type="curve" smooth="yes"/>
			<point x="74" y="593"/>
			<point x="211" y="741"/>
			<point x="420" y="741" type="curve" smooth="yes"/>
			<point x="628" y="741"/>
			<point x="768" y="593"/>
			<point x="768" y="363" type="curve" smooth="yes"/>
			<point x="768" y="133"/>
			<point x="628" y="-14"/>
		</contour>
		<contour>
			<point x="420" y="-15" type="curve" smooth="yes"/>
			<point x="620" y="-15"/>
			<point x="756" y="120"/>
			<point x="768" y="327" type="curve"/>
			<point x="769" y="327" type="line"/>
			<point x="769" y="400" type="line"/>
			<point x="768" y="400" type="line"/>
			<point x="754" y="607"/>
			<point x="620" y="742"/>
			<point x="420" y="742" type="curve" smooth="yes"/>
			<point x="211" y="742"/>
			<point x="73" y="593"/>
			<point x="73" y="363" type="curve" smooth="yes"/>
			<point x="73" y="133"/>
			<point x="212" y="-15"/>
		</contour>
		<component base="E" xOffset="683"/>
	</outline>
</glyph>
<glyph name="oe" format="2">
	<advance width="1018"/>
	<unicode hex="0153"/>
	<outline>
		<contour>
			<point x="519" y="85"/>
			<point x="431" y="-10"/>
			<point x="294" y="-10" type="curve" smooth="yes"/>
			<point x="152" y="-10"/>
			<point x="61" y="94"/>
			<point x="61" y="255" type="curve" smooth="yes"/>
			<point x="61" y="417"/>
			<point x="152" y="520"/>
			<point x="294" y="520" type="curve" smooth="yes"/>
			<point x="430" y="520"/>
			<point x="520" y="423"/>
			<point x="519" y="271" type="curve" smooth="yes"/>
		</contour>
		<contour>
			<point x="904" y="33"/>
			<point x="834" y="-10"/>
			<point x="746" y="-10" type="curve" smooth="yes"/>
			<point x="599" y="-10"/>
			<point x="521" y="87"/>
			<point x="521" y="266" type="curve" smooth="yes"/>
			<point x="521" y="276" type="line" smooth="yes"/>
			<point x="521" y="426"/>
			<point x="606" y="520"/>
			<point x="743" y="520" type="curve" smooth="yes"/>
			<point x="882" y="520"/>
			<point x="958" y="428"/>
			<point x="958" y="271" type="curve"/>
			<point x="958" y="272" type="line"/>
			<point x="520" y="272" type="line"/>
			<point x="520" y="271" type="line"/>
			<point x="959" y="271" type="line"/>
			<point x="959" y="428"/>
			<point x="884" y="521"/>
			<point x="743" y="521" type="curve" smooth="yes"/>
			<point x="607" y="521"/>
			<point x="521" y="429"/>
			<point x="520" y="281" type="curve"/>
			<point x="520" y="281" type="line"/>
			<point x="518" y="423"/>
			<point x="431" y="521"/>
			<point x="294" y="521" type="curve" smooth="yes"/>
			<point x="151" y="521"/>
			<point x="60" y="417"/>
			<point x="60" y="255" type="curve" smooth="yes"/>
			<point x="60" y="93"/>
			<point x="151" y="-11"/>
			<point x="294" y="-11" type="curve" smooth="yes"/>
			<point x="434" y="-11"/>
			<point x="517" y="88"/>
			<point x="520" y="260" type="curve"/>
			<point x="520" y="260" type="line"/>
			<point x="521" y="84"/>
			<point x="600" y="-11"/>
			<point x="746" y="-11" type="curve" smooth="yes"/>
			<point x="834" y="-11"/>
			<point x="904" y="32"/>
			<point x="938" y="103" type="curve"/>
			<point x="937" y="103" type="line"/>
		</contour>
	</outline>
</glyph>
<glyph name="tcaron" format="2">
	<advance width="391"/>
	<unicode hex="0165"/>
	<outline>
		<contour>
			<point x="238" y="594" type="line"/>
			<point x="291" y="792" type="line"/>
			<point x="289" y="793" type="line"/>
			<point x="237" y="594" type="line"/>
		</contour>
		<component base="t"/>
	</outline>
</glyph>
<glyph name="florin" format="2">
	<advance width="441"/>
	<unicode hex="0192"/>
	<guideline x="447" y="786" angle="0"/>
	<outline>
		<contour>
			<point x="45" y="394" type="line"/>
			<point x="45" y="393" type="line"/>
			<point x="396" y="393" type="line"/>
			<point x="396" y="394" type="line"/>
		</contour>
		<contour>
			<point x="191" y="121" type="curve" smooth="yes"/>
			<point x="251" y="607" type="line" smooth="yes"/>
			<point x="261" y="685"/>
			<point x="312" y="726"/>
			<point x="394" y="726" type="curve" smooth="yes"/>
			<point x="431" y="726" type="line"/>
			<point x="431" y="727" type="line"/>
			<point x="394" y="727" type="line" smooth="yes"/>
			<point x="311" y="727"/>
			<point x="260" y="685"/>
			<point x="250" y="607" type="curve" smooth="yes"/>
			<point x="190" y="121" type="line" smooth="yes"/>
			<point x="181" y="43"/>
			<point x="130" y="1"/>
			<point x="48" y="1" type="curve" smooth="yes"/>
			<point x="10" y="1" type="line"/>
			<point x="10" y="0" type="line"/>
			<point x="48" y="0" type="line" smooth="yes"/>
			<point x="131" y="0"/>
			<point x="182" y="42"/>
		</contour>
	</outline>
</glyph>
<glyph name="Ohorn" format="2">
	<advance width="842"/>
	<unicode hex="01A0"/>
	<anchor x="421" y="727" name="top"/>
	<outline>
		<contour>
			<point x="421" y="-15" type="curve" smooth="yes"/>
			<point x="638" y="-15"/>
			<point x="779" y="139"/>
			<point x="779" y="364" type="curve" smooth="yes"/>
			<point x="779" y="546"/>
			<point x="686" y="682"/>
			<point x="534" y="726" type="curve"/>
			<point x="534" y="726" type="line"/>
			<point x="646" y="726"/>
			<point x="686" y="748"/>
			<point x="686" y="828" type="curve" smooth="yes"/>
			<point x="686" y="846" type="line"/>
			<point x="685" y="846" type="line"/>
			<point x="685" y="828" type="line" smooth="yes"/>
			<point x="685" y="749"/>
			<point x="646" y="727"/>
			<point x="530" y="727" type="curve"/>
			<point x="508" y="734"/>
			<point x="467" y="742"/>
			<point x="421" y="742" type="curve" smooth="yes"/>
			<point x="204" y="742"/>
			<point x="63" y="589"/>
			<point x="63" y="364" type="curve" smooth="yes"/>
			<point x="63" y="139"/>
			<point x="204" y="-15"/>
		</contour>
		<contour>
			<point x="421" y="-14" type="curve" smooth="yes"/>
			<point x="205" y="-14"/>
			<point x="64" y="139"/>
			<point x="64" y="364" type="curve" smooth="yes"/>
			<point x="64" y="588"/>
			<point x="205" y="741"/>
			<point x="421" y="741" type="curve" smooth="yes"/>
			<point x="637" y="741"/>
			<point x="778" y="588"/>
			<point x="778" y="364" type="curve" smooth="yes"/>
			<point x="778" y="139"/>
			<point x="637" y="-14"/>
		</contour>
	</outline>
</glyph>
<glyph name="ohorn" format="2">
	<advance width="647"/>
	<unicode hex="01A1"/>
	<anchor x="572" y="0" name="ogonek"/>
	<anchor x="324" y="0" name="bottom"/>
	<anchor x="324" y="509" name="top"/>
	<outline>
		<contour>
			<point x="324" y="-16" type="curve" smooth="yes"/>
			<point x="484" y="-16"/>
			<point x="587" y="106"/>
			<point x="587" y="252" type="curve" smooth="yes"/>
			<point x="587" y="371"/>
			<point x="518" y="475"/>
			<point x="405" y="509" type="curve"/>
			<point x="406" y="509" type="line"/>
			<point x="518" y="508"/>
			<point x="560" y="534"/>
			<point x="560" y="614" type="curve" smooth="yes"/>
			<point x="560" y="633" type="line"/>
			<point x="559" y="633" type="line"/>
			<point x="559" y="614" type="line" smooth="yes"/>
			<point x="559" y="535"/>
			<point x="519" y="509"/>
			<point x="403" y="509" type="curve"/>
			<point x="380" y="515"/>
			<point x="355" y="520"/>
			<point x="324" y="520" type="curve" smooth="yes"/>
			<point x="164" y="520"/>
			<point x="60" y="399"/>
			<point x="60" y="252" type="curve" smooth="yes"/>
			<point x="60" y="105"/>
			<point x="164" y="-16"/>
		</contour>
		<contour>
			<point x="324" y="-15" type="curve" smooth="yes"/>
			<point x="164" y="-15"/>
			<point x="61" y="106"/>
			<point x="61" y="252" type="curve" smooth="yes"/>
			<point x="61" y="398"/>
			<point x="164" y="519"/>
			<point x="324" y="519" type="curve" smooth="yes"/>
			<point x="483" y="519"/>
			<point x="586" y="398"/>
			<point x="586" y="252" type="curve" smooth="yes"/>
			<point x="586" y="106"/>
			<point x="483" y="-15"/>
		</contour>
	</outline>
</glyph>
<glyph name="Uhorn" format="2">
	<advance width="678"/>
	<unicode hex="01AF"/>
	<anchor x="338" y="727" name="top"/>
	<outline>
		<contour>
			<point x="678" y="846" type="line"/>
			<point x="678" y="778" type="line" smooth="yes"/>
			<point x="678" y="744"/>
			<point x="660" y="727"/>
			<point x="630" y="727" type="curve" smooth="yes"/>
			<point x="596" y="727" type="line"/>
			<point x="596" y="726" type="line"/>
			<point x="630" y="726" type="line" smooth="yes"/>
			<point x="660" y="726"/>
			<point x="679" y="743"/>
			<point x="679" y="778" type="curve" smooth="yes"/>
			<point x="679" y="846" type="line"/>
		</contour>
		<component base="U"/>
	</outline>
</glyph>
<glyph name="uhorn" format="2">
	<advance width="586"/>
	<unicode hex="01B0"/>
	<anchor x="287" y="509" name="top"/>
	<outline>
		<contour>
			<point x="572" y="633" type="line"/>
			<point x="572" y="560" type="line" smooth="yes"/>
			<point x="572" y="526"/>
			<point x="554" y="509"/>
			<point x="524" y="509" type="curve"/>
			<point x="500" y="509" type="line"/>
			<point x="501" y="508" type="line"/>
			<point x="524" y="508" type="line"/>
			<point x="555" y="508"/>
			<point x="573" y="525"/>
			<point x="573" y="560" type="curve" smooth="yes"/>
			<point x="573" y="633" type="line"/>
		</contour>
		<component base="u"/>
	</outline>
</glyph>
<glyph name="jdotless" format="2">
	<advance width="181"/>
	<unicode hex="0237"/>
	<anchor x="91" y="509" name="top"/>
	<outline>
		<contour>
			<point x="90" y="509" type="line"/>
			<point x="90" y="-67" type="line" smooth="yes"/>
			<point x="90" y="-140"/>
			<point x="49" y="-178"/>
			<point x="-18" y="-178" type="curve" smooth="yes"/>
			<point x="-82" y="-178" type="line"/>
			<point x="-82" y="-179" type="line"/>
			<point x="-18" y="-179" type="line" smooth="yes"/>
			<point x="49" y="-179"/>
			<point x="91" y="-141"/>
			<point x="91" y="-67" type="curve" smooth="yes"/>
			<point x="91" y="509" type="line"/>
		</contour>
	</outline>
</glyph>
<glyph name="gravecomb" format="2">
	<advance width="0"/>
	<unicode hex="0300"/>
	<anchor x="0" y="509" name="_top"/>
	<outline>
		<contour>
			<point x="-1" y="600" type="line"/>
			<point x="1" y="600" type="line"/>
			<point x="-112" y="728" type="line"/>
			<point x="-113" y="727" type="line"/>
		</contour>
	</outline>
</glyph>
<glyph name="acutecomb" format="2">
	<advance width="0"/>
	<unicode hex="0301"/>
	<anchor x="0" y="509" name="_top"/>
	<outline>
		<contour>
			<point x="1" y="600" type="line"/>
			<point x="113" y="727" type="line"/>
			<point x="112" y="728" type="line"/>
			<point x="-1" y="600" type="line"/>
		</contour>
	</outline>
</glyph>
<glyph name="circumflexcomb" format="2">
	<advance width="0"/>
	<unicode hex="0302"/>
	<anchor x="134" y="599" name="side"/>
	<anchor x="0" y="667" name="top"/>
	<anchor x="0" y="509" name="_top"/>
	<outline>
		<contour>
			<point x="-133" y="600" type="line"/>
			<point x="-1" y="727" type="line"/>
			<point x="1" y="727" type="line"/>
			<point x="133" y="600" type="line"/>
			<point x="134" y="600" type="line"/>
			<point x="1" y="728" type="line"/>
			<point x="-1" y="728" type="line"/>
			<point x="-134" y="600" type="line"/>
		</contour>
	</outline>
</glyph>
<glyph name="tildecomb" format="2">
	<advance width="0"/>
	<unicode hex="0303"/>
	<anchor x="0" y="509" name="_top"/>
	<outline>
		<contour>
			<point x="-160" y="651" type="line"/>
			<point x="-150" y="712"/>
			<point x="-117" y="734"/>
			<point x="-85" y="734" type="curve" smooth="yes"/>
			<point x="-64" y="734"/>
			<point x="-48" y="729"/>
			<point x="-26" y="709" type="curve" smooth="yes"/>
			<point x="32" y="656" type="line" smooth="yes"/>
			<point x="54" y="636"/>
			<point x="69" y="631"/>
			<point x="91" y="631" type="curve" smooth="yes"/>
			<point x="124" y="631"/>
			<point x="156" y="654"/>
			<point x="167" y="720" type="curve"/>
			<point x="166" y="720" type="line"/>
			<point x="155" y="655"/>
			<point x="123" y="632"/>
			<point x="91" y="632" type="curve" smooth="yes"/>
			<point x="69" y="632"/>
			<point x="54" y="637"/>
			<point x="32" y="657" type="curve" smooth="yes"/>
			<point x="-26" y="710" type="line" smooth="yes"/>
			<point x="-48" y="730"/>
			<point x="-64" y="735"/>
			<point x="-85" y="735" type="curve" smooth="yes"/>
			<point x="-118" y="735"/>
			<point x="-151" y="712"/>
			<point x="-161" y="651" type="curve"/>
		</contour>
	</outline>
</glyph>
<glyph name="macroncomb" format="2">
	<advance width="0"/>
	<unicode hex="0304"/>
	<anchor x="0" y="509" name="_top"/>
	<outline>
		<contour>
			<point x="-120" y="678" type="line"/>
			<point x="120" y="678" type="line"/>
			<point x="120" y="679" type="line"/>
			<point x="-120" y="679" type="line"/>
		</contour>
	</outline>
</glyph>
<glyph name="brevecomb" format="2">
	<advance width="0"/>
	<unicode hex="0306"/>
	<anchor x="0" y="667" name="top"/>
	<anchor x="0" y="509" name="_top"/>
	<outline>
		<contour>
			<point x="0" y="597" type="curve" smooth="yes"/>
			<point x="83" y="597"/>
			<point x="137" y="645"/>
			<point x="142" y="727" type="curve"/>
			<point x="141" y="728" type="line"/>
			<point x="136" y="645"/>
			<point x="83" y="598"/>
			<point x="0" y="598" type="curve" smooth="yes"/>
			<point x="-83" y="598"/>
			<point x="-136" y="645"/>
			<point x="-141" y="728" type="curve"/>
			<point x="-142" y="727" type="line"/>
			<point x="-137" y="645"/>
			<point x="-83" y="597"/>
		</contour>
	</outline>
</glyph>
<glyph name="dieresiscomb" format="2">
	<advance width="0"/>
	<unicode hex="0308"/>
	<anchor x="0" y="509" name="_top"/>
	<outline>
		<contour>
			<point x="-88" y="600" type="line"/>
			<point x="-88" y="727" type="line"/>
			<point x="-87" y="727" type="line"/>
			<point x="-87" y="600" type="line"/>
		</contour>
		<contour>
			<point x="87" y="600" type="line"/>
			<point x="87" y="727" type="line"/>
			<point x="88" y="727" type="line"/>
			<point x="88" y="600" type="line"/>
		</contour>
	</outline>
</glyph>
<glyph name="hookcomb" format="2">
	<advance width="0"/>
	<unicode hex="0309"/>
	<guideline x="55" y="1366" angle="220.5526"/>
	<guideline x="-88" y="1242" angle="220.6955"/>
	<anchor x="0" y="509" name="_top"/>
	<outline>
		<contour>
			<point x="1" y="600" type="line"/>
			<point x="76" y="663" type="line" smooth="yes"/>
			<point x="96" y="680"/>
			<point x="102" y="690"/>
			<point x="102" y="705" type="curve" smooth="yes"/>
			<point x="102" y="728"/>
			<point x="89" y="742"/>
			<point x="57" y="742" type="curve" smooth="yes"/>
			<point x="-93" y="742" type="line"/>
			<point x="-93" y="741" type="line"/>
			<point x="57" y="741" type="line" smooth="yes"/>
			<point x="88" y="741"/>
			<point x="101" y="728"/>
			<point x="101" y="705" type="curve" smooth="yes"/>
			<point x="101" y="690"/>
			<point x="95" y="681"/>
			<point x="75" y="664" type="curve" smooth="yes"/>
			<point x="-1" y="600" type="line"/>
			<point x="-1" y="600" type="line"/>
		</contour>
	</outline>
</glyph>
<glyph name="ringcomb" format="2">
	<advance width="0"/>
	<unicode hex="030A"/>
	<anchor x="0" y="600" name="_ring"/>
	<anchor x="0" y="509" name="_top"/>
	<outline>
		<contour>
			<point x="0" y="599" type="curve" smooth="yes"/>
			<point x="65" y="599"/>
			<point x="109" y="644"/>
			<point x="109" y="706" type="curve" smooth="yes"/>
			<point x="109" y="768"/>
			<point x="65" y="814"/>
			<point x="0" y="814" type="curve" smooth="yes"/>
			<point x="-65" y="814"/>
			<point x="-109" y="768"/>
			<point x="-109" y="706" type="curve" smooth="yes"/>
			<point x="-109" y="644"/>
			<point x="-65" y="599"/>
		</contour>
		<contour>
			<point x="0" y="600" type="curve" smooth="yes"/>
			<point x="-64" y="600"/>
			<point x="-108" y="645"/>
			<point x="-108" y="706" type="curve" smooth="yes"/>
			<point x="-108" y="768"/>
			<point x="-64" y="813"/>
			<point x="0" y="813" type="curve" smooth="yes"/>
			<point x="64" y="813"/>
			<point x="108" y="768"/>
			<point x="108" y="706" type="curve" smooth="yes"/>
			<point x="108" y="645"/>
			<point x="64" y="600"/>
		</contour>
	</outline>
</glyph>
<glyph name="hungarumlautcmb" format="2">
	<advance width="0"/>
	<unicode hex="030B"/>
	<anchor x="0" y="509" name="_top"/>
	<outline>
		<contour>
			<point x="86" y="600" type="line"/>
			<point x="198" y="727" type="line"/>
			<point x="197" y="728" type="line"/>
			<point x="85" y="600" type="line"/>
		</contour>
		<contour>
			<point x="-90" y="600" type="line"/>
			<point x="18" y="727" type="line"/>
			<point x="17" y="728" type="line"/>
			<point x="-91" y="600" type="line"/>
		</contour>
	</outline>
</glyph>
<glyph name="horncmb" format="2">
	<advance width="0"/>
	<unicode hex="031B"/>
	<anchor x="0" y="509" name="_horn"/>
	<outline>
		<contour>
			<point x="144" y="633" type="line"/>
			<point x="145" y="633" type="line"/>
			<point x="145" y="555" type="line" smooth="yes"/>
			<point x="145" y="524"/>
			<point x="126" y="508"/>
			<point x="96" y="508" type="curve" smooth="yes"/>
			<point x="0" y="508" type="line"/>
			<point x="0" y="509" type="line"/>
			<point x="96" y="509" type="line" smooth="yes"/>
			<point x="126" y="509"/>
			<point x="144" y="525"/>
			<point x="144" y="555" type="curve" smooth="yes"/>
		</contour>
	</outline>
</glyph>
<glyph name="cedillacomb" format="2">
	<advance width="0"/>
	<unicode hex="0327"/>
	<anchor x="0" y="0" name="_bottom"/>
	<outline>
		<contour>
			<point x="1" y="1" type="line"/>
			<point x="-1" y="1" type="line"/>
			<point x="-1" y="-73" type="line"/>
			<point x="65" y="-73" type="line" smooth="yes"/>
			<point x="125" y="-73"/>
			<point x="151" y="-95"/>
			<point x="151" y="-139" type="curve" smooth="yes"/>
			<point x="151" y="-182"/>
			<point x="125" y="-206"/>
			<point x="65" y="-206" type="curve" smooth="yes"/>
			<point x="-126" y="-206" type="line"/>
			<point x="-126" y="-207" type="line"/>
			<point x="65" y="-207" type="line" smooth="yes"/>
			<point x="126" y="-207"/>
			<point x="152" y="-183"/>
			<point x="152" y="-139" type="curve" smooth="yes"/>
			<point x="152" y="-95"/>
			<point x="126" y="-72"/>
			<point x="65" y="-72" type="curve" smooth="yes"/>
			<point x="1" y="-72" type="line"/>
		</contour>
	</outline>
</glyph>
<glyph name="ogonekcmb" format="2">
	<advance width="0"/>
	<unicode hex="0328"/>
	<anchor x="0" y="0" name="_ogonek"/>
	<outline>
		<contour>
			<point x="-1" y="1" type="line"/>
			<point x="-1" y="1" type="line"/>
			<point x="-96" y="-55" type="line" smooth="yes"/>
			<point x="-132" y="-76"/>
			<point x="-144" y="-95"/>
			<point x="-144" y="-123" type="curve" smooth="yes"/>
			<point x="-144" y="-157"/>
			<point x="-118" y="-178"/>
			<point x="-68" y="-178" type="curve" smooth="yes"/>
			<point x="20" y="-178" type="line"/>
			<point x="20" y="-177" type="line"/>
			<point x="-68" y="-177" type="line"/>
			<point x="-117" y="-177"/>
			<point x="-143" y="-156"/>
			<point x="-143" y="-123" type="curve" smooth="yes"/>
			<point x="-143" y="-95"/>
			<point x="-131" y="-76"/>
			<point x="-95" y="-56" type="curve" smooth="yes"/>
			<point x="0" y="0" type="line"/>
			<point x="-1" y="1" type="line"/>
		</contour>
	</outline>
</glyph>
<glyph name="Delta" format="2">
	<advance width="620"/>
	<unicode hex="0394"/>
	<guideline x="319" y="727" angle="67.5426"/>
	<outline>
		<contour>
			<point x="310" y="725" type="line"/>
			<point x="311" y="725" type="line"/>
			<point x="610" y="1" type="line"/>
			<point x="610" y="1" type="line"/>
			<point x="11" y="1" type="line"/>
			<point x="11" y="1" type="line"/>
		</contour>
		<contour>
			<point x="310" y="727" type="line"/>
			<point x="10" y="1" type="line"/>
			<point x="10" y="0" type="line"/>
			<point x="611" y="0" type="line"/>
			<point x="611" y="1" type="line"/>
			<point x="311" y="727" type="line"/>
		</contour>
	</outline>
</glyph>
<glyph name="Omega" format="2">
	<advance width="842"/>
	<unicode hex="03A9"/>
	<outline>
		<contour>
			<point x="421" y="742" type="curve"/>
			<point x="626" y="742"/>
			<point x="765" y="606"/>
			<point x="765" y="389" type="curve"/>
			<point x="765" y="137"/>
			<point x="557" y="64"/>
			<point x="507" y="52" type="curve"/>
			<point x="507" y="1" type="line"/>
			<point x="774" y="1" type="line"/>
			<point x="774" y="0" type="line"/>
			<point x="506" y="0" type="line"/>
			<point x="506" y="52" type="line"/>
			<point x="555" y="65"/>
			<point x="764" y="138"/>
			<point x="764" y="389" type="curve"/>
			<point x="764" y="605"/>
			<point x="625" y="741"/>
			<point x="421" y="741" type="curve"/>
			<point x="216" y="741"/>
			<point x="78" y="605"/>
			<point x="78" y="389" type="curve"/>
			<point x="78" y="138"/>
			<point x="287" y="65"/>
			<point x="336" y="52" type="curve"/>
			<point x="336" y="0" type="line"/>
			<point x="68" y="0" type="line"/>
			<point x="68" y="1" type="line"/>
			<point x="335" y="1" type="line"/>
			<point x="335" y="52" type="line"/>
			<point x="285" y="64"/>
			<point x="77" y="137"/>
			<point x="77" y="389" type="curve"/>
			<point x="77" y="606"/>
			<point x="216" y="742"/>
		</contour>
	</outline>
</glyph>
<glyph name="mu" format="2">
	<advance width="613"/>
	<unicode hex="03BC"/>
	<outline>
		<contour>
			<point x="600" y="0" type="line"/>
			<point x="600" y="1" type="line"/>
			<point x="584" y="1" type="line" smooth="yes"/>
			<point x="532" y="1"/>
			<point x="508" y="25"/>
			<point x="508" y="76" type="curve" smooth="yes"/>
			<point x="508" y="509" type="line"/>
			<point x="507" y="509" type="line"/>
			<point x="507" y="219" type="line"/>
			<point x="507" y="69"/>
			<point x="433" y="-13"/>
			<point x="296" y="-13" type="curve" smooth="yes"/>
			<point x="160" y="-13"/>
			<point x="86" y="69"/>
			<point x="86" y="219" type="curve"/>
			<point x="86" y="509" type="line"/>
			<point x="85" y="509" type="line"/>
			<point x="85" y="-178" type="line"/>
			<point x="86" y="-178" type="line"/>
			<point x="86" y="189" type="line"/>
			<point x="86" y="190" type="line"/>
			<point x="96" y="58"/>
			<point x="169" y="-14"/>
			<point x="296" y="-14" type="curve" smooth="yes"/>
			<point x="429" y="-14"/>
			<point x="504" y="64"/>
			<point x="507" y="204" type="curve"/>
			<point x="507" y="76" type="line" smooth="yes"/>
			<point x="507" y="25"/>
			<point x="531" y="0"/>
			<point x="584" y="0" type="curve" smooth="yes"/>
		</contour>
	</outline>
</glyph>
<glyph name="pi" format="2">
	<advance width="642"/>
	<unicode hex="03C0"/>
	<outline>
		<contour>
			<point x="15" y="509" type="line"/>
			<point x="15" y="508" type="line"/>
			<point x="130" y="508" type="line"/>
			<point x="130" y="0" type="line"/>
			<point x="131" y="0" type="line"/>
			<point x="131" y="508" type="line"/>
			<point x="507" y="508" type="line"/>
			<point x="507" y="76" type="line"/>
			<point x="507" y="25"/>
			<point x="532" y="0"/>
			<point x="584" y="0" type="curve" smooth="yes"/>
			<point x="601" y="0" type="line"/>
			<point x="601" y="1" type="line"/>
			<point x="584" y="1" type="line" smooth="yes"/>
			<point x="532" y="1"/>
			<point x="508" y="25"/>
			<point x="508" y="76" type="curve" smooth="yes"/>
			<point x="508" y="508" type="line"/>
			<point x="623" y="508" type="line"/>
			<point x="623" y="509" type="line"/>
		</contour>
	</outline>
</glyph>
<glyph name="Germandbls" format="2">
	<advance width="660"/>
	<unicode hex="1E9E"/>
	<outline>
		<contour>
			<point x="241" y="0" type="line"/>
			<point x="372" y="0" type="line" smooth="yes"/>
			<point x="515" y="0"/>
			<point x="595" y="79"/>
			<point x="595" y="210" type="curve" smooth="yes"/>
			<point x="595" y="354"/>
			<point x="484" y="415"/>
			<point x="346" y="415" type="curve" smooth="yes"/>
			<point x="243" y="415" type="line"/>
			<point x="244" y="415" type="line"/>
			<point x="244" y="416" type="line"/>
			<point x="541" y="727" type="line"/>
			<point x="541" y="727" type="line"/>
			<point x="273" y="727" type="line" smooth="yes"/>
			<point x="150" y="727"/>
			<point x="80" y="654"/>
			<point x="80" y="522" type="curve" smooth="yes"/>
			<point x="80" y="0" type="line"/>
			<point x="81" y="0" type="line"/>
			<point x="81" y="522" type="line" smooth="yes"/>
			<point x="81" y="653"/>
			<point x="151" y="726"/>
			<point x="273" y="726" type="curve" smooth="yes"/>
			<point x="539" y="726" type="line"/>
			<point x="539" y="726" type="line"/>
			<point x="242" y="415" type="line"/>
			<point x="242" y="414" type="line"/>
			<point x="346" y="414" type="line" smooth="yes"/>
			<point x="483" y="414"/>
			<point x="594" y="353"/>
			<point x="594" y="210" type="curve" smooth="yes"/>
			<point x="594" y="80"/>
			<point x="514" y="1"/>
			<point x="372" y="1" type="curve" smooth="yes"/>
			<point x="241" y="1" type="line"/>
		</contour>
	</outline>
</glyph>
<glyph name="endash" format="2">
	<advance width="620"/>
	<unicode hex="2013"/>
	<outline>
		<contour>
			<point x="70" y="317" type="line"/>
			<point x="551" y="317" type="line"/>
			<point x="551" y="319" type="line"/>
			<point x="70" y="319" type="line"/>
		</contour>
	</outline>
</glyph>
<glyph name="quoteleft" format="2">
	<advance width="198"/>
	<unicode hex="2018"/>
	<outline>
		<contour>
			<point x="94" y="590" type="line"/>
			<point x="94" y="443" type="line"/>
			<point x="92" y="443" type="line"/>
			<point x="92" y="590" type="line"/>
			<point x="112" y="747" type="line"/>
			<point x="113" y="747" type="line"/>
			<point x="93" y="590" type="line"/>
			<point x="94" y="590" type="line"/>
		</contour>
	</outline>
</glyph>
<glyph name="dagger" format="2">
	<advance width="600"/>
	<unicode hex="2020"/>
	<outline>
		<contour>
			<point x="295" y="727" type="line"/>
			<point x="294" y="727" type="line"/>
			<point x="294" y="-178" type="line"/>
			<point x="294" y="-178"/>
			<point x="294" y="-178"/>
			<point x="294" y="-178" type="curve"/>
			<point x="295" y="-178" type="line"/>
		</contour>
		<contour>
			<point x="63" y="508" type="line"/>
			<point x="537" y="508" type="line"/>
			<point x="537" y="509" type="line"/>
			<point x="63" y="509" type="line"/>
		</contour>
	</outline>
</glyph>
<glyph name="daggerdbl" format="2">
	<advance width="600"/>
	<unicode hex="2021"/>
	<outline>
		<contour>
			<point x="295" y="727" type="line"/>
			<point x="294" y="727" type="line"/>
			<point x="294" y="-178" type="line"/>
			<point x="295" y="-178" type="line"/>
		</contour>
		<contour>
			<point x="63" y="508" type="line"/>
			<point x="537" y="508" type="line"/>
			<point x="537" y="509" type="line"/>
			<point x="63" y="509" type="line"/>
		</contour>
		<contour>
			<point x="63" y="251" type="line"/>
			<point x="537" y="251" type="line"/>
			<point x="537" y="252" type="line"/>
			<point x="63" y="252" type="line"/>
		</contour>
	</outline>
</glyph>
<glyph name="bullet" format="2">
	<advance width="283"/>
	<unicode hex="2022"/>
	<guideline x="0"/>
	<guideline x="97"/>
	<guideline x="194"/>
	<guideline x="291"/>
	<guideline x="388"/>
	<guideline y="0"/>
	<guideline y="97"/>
	<guideline y="194"/>
	<guideline y="291"/>
	<guideline y="388"/>
	<guideline y="485"/>
	<guideline y="582"/>
	<guideline y="679"/>
	<guideline y="776"/>
	<guideline y="873"/>
	<guideline y="970"/>
	<guideline y="1067"/>
	<guideline y="1164"/>
	<guideline y="1261"/>
	<guideline y="1358"/>
	<guideline y="1455"/>
	<guideline y="1552"/>
	<guideline y="1649"/>
	<guideline y="1746"/>
	<guideline y="0"/>
	<guideline y="-97"/>
	<guideline y="-194"/>
	<guideline y="-291"/>
	<outline>
		<contour>
			<point x="69" y="243" type="line"/>
			<point x="69" y="388" type="line"/>
			<point x="214" y="388" type="line"/>
			<point x="214" y="243" type="line"/>
		</contour>
	</outline>
</glyph>
<glyph name="perthousand" format="2">
	<advance width="1277"/>
	<unicode hex="2030"/>
	<outline>
		<contour>
			<point x="240" y="345" type="curve" smooth="yes"/>
			<point x="129" y="345"/>
			<point x="50" y="428"/>
			<point x="50" y="540" type="curve" smooth="yes"/>
			<point x="50" y="652"/>
			<point x="129" y="734"/>
			<point x="240" y="734" type="curve" smooth="yes"/>
			<point x="352" y="734"/>
			<point x="430" y="652"/>
			<point x="430" y="540" type="curve" smooth="yes"/>
			<point x="430" y="428"/>
			<point x="352" y="345"/>
		</contour>
		<contour>
			<point x="240" y="346" type="curve" smooth="yes"/>
			<point x="351" y="346"/>
			<point x="429" y="428"/>
			<point x="429" y="540" type="curve" smooth="yes"/>
			<point x="429" y="651"/>
			<point x="351" y="733"/>
			<point x="240" y="733" type="curve" smooth="yes"/>
			<point x="129" y="733"/>
			<point x="51" y="651"/>
			<point x="51" y="540" type="curve" smooth="yes"/>
			<point x="51" y="428"/>
			<point x="129" y="346"/>
		</contour>
		<contour>
			<point x="582" y="-6" type="curve" smooth="yes"/>
			<point x="471" y="-6"/>
			<point x="392" y="77"/>
			<point x="392" y="189" type="curve" smooth="yes"/>
			<point x="392" y="301"/>
			<point x="471" y="383"/>
			<point x="582" y="383" type="curve" smooth="yes"/>
			<point x="694" y="383"/>
			<point x="772" y="301"/>
			<point x="772" y="189" type="curve" smooth="yes"/>
			<point x="772" y="77"/>
			<point x="694" y="-6"/>
		</contour>
		<contour>
			<point x="582" y="-5" type="curve" smooth="yes"/>
			<point x="693" y="-5"/>
			<point x="771" y="77"/>
			<point x="771" y="189" type="curve" smooth="yes"/>
			<point x="771" y="300"/>
			<point x="693" y="382"/>
			<point x="582" y="382" type="curve" smooth="yes"/>
			<point x="471" y="382"/>
			<point x="393" y="300"/>
			<point x="393" y="189" type="curve" smooth="yes"/>
			<point x="393" y="77"/>
			<point x="471" y="-5"/>
		</contour>
		<contour>
			<point x="762" y="727" type="line"/>
			<point x="493" y="446" type="line"/>
			<point x="492" y="447" type="line"/>
			<point x="760" y="727" type="line"/>
		</contour>
		<contour>
			<point x="59" y="0" type="line"/>
			<point x="327" y="281" type="line"/>
			<point x="328" y="281" type="line"/>
			<point x="60" y="0" type="line"/>
		</contour>
		<contour>
			<point x="1037" y="-6" type="curve" smooth="yes"/>
			<point x="926" y="-6"/>
			<point x="847" y="77"/>
			<point x="847" y="189" type="curve" smooth="yes"/>
			<point x="847" y="301"/>
			<point x="926" y="383"/>
			<point x="1037" y="383" type="curve" smooth="yes"/>
			<point x="1149" y="383"/>
			<point x="1227" y="301"/>
			<point x="1227" y="189" type="curve" smooth="yes"/>
			<point x="1227" y="77"/>
			<point x="1149" y="-6"/>
		</contour>
		<contour>
			<point x="1037" y="-5" type="curve" smooth="yes"/>
			<point x="1148" y="-5"/>
			<point x="1226" y="77"/>
			<point x="1226" y="189" type="curve" smooth="yes"/>
			<point x="1226" y="300"/>
			<point x="1148" y="382"/>
			<point x="1037" y="382" type="curve" smooth="yes"/>
			<point x="926" y="382"/>
			<point x="848" y="300"/>
			<point x="848" y="189" type="curve" smooth="yes"/>
			<point x="848" y="77"/>
			<point x="926" y="-5"/>
		</contour>
	</outline>
</glyph>
<glyph name="guilsinglleft" format="2">
	<advance width="362"/>
	<unicode hex="2039"/>
	<outline>
		<contour>
			<point x="277" y="113" type="line"/>
			<point x="78" y="303" type="line"/>
			<point x="78" y="304" type="line"/>
			<point x="277" y="494" type="line"/>
			<point x="277" y="493" type="line"/>
			<point x="80" y="304" type="line"/>
			<point x="80" y="303" type="line"/>
			<point x="277" y="114" type="line"/>
		</contour>
	</outline>
</glyph>
<glyph name="fraction" format="2">
	<advance width="100"/>
	<unicode hex="2044"/>
	<outline>
		<contour>
			<point x="278" y="727" type="line"/>
			<point x="-177" y="0" type="line"/>
			<point x="-178" y="0" type="line"/>
			<point x="277" y="727" type="line"/>
		</contour>
	</outline>
</glyph>
<glyph name="commercialminus" format="2">
	<advance width="620"/>
	<unicode hex="2052"/>
	<guideline y="727" name="capCenter"/>
	<outline>
		<contour>
			<point x="575" y="727" type="line"/>
			<point x="47" y="0" type="line"/>
			<point x="45" y="0" type="line"/>
			<point x="574" y="727" type="line"/>
		</contour>
		<component base="period" yOffset="580"/>
		<component base="period" xOffset="422"/>
	</outline>
</glyph>
<glyph name="Euro" format="2">
	<advance width="620"/>
	<unicode hex="20AC"/>
	<outline>
		<contour>
			<point x="581" y="195" type="curve"/>
			<point x="580" y="196" type="line"/>
			<point x="558" y="58"/>
			<point x="469" y="-13"/>
			<point x="336" y="-13" type="curve" smooth="yes"/>
			<point x="189" y="-13"/>
			<point x="96" y="80"/>
			<point x="96" y="261" type="curve" smooth="yes"/>
			<point x="96" y="462" type="line" smooth="yes"/>
			<point x="96" y="643"/>
			<point x="191" y="736"/>
			<point x="340" y="736" type="curve" smooth="yes"/>
			<point x="469" y="736"/>
			<point x="554" y="668"/>
			<point x="578" y="539" type="curve"/>
			<point x="579" y="539" type="line"/>
			<point x="555" y="669"/>
			<point x="469" y="737"/>
			<point x="340" y="737" type="curve" smooth="yes"/>
			<point x="191" y="737"/>
			<point x="95" y="644"/>
			<point x="95" y="462" type="curve" smooth="yes"/>
			<point x="95" y="261" type="line" smooth="yes"/>
			<point x="95" y="79"/>
			<point x="189" y="-14"/>
			<point x="336" y="-14" type="curve" smooth="yes"/>
			<point x="469" y="-14"/>
			<point x="559" y="57"/>
		</contour>
		<contour>
			<point x="21" y="456" type="line"/>
			<point x="435" y="456" type="line"/>
			<point x="435" y="457" type="line"/>
			<point x="21" y="457" type="line"/>
		</contour>
		<contour>
			<point x="21" y="268" type="line"/>
			<point x="435" y="268" type="line"/>
			<point x="435" y="269" type="line"/>
			<point x="21" y="269" type="line"/>
		</contour>
	</outline>
</glyph>
<glyph name="trademark" format="2">
	<advance width="731"/>
	<unicode hex="2122"/>
	<guideline x="637" y="1454" angle="0"/>
	<outline>
		<contour>
			<point x="21" y="726" type="line"/>
			<point x="148" y="726" type="line"/>
			<point x="148" y="402" type="line"/>
			<point x="149" y="402" type="line"/>
			<point x="149" y="726" type="line"/>
			<point x="275" y="726" type="line"/>
			<point x="275" y="727" type="line"/>
			<point x="21" y="727" type="line"/>
		</contour>
		<contour>
			<point x="363" y="402" type="line"/>
			<point x="364" y="402" type="line"/>
			<point x="364" y="724" type="line"/>
			<point x="364" y="724" type="line"/>
			<point x="515" y="402" type="line"/>
			<point x="515" y="402" type="line"/>
			<point x="666" y="724" type="line"/>
			<point x="666" y="724" type="line"/>
			<point x="666" y="402" type="line"/>
			<point x="667" y="402" type="line"/>
			<point x="667" y="727" type="line"/>
			<point x="667" y="727" type="line"/>
			<point x="515" y="403" type="line"/>
			<point x="515" y="403" type="line"/>
			<point x="363" y="727" type="line"/>
			<point x="363" y="727" type="line"/>
		</contour>
	</outline>
</glyph>
<glyph name="arrowleft" format="2">
	<advance width="790"/>
	<unicode hex="2190"/>
	<outline>
		<contour>
			<point x="317" y="27" type="line"/>
			<point x="12" y="343" type="line"/>
			<point x="12" y="344" type="line"/>
			<point x="317" y="661" type="line"/>
			<point x="318" y="660" type="line"/>
			<point x="14" y="345" type="line"/>
			<point x="14" y="344" type="line"/>
			<point x="739" y="344" type="line"/>
			<point x="739" y="343" type="line"/>
			<point x="14" y="343" type="line"/>
			<point x="14" y="343" type="line"/>
			<point x="318" y="28" type="line"/>
		</contour>
	</outline>
</glyph>
<glyph name="arrowup" format="2">
	<advance width="790"/>
	<unicode hex="2191"/>
	<guideline x="1578" y="1100" angle="222.7352"/>
	<guideline x="741" y="1454" angle="312.6507"/>
	<guideline x="598" y="1454" angle="227.4512"/>
	<outline>
		<contour>
			<point x="712" y="422" type="line"/>
			<point x="396" y="727" type="line"/>
			<point x="395" y="727" type="line"/>
			<point x="78" y="422" type="line"/>
			<point x="79" y="421" type="line"/>
			<point x="394" y="725" type="line"/>
			<point x="395" y="725" type="line"/>
			<point x="395" y="0" type="line"/>
			<point x="396" y="0" type="line"/>
			<point x="396" y="725" type="line"/>
			<point x="396" y="725" type="line"/>
			<point x="711" y="421" type="line"/>
		</contour>
	</outline>
</glyph>
<glyph name="arrowright" format="2">
	<advance width="790"/>
	<unicode hex="2192"/>
	<outline>
		<contour>
			<point x="433" y="27" type="line"/>
			<point x="739" y="343" type="line"/>
			<point x="739" y="344" type="line"/>
			<point x="433" y="661" type="line"/>
			<point x="432" y="660" type="line"/>
			<point x="737" y="345" type="line"/>
			<point x="737" y="344" type="line"/>
			<point x="12" y="344" type="line"/>
			<point x="12" y="343" type="line"/>
			<point x="737" y="343" type="line"/>
			<point x="737" y="343" type="line"/>
			<point x="432" y="28" type="line"/>
		</contour>
	</outline>
</glyph>
<glyph name="partialdiff" format="2">
	<advance width="620"/>
	<unicode hex="2202"/>
	<outline>
		<contour>
			<point x="581" y="170"/>
			<point x="454" y="-11"/>
			<point x="263" y="-11" type="curve" smooth="yes"/>
			<point x="123" y="-11"/>
			<point x="29" y="84"/>
			<point x="29" y="224" type="curve" smooth="yes"/>
			<point x="29" y="377"/>
			<point x="136" y="482"/>
			<point x="294" y="482" type="curve" smooth="yes"/>
			<point x="421" y="482"/>
			<point x="510" y="421"/>
			<point x="568" y="294" type="curve"/>
			<point x="568" y="296" type="line"/>
			<point x="568" y="296" type="line"/>
			<point x="510" y="422"/>
			<point x="421" y="483"/>
			<point x="294" y="483" type="curve" smooth="yes"/>
			<point x="136" y="483"/>
			<point x="28" y="378"/>
			<point x="28" y="223" type="curve" smooth="yes"/>
			<point x="28" y="83"/>
			<point x="123" y="-12"/>
			<point x="263" y="-12" type="curve" smooth="yes"/>
			<point x="455" y="-12"/>
			<point x="582" y="170"/>
			<point x="582" y="443" type="curve" smooth="yes"/>
			<point x="582" y="642"/>
			<point x="507" y="727"/>
			<point x="332" y="727" type="curve" smooth="yes"/>
			<point x="261" y="727" type="line"/>
			<point x="261" y="726" type="line"/>
			<point x="332" y="726" type="line" smooth="yes"/>
			<point x="507" y="726"/>
			<point x="581" y="641"/>
			<point x="581" y="443" type="curve" smooth="yes"/>
		</contour>
	</outline>
</glyph>
<glyph name="product" format="2">
	<advance width="742"/>
	<unicode hex="220F"/>
	<outline>
		<contour>
			<point x="136" y="-123" type="line"/>
			<point x="136" y="726" type="line"/>
			<point x="606" y="726" type="line"/>
			<point x="606" y="-123" type="line"/>
			<point x="607" y="-123" type="line"/>
			<point x="607" y="726" type="line"/>
			<point x="737" y="726" type="line"/>
			<point x="737" y="727" type="line"/>
			<point x="5" y="727" type="line"/>
			<point x="5" y="726" type="line"/>
			<point x="135" y="726" type="line"/>
			<point x="135" y="-123" type="line"/>
		</contour>
	</outline>
</glyph>
<glyph name="summation" format="2">
	<advance width="620"/>
	<unicode hex="2211"/>
	<outline>
		<contour>
			<point x="584" y="-178" type="line"/>
			<point x="584" y="-177" type="line"/>
			<point x="53" y="-177" type="line"/>
			<point x="53" y="-178" type="line"/>
			<point x="391" y="275" type="line"/>
			<point x="391" y="277" type="line"/>
			<point x="53" y="727" type="line"/>
			<point x="53" y="726" type="line"/>
			<point x="566" y="726" type="line"/>
			<point x="566" y="727" type="line"/>
			<point x="52" y="727" type="line"/>
			<point x="52" y="726" type="line"/>
			<point x="390" y="276" type="line"/>
			<point x="390" y="275" type="line"/>
			<point x="52" y="-177" type="line"/>
			<point x="52" y="-178" type="line"/>
		</contour>
	</outline>
</glyph>
<glyph name="minus" format="2">
	<advance width="620"/>
	<unicode hex="2212"/>
	<outline>
		<contour>
			<point x="53" y="317" type="line"/>
			<point x="568" y="317" type="line"/>
			<point x="568" y="318" type="line"/>
			<point x="53" y="318" type="line"/>
		</contour>
	</outline>
</glyph>
<glyph name="radical" format="2">
	<advance width="600"/>
	<unicode hex="221A"/>
	<outline>
		<contour>
			<point x="49" y="361" type="line"/>
			<point x="50" y="361" type="line"/>
			<point x="213" y="-113" type="line"/>
			<point x="214" y="-113" type="line"/>
			<point x="528" y="898" type="line"/>
			<point x="695" y="898" type="line"/>
			<point x="695" y="897" type="line"/>
			<point x="529" y="897" type="line"/>
			<point x="214" y="-114" type="line"/>
			<point x="212" y="-114" type="line"/>
		</contour>
	</outline>
</glyph>
<glyph name="infinity" format="2">
	<advance width="898"/>
	<unicode hex="221E"/>
	<outline>
		<contour>
			<point x="226" y="483" type="curve" smooth="yes"/>
			<point x="130" y="483"/>
			<point x="60" y="416"/>
			<point x="60" y="317" type="curve" smooth="yes"/>
			<point x="60" y="219"/>
			<point x="130" y="152"/>
			<point x="226" y="152" type="curve" smooth="yes"/>
			<point x="306" y="152"/>
			<point x="375" y="197"/>
			<point x="449" y="311" type="curve"/>
			<point x="449" y="311" type="line"/>
			<point x="522" y="197"/>
			<point x="592" y="152"/>
			<point x="672" y="152" type="curve" smooth="yes"/>
			<point x="768" y="152"/>
			<point x="838" y="219"/>
			<point x="838" y="317" type="curve" smooth="yes"/>
			<point x="838" y="416"/>
			<point x="768" y="483"/>
			<point x="672" y="483" type="curve" smooth="yes"/>
			<point x="594" y="483"/>
			<point x="530" y="438"/>
			<point x="449" y="313" type="curve"/>
			<point x="449" y="313" type="line"/>
			<point x="367" y="439"/>
			<point x="304" y="483"/>
		</contour>
		<contour>
			<point x="61" y="317" type="curve" smooth="yes"/>
			<point x="61" y="415"/>
			<point x="130" y="482"/>
			<point x="226" y="482" type="curve" smooth="yes"/>
			<point x="303" y="482"/>
			<point x="366" y="438"/>
			<point x="448" y="312" type="curve"/>
			<point x="374" y="197"/>
			<point x="305" y="153"/>
			<point x="226" y="153" type="curve" smooth="yes"/>
			<point x="130" y="153"/>
			<point x="61" y="219"/>
		</contour>
		<contour>
			<point x="837" y="317" type="curve" smooth="yes"/>
			<point x="837" y="219"/>
			<point x="768" y="153"/>
			<point x="672" y="153" type="curve" smooth="yes"/>
			<point x="593" y="153"/>
			<point x="523" y="198"/>
			<point x="449" y="312" type="curve"/>
			<point x="531" y="437"/>
			<point x="595" y="482"/>
			<point x="672" y="482" type="curve" smooth="yes"/>
			<point x="768" y="482"/>
			<point x="837" y="415"/>
		</contour>
	</outline>
</glyph>
<glyph name="integral" format="2">
	<advance width="470"/>
	<unicode hex="222B"/>
	<outline>
		<contour>
			<point x="480" y="898" type="line"/>
			<point x="480" y="897" type="line"/>
			<point x="418" y="897" type="line" smooth="yes"/>
			<point x="361" y="897"/>
			<point x="323" y="868"/>
			<point x="312" y="775" type="curve" smooth="yes"/>
			<point x="211" y="-56" type="line"/>
			<point x="199" y="-149"/>
			<point x="161" y="-178"/>
			<point x="103" y="-178" type="curve" smooth="yes"/>
			<point x="41" y="-178" type="line"/>
			<point x="41" y="-177" type="line"/>
			<point x="103" y="-177" type="line" smooth="yes"/>
			<point x="161" y="-177"/>
			<point x="198" y="-149"/>
			<point x="210" y="-56" type="curve"/>
			<point x="311" y="775" type="line" smooth="yes"/>
			<point x="322" y="869"/>
			<point x="360" y="898"/>
			<point x="418" y="898" type="curve" smooth="yes"/>
		</contour>
	</outline>
</glyph>
<glyph name="approxequal" format="2">
	<advance width="613"/>
	<unicode hex="2248"/>
	<outline>
		<contour>
			<point x="78" y="397" type="line"/>
			<point x="101" y="452"/>
			<point x="143" y="480"/>
			<point x="203" y="480" type="curve" smooth="yes"/>
			<point x="302" y="480"/>
			<point x="318" y="394"/>
			<point x="417" y="394" type="curve" smooth="yes"/>
			<point x="477" y="394"/>
			<point x="518" y="422"/>
			<point x="541" y="477" type="curve"/>
			<point x="542" y="477" type="line"/>
			<point x="519" y="421"/>
			<point x="477" y="393"/>
			<point x="417" y="393" type="curve" smooth="yes"/>
			<point x="317" y="393"/>
			<point x="302" y="479"/>
			<point x="203" y="479" type="curve" smooth="yes"/>
			<point x="143" y="479"/>
			<point x="102" y="452"/>
			<point x="79" y="397" type="curve"/>
		</contour>
		<contour>
			<point x="78" y="156" type="line"/>
			<point x="101" y="211"/>
			<point x="143" y="239"/>
			<point x="203" y="239" type="curve" smooth="yes"/>
			<point x="302" y="239"/>
			<point x="318" y="153"/>
			<point x="417" y="153" type="curve" smooth="yes"/>
			<point x="477" y="153"/>
			<point x="518" y="181"/>
			<point x="541" y="236" type="curve"/>
			<point x="542" y="236" type="line"/>
			<point x="519" y="180"/>
			<point x="477" y="152"/>
			<point x="417" y="152" type="curve" smooth="yes"/>
			<point x="317" y="152"/>
			<point x="302" y="238"/>
			<point x="203" y="238" type="curve" smooth="yes"/>
			<point x="143" y="238"/>
			<point x="102" y="211"/>
			<point x="79" y="156" type="curve"/>
		</contour>
	</outline>
</glyph>
<glyph name="notequal" format="2">
	<advance width="620"/>
	<unicode hex="2260"/>
	<outline>
		<contour>
			<point x="409" y="582" type="line"/>
			<point x="210" y="47" type="line"/>
			<point x="212" y="47" type="line"/>
			<point x="410" y="582" type="line"/>
		</contour>
		<component base="equal"/>
	</outline>
</glyph>
<glyph name="lessequal" format="2">
	<advance width="620"/>
	<unicode hex="2264"/>
	<outline>
		<contour>
			<point x="568" y="558" type="line" smooth="yes"/>
			<point x="53" y="318" type="line"/>
			<point x="53" y="318" type="line"/>
			<point x="568" y="79" type="line"/>
			<point x="568" y="80" type="line"/>
			<point x="55" y="318" type="line"/>
			<point x="55" y="317" type="line"/>
			<point x="55" y="319" type="line"/>
			<point x="55" y="318" type="line"/>
			<point x="568" y="557" type="line"/>
		</contour>
		<contour>
			<point x="53" y="1" type="line"/>
			<point x="568" y="1" type="line"/>
			<point x="568" y="2" type="line"/>
			<point x="53" y="2" type="line"/>
		</contour>
	</outline>
</glyph>
<glyph name="rectangleverticalblack" format="2">
	<advance width="602"/>
	<unicode hex="25AE"/>
	<outline>
		<contour>
			<point x="20" y="-194" type="line"/>
			<point x="582" y="-194" type="line"/>
			<point x="582" y="727" type="line"/>
			<point x="20" y="727" type="line"/>
		</contour>
	</outline>
</glyph>
<glyph name="lozenge" format="2">
	<advance width="600"/>
	<unicode hex="25CA"/>
	<outline>
		<contour>
			<point x="300" y="727" type="line"/>
			<point x="54" y="275" type="line"/>
			<point x="54" y="274" type="line"/>
			<point x="300" y="-178" type="line"/>
			<point x="301" y="-178" type="line"/>
			<point x="547" y="274" type="line"/>
			<point x="547" y="275" type="line"/>
			<point x="301" y="727" type="line"/>
		</contour>
		<contour>
			<point x="300" y="726" type="line"/>
			<point x="301" y="726" type="line"/>
			<point x="545" y="276" type="line"/>
			<point x="545" y="274" type="line"/>
			<point x="301" y="-177" type="line"/>
			<point x="300" y="-177" type="line"/>
			<point x="55" y="274" type="line"/>
			<point x="55" y="276" type="line"/>
		</contour>
	</outline>
</glyph>
<glyph name="arrowrighttriangle" format="2">
	<advance width="1064"/>
	<unicode hex="279D"/>
	<outline>
		<contour>
			<point x="60" y="364" type="line"/>
			<point x="60" y="363" type="line"/>
			<point x="734" y="363" type="line"/>
			<point x="734" y="364" type="line"/>
		</contour>
		<contour>
			<point x="1004" y="363" type="line"/>
			<point x="1004" y="365" type="line"/>
			<point x="535" y="401" type="line"/>
			<point x="528" y="386"/>
			<point x="514" y="373"/>
			<point x="490" y="364" type="curve"/>
			<point x="490" y="363" type="line"/>
			<point x="514" y="354"/>
			<point x="528" y="342"/>
			<point x="535" y="326" type="curve"/>
		</contour>
	</outline>
</glyph>
<glyph name="anglebracketleft" format="2">
	<advance width="278"/>
	<unicode hex="27E8"/>
	<guideline x="288" y="206" angle="115.9479"/>
	<guideline x="288" y="1109" angle="64.1023"/>
	<outline>
		<contour>
			<point x="253" y="779" type="line" smooth="yes"/>
			<point x="35" y="329" type="line"/>
			<point x="35" y="328" type="line"/>
			<point x="253" y="-121" type="line"/>
			<point x="253" y="-119" type="line"/>
			<point x="36" y="329" type="line"/>
			<point x="36" y="329" type="line"/>
			<point x="253" y="776" type="line"/>
		</contour>
	</outline>
</glyph>
<glyph name="arrowrighttailfeather" format="2">
	<advance width="1064"/>
	<unicode hex="291A"/>
	<outline>
		<contour>
			<point x="463" y="364" type="line"/>
			<point x="463" y="363" type="line"/>
			<point x="1004" y="363" type="line"/>
			<point x="1004" y="364" type="line"/>
		</contour>
		<contour>
			<point x="497" y="363" type="line"/>
			<point x="497" y="364" type="line"/>
			<point x="463" y="394" type="line"/>
			<point x="72" y="394" type="line"/>
			<point x="60" y="385" type="line"/>
			<point x="67" y="380"/>
			<point x="71" y="372"/>
			<point x="71" y="364" type="curve" smooth="yes"/>
			<point x="71" y="355"/>
			<point x="67" y="347"/>
			<point x="60" y="342" type="curve"/>
			<point x="72" y="333" type="line"/>
			<point x="463" y="333" type="line"/>
		</contour>
	</outline>
</glyph>
<glyph name="B.RECT" format="2">
	<advance width="637"/>
	<guideline x="0"/>
	<guideline x="97"/>
	<guideline x="194"/>
	<guideline x="291"/>
	<guideline x="388"/>
	<guideline x="485"/>
	<guideline x="582"/>
	<guideline x="679"/>
	<guideline x="776"/>
	<guideline x="873"/>
	<guideline x="970"/>
	<guideline x="1067"/>
	<guideline x="1164"/>
	<guideline x="1261"/>
	<guideline y="0"/>
	<guideline y="97"/>
	<guideline y="194"/>
	<guideline y="291"/>
	<guideline y="388"/>
	<guideline y="485"/>
	<guideline y="582"/>
	<guideline y="679"/>
	<guideline y="776"/>
	<guideline y="873"/>
	<guideline y="970"/>
	<guideline y="1067"/>
	<guideline y="1164"/>
	<guideline y="1261"/>
	<guideline y="1358"/>
	<guideline y="0"/>
	<guideline y="-97"/>
	<guideline y="-194"/>
	<guideline y="-291"/>
	<outline>
		<contour>
			<point x="93" y="0" type="line"/>
			<point x="348" y="0" type="line" smooth="yes"/>
			<point x="479" y="0"/>
			<point x="555" y="43"/>
			<point x="555" y="160" type="curve" smooth="yes"/>
			<point x="555" y="240" type="line"/>
			<point x="555" y="350"/>
			<point x="479" y="408"/>
			<point x="346" y="408" type="curve"/>
			<point x="352" y="408" type="line"/>
			<point x="352" y="410" type="line"/>
			<point x="340" y="409" type="line"/>
			<point x="478" y="415"/>
			<point x="538" y="468"/>
			<point x="538" y="569" type="curve" smooth="yes"/>
			<point x="538" y="667"/>
			<point x="481" y="727"/>
			<point x="344" y="727" type="curve" smooth="yes"/>
			<point x="93" y="727" type="line"/>
		</contour>
		<contour>
			<point x="344" y="726" type="line" smooth="yes"/>
			<point x="481" y="726"/>
			<point x="537" y="667"/>
			<point x="537" y="569" type="curve" smooth="yes"/>
			<point x="537" y="467"/>
			<point x="476" y="409"/>
			<point x="312" y="409" type="curve" smooth="yes"/>
			<point x="94" y="409" type="line"/>
			<point x="94" y="726" type="line"/>
		</contour>
		<contour>
			<point x="346" y="408" type="line" smooth="yes"/>
			<point x="478" y="408"/>
			<point x="554" y="350"/>
			<point x="554" y="240" type="curve"/>
			<point x="554" y="160" type="line" smooth="yes"/>
			<point x="554" y="44"/>
			<point x="479" y="1"/>
			<point x="348" y="1" type="curve" smooth="yes"/>
			<point x="94" y="1" type="line"/>
			<point x="94" y="408" type="line"/>
		</contour>
	</outline>
</glyph>
<glyph name="C.RECT" format="2">
	<advance width="646"/>
	<guideline x="1017.24" y="885.04" angle="90"/>
	<guideline x="1296.34" y="954.81" angle="90"/>
	<guideline x="1098.04" y="967.67" angle="0"/>
	<anchor x="322" y="727" name="top"/>
	<anchor x="322" y="-14" name="bottom"/>
	<outline>
		<contour>
			<point x="581" y="195" type="curve"/>
			<point x="580" y="196" type="line"/>
			<point x="558" y="58"/>
			<point x="464" y="-13"/>
			<point x="326" y="-13" type="curve" smooth="yes"/>
			<point x="170" y="-13"/>
			<point x="71" y="80"/>
			<point x="71" y="261" type="curve" smooth="yes"/>
			<point x="71" y="462" type="line" smooth="yes"/>
			<point x="71" y="643"/>
			<point x="172" y="736"/>
			<point x="330" y="736" type="curve" smooth="yes"/>
			<point x="464" y="736"/>
			<point x="554" y="669"/>
			<point x="578" y="539" type="curve"/>
			<point x="579" y="539" type="line"/>
			<point x="555" y="670"/>
			<point x="464" y="737"/>
			<point x="330" y="737" type="curve" smooth="yes"/>
			<point x="172" y="737"/>
			<point x="70" y="644"/>
			<point x="70" y="462" type="curve" smooth="yes"/>
			<point x="70" y="261" type="line" smooth="yes"/>
			<point x="70" y="79"/>
			<point x="170" y="-14"/>
			<point x="326" y="-14" type="curve" smooth="yes"/>
			<point x="464" y="-14"/>
			<point x="559" y="57"/>
		</contour>
	</outline>
</glyph>
<glyph name="D.RECT" format="2">
	<advance width="668"/>
	<outline>
		<contour>
			<point x="318" y="0" type="curve" smooth="yes"/>
			<point x="85" y="0" type="line"/>
			<point x="85" y="727" type="line"/>
			<point x="322" y="727" type="line" smooth="yes"/>
			<point x="480" y="727"/>
			<point x="577" y="637"/>
			<point x="577" y="462" type="curve" smooth="yes"/>
			<point x="577" y="265" type="line" smooth="yes"/>
			<point x="577" y="90"/>
			<point x="476" y="0"/>
		</contour>
		<contour>
			<point x="318" y="1" type="line" smooth="yes"/>
			<point x="476" y="1"/>
			<point x="576" y="91"/>
			<point x="576" y="265" type="curve" smooth="yes"/>
			<point x="576" y="462" type="line" smooth="yes"/>
			<point x="576" y="636"/>
			<point x="480" y="726"/>
			<point x="322" y="726" type="curve" smooth="yes"/>
			<point x="86" y="726" type="line"/>
			<point x="86" y="1" type="line"/>
		</contour>
	</outline>
</glyph>
<glyph name="Dcroat.RECT" format="2">
	<advance width="678"/>
	<outline>
		<contour>
			<point x="23" y="372" type="line"/>
			<point x="95" y="372" type="line"/>
			<point x="96" y="372" type="line"/>
			<point x="321" y="372" type="line"/>
			<point x="321" y="373" type="line"/>
			<point x="96" y="373" type="line"/>
			<point x="95" y="373" type="line"/>
			<point x="23" y="373" type="line"/>
		</contour>
		<component base="D.RECT" xOffset="10"/>
	</outline>
</glyph>
<glyph name="E.RECT" format="2">
	<advance width="598"/>
	<guideline x="0"/>
	<guideline x="97"/>
	<guideline x="194"/>
	<guideline x="291"/>
	<guideline x="388"/>
	<guideline x="485"/>
	<guideline x="582"/>
	<guideline x="679"/>
	<guideline x="776"/>
	<guideline x="873"/>
	<guideline x="970"/>
	<guideline x="1067"/>
	<guideline x="1164"/>
	<guideline y="0"/>
	<guideline y="97"/>
	<guideline y="194"/>
	<guideline y="291"/>
	<guideline y="388"/>
	<guideline y="485"/>
	<guideline y="582"/>
	<guideline y="679"/>
	<guideline y="776"/>
	<guideline y="873"/>
	<guideline y="970"/>
	<guideline y="1067"/>
	<guideline y="1164"/>
	<guideline y="1261"/>
	<guideline y="1358"/>
	<guideline y="0"/>
	<guideline y="-97"/>
	<guideline y="-194"/>
	<guideline y="-291"/>
	<anchor x="518" y="0" name="ogonek"/>
	<anchor x="314" y="0" name="bottom"/>
	<anchor x="289" y="727" name="top"/>
	<outline>
		<contour>
			<point x="518" y="0" type="line"/>
			<point x="518" y="1" type="line"/>
			<point x="86" y="1" type="line"/>
			<point x="86" y="404" type="line"/>
			<point x="386" y="404" type="line"/>
			<point x="386" y="405" type="line"/>
			<point x="86" y="405" type="line"/>
			<point x="86" y="726" type="line"/>
			<point x="518" y="726" type="line"/>
			<point x="518" y="727" type="line"/>
			<point x="85" y="727" type="line"/>
			<point x="85" y="0" type="line"/>
		</contour>
	</outline>
</glyph>
<glyph name="G.RECT" format="2">
	<advance width="653"/>
	<anchor x="330" y="727" name="top"/>
	<anchor x="326" y="0" name="bottom"/>
	<outline>
		<contour>
			<point x="350" y="340" type="line"/>
			<point x="350" y="339" type="line"/>
			<point x="585" y="339" type="line"/>
			<point x="585" y="339" type="line"/>
			<point x="585" y="261" type="line" smooth="yes"/>
			<point x="585" y="80"/>
			<point x="485" y="-13"/>
			<point x="326" y="-13" type="curve" smooth="yes"/>
			<point x="170" y="-13"/>
			<point x="71" y="80"/>
			<point x="71" y="261" type="curve" smooth="yes"/>
			<point x="71" y="462" type="line" smooth="yes"/>
			<point x="71" y="643"/>
			<point x="172" y="736"/>
			<point x="330" y="736" type="curve" smooth="yes"/>
			<point x="464" y="736"/>
			<point x="554" y="669"/>
			<point x="578" y="539" type="curve"/>
			<point x="579" y="539" type="line"/>
			<point x="555" y="670"/>
			<point x="464" y="737"/>
			<point x="330" y="737" type="curve" smooth="yes"/>
			<point x="172" y="737"/>
			<point x="70" y="644"/>
			<point x="70" y="462" type="curve" smooth="yes"/>
			<point x="70" y="261" type="line" smooth="yes"/>
			<point x="70" y="79"/>
			<point x="170" y="-14"/>
			<point x="326" y="-14" type="curve" smooth="yes"/>
			<point x="485" y="-14"/>
			<point x="586" y="79"/>
			<point x="586" y="261" type="curve" smooth="yes"/>
			<point x="586" y="340" type="line"/>
		</contour>
	</outline>
</glyph>
<glyph name="Germandbls.RECT" format="2">
	<advance width="651"/>
	<outline>
		<contour>
			<point x="246" y="0" type="line"/>
			<point x="375" y="0" type="line" smooth="yes"/>
			<point x="505" y="0"/>
			<point x="582" y="43"/>
			<point x="582" y="160" type="curve" smooth="yes"/>
			<point x="582" y="247" type="line" smooth="yes"/>
			<point x="582" y="354"/>
			<point x="506" y="415"/>
			<point x="383" y="415" type="curve"/>
			<point x="248" y="415" type="line"/>
			<point x="249" y="415" type="line"/>
			<point x="249" y="416" type="line"/>
			<point x="546" y="727" type="line"/>
			<point x="546" y="727" type="line"/>
			<point x="273" y="727" type="line" smooth="yes"/>
			<point x="150" y="727"/>
			<point x="80" y="654"/>
			<point x="80" y="522" type="curve" smooth="yes"/>
			<point x="80" y="0" type="line"/>
			<point x="81" y="0" type="line"/>
			<point x="81" y="522" type="line" smooth="yes"/>
			<point x="81" y="653"/>
			<point x="151" y="726"/>
			<point x="273" y="726" type="curve" smooth="yes"/>
			<point x="544" y="726" type="line"/>
			<point x="544" y="726" type="line"/>
			<point x="247" y="415" type="line"/>
			<point x="247" y="414" type="line"/>
			<point x="383" y="414" type="line"/>
			<point x="505" y="414"/>
			<point x="581" y="353"/>
			<point x="581" y="247" type="curve" smooth="yes"/>
			<point x="581" y="160" type="line" smooth="yes"/>
			<point x="581" y="44"/>
			<point x="506" y="1"/>
			<point x="375" y="1" type="curve" smooth="yes"/>
			<point x="246" y="1" type="line"/>
		</contour>
	</outline>
</glyph>
<glyph name="I.text" format="2">
	<advance width="491"/>
	<anchor x="436" y="0" name="ogonek"/>
	<anchor x="246" y="0" name="bottom"/>
	<anchor x="246" y="727" name="top"/>
	<outline>
		<contour>
			<point x="55" y="0" type="line"/>
			<point x="436" y="0" type="line"/>
			<point x="436" y="1" type="line"/>
			<point x="246" y="1" type="line"/>
			<point x="246" y="726" type="line"/>
			<point x="436" y="726" type="line"/>
			<point x="436" y="727" type="line"/>
			<point x="55" y="727" type="line"/>
			<point x="55" y="726" type="line"/>
			<point x="245" y="726" type="line"/>
			<point x="245" y="1" type="line"/>
			<point x="55" y="1" type="line"/>
		</contour>
	</outline>
</glyph>
<glyph name="J.001" format="2">
	<advance width="541"/>
	<outline>
		<contour>
			<point x="466" y="727" type="line"/>
			<point x="466" y="216" type="line" smooth="yes"/>
			<point x="466" y="70"/>
			<point x="391" y="-14"/>
			<point x="259" y="-14" type="curve" smooth="yes"/>
			<point x="154" y="-14"/>
			<point x="85" y="50"/>
			<point x="61" y="170" type="curve"/>
			<point x="62" y="170" type="line"/>
			<point x="86" y="51"/>
			<point x="154" y="-13"/>
			<point x="259" y="-13" type="curve" smooth="yes"/>
			<point x="391" y="-13"/>
			<point x="465" y="70"/>
			<point x="465" y="216" type="curve" smooth="yes"/>
			<point x="465" y="727" type="line"/>
		</contour>
	</outline>
</glyph>
<glyph name="M.RECT" format="2">
	<advance width="837"/>
	<outline>
		<contour>
			<point x="105" y="0" type="line"/>
			<point x="105" y="727" type="line"/>
			<point x="106" y="727" type="line"/>
			<point x="419" y="1" type="line"/>
			<point x="417" y="2" type="line"/>
			<point x="420" y="2" type="line"/>
			<point x="419" y="1" type="line"/>
			<point x="732" y="727" type="line"/>
			<point x="733" y="727" type="line"/>
			<point x="733" y="0" type="line"/>
			<point x="732" y="0" type="line"/>
			<point x="732" y="726" type="line"/>
			<point x="732" y="724" type="line"/>
			<point x="731" y="724" type="line"/>
			<point x="732" y="726" type="line"/>
			<point x="420" y="0" type="line"/>
			<point x="418" y="0" type="line"/>
			<point x="105" y="726" type="line"/>
			<point x="107" y="724" type="line"/>
			<point x="105" y="724" type="line"/>
			<point x="106" y="726" type="line"/>
			<point x="106" y="0" type="line"/>
		</contour>
	</outline>
</glyph>
<glyph name="N.RECT" format="2">
	<advance width="683"/>
	<anchor x="352" y="727" name="top"/>
	<anchor x="352" y="0" name="bottom"/>
	<outline>
		<contour>
			<point x="85" y="0" type="line"/>
			<point x="85" y="727" type="line"/>
			<point x="86" y="727" type="line"/>
			<point x="597" y="1" type="line"/>
			<point x="596" y="3" type="line"/>
			<point x="597" y="3" type="line"/>
			<point x="597" y="1" type="line"/>
			<point x="597" y="727" type="line"/>
			<point x="598" y="727" type="line"/>
			<point x="598" y="0" type="line"/>
			<point x="597" y="0" type="line"/>
			<point x="86" y="726" type="line"/>
			<point x="87" y="725" type="line"/>
			<point x="86" y="725" type="line"/>
			<point x="86" y="726" type="line"/>
			<point x="86" y="0" type="line"/>
		</contour>
	</outline>
</glyph>
<glyph name="ND.ord" format="2">
	<advance width="726"/>
	<guideline x="715" y="544" angle="0"/>
	<outline>
		<contour>
			<point x="64" y="402" type="line"/>
			<point x="65" y="402" type="line"/>
			<point x="65" y="725" type="line"/>
			<point x="65" y="725" type="line"/>
			<point x="318" y="402" type="line"/>
			<point x="318" y="402" type="line"/>
			<point x="318" y="727" type="line"/>
			<point x="317" y="727" type="line"/>
			<point x="317" y="405" type="line"/>
			<point x="317" y="405" type="line"/>
			<point x="64" y="727" type="line"/>
			<point x="64" y="727" type="line"/>
		</contour>
		<contour>
			<point x="511" y="402" type="curve" smooth="yes"/>
			<point x="423" y="402" type="line"/>
			<point x="423" y="727" type="line"/>
			<point x="511" y="727" type="line" smooth="yes"/>
			<point x="619" y="727"/>
			<point x="686" y="665"/>
			<point x="686" y="564" type="curve" smooth="yes"/>
			<point x="686" y="464"/>
			<point x="619" y="402"/>
		</contour>
		<contour>
			<point x="511" y="726" type="curve" smooth="yes"/>
			<point x="424" y="726" type="line"/>
			<point x="424" y="403" type="line"/>
			<point x="511" y="403" type="line" smooth="yes"/>
			<point x="618" y="403"/>
			<point x="685" y="464"/>
			<point x="685" y="564" type="curve" smooth="yes"/>
			<point x="685" y="664"/>
			<point x="618" y="726"/>
		</contour>
		<contour>
			<point x="44" y="272" type="line"/>
			<point x="682" y="272" type="line"/>
			<point x="682" y="273" type="line"/>
			<point x="44" y="273" type="line"/>
		</contour>
	</outline>
</glyph>
<glyph name="O.RECT" format="2">
	<advance width="676"/>
	<anchor x="340" y="727" name="top"/>
	<anchor x="337" y="0" name="bottom"/>
	<outline>
		<contour>
			<point x="340" y="737" type="curve" smooth="yes"/>
			<point x="498" y="737"/>
			<point x="596" y="644"/>
			<point x="596" y="462" type="curve" smooth="yes"/>
			<point x="596" y="261" type="line" smooth="yes"/>
			<point x="596" y="79"/>
			<point x="495" y="-14"/>
			<point x="336" y="-14" type="curve" smooth="yes"/>
			<point x="180" y="-14"/>
			<point x="80" y="79"/>
			<point x="80" y="261" type="curve" smooth="yes"/>
			<point x="80" y="462" type="line" smooth="yes"/>
			<point x="80" y="644"/>
			<point x="182" y="737"/>
		</contour>
		<contour>
			<point x="340" y="736" type="curve" smooth="yes"/>
			<point x="182" y="736"/>
			<point x="81" y="643"/>
			<point x="81" y="462" type="curve" smooth="yes"/>
			<point x="81" y="261" type="line" smooth="yes"/>
			<point x="81" y="80"/>
			<point x="180" y="-13"/>
			<point x="336" y="-13" type="curve" smooth="yes"/>
			<point x="495" y="-13"/>
			<point x="595" y="80"/>
			<point x="595" y="261" type="curve" smooth="yes"/>
			<point x="595" y="462" type="line" smooth="yes"/>
			<point x="595" y="643"/>
			<point x="498" y="736"/>
		</contour>
	</outline>
</glyph>
<glyph name="OE.RECT" format="2">
	<advance width="1083"/>
	<anchor x="536" y="727" name="top"/>
	<outline>
		<contour>
			<point x="340" y="736" type="curve" smooth="yes"/>
			<point x="497" y="736"/>
			<point x="595" y="643"/>
			<point x="595" y="462" type="curve" smooth="yes"/>
			<point x="595" y="261" type="line" smooth="yes"/>
			<point x="595" y="80"/>
			<point x="497" y="-13"/>
			<point x="336" y="-13" type="curve" smooth="yes"/>
			<point x="180" y="-13"/>
			<point x="81" y="80"/>
			<point x="81" y="261" type="curve" smooth="yes"/>
			<point x="81" y="462" type="line" smooth="yes"/>
			<point x="81" y="643"/>
			<point x="182" y="736"/>
		</contour>
		<contour>
			<point x="340" y="737" type="curve" smooth="yes"/>
			<point x="182" y="737"/>
			<point x="80" y="644"/>
			<point x="80" y="462" type="curve" smooth="yes"/>
			<point x="80" y="261" type="line" smooth="yes"/>
			<point x="80" y="79"/>
			<point x="180" y="-14"/>
			<point x="336" y="-14" type="curve" smooth="yes"/>
			<point x="497" y="-14"/>
			<point x="584" y="78"/>
			<point x="594" y="226" type="curve"/>
			<point x="595" y="226" type="line"/>
			<point x="595" y="495" type="line"/>
			<point x="594" y="497" type="line"/>
			<point x="584" y="645"/>
			<point x="497" y="737"/>
		</contour>
		<component base="E" xOffset="510"/>
	</outline>
</glyph>
<glyph name="Ohorn.RECT" format="2">
	<advance width="676"/>
	<anchor x="340" y="727" name="top"/>
	<anchor x="337" y="0" name="bottom"/>
	<outline>
		<contour>
			<point x="575" y="846" type="line"/>
			<point x="575" y="828" type="line" smooth="yes"/>
			<point x="575" y="749"/>
			<point x="536" y="727"/>
			<point x="421" y="727" type="curve"/>
			<point x="397" y="733"/>
			<point x="372" y="737"/>
			<point x="340" y="737" type="curve" smooth="yes"/>
			<point x="182" y="737"/>
			<point x="80" y="644"/>
			<point x="80" y="462" type="curve" smooth="yes"/>
			<point x="80" y="261" type="line" smooth="yes"/>
			<point x="80" y="79"/>
			<point x="180" y="-14"/>
			<point x="336" y="-14" type="curve" smooth="yes"/>
			<point x="495" y="-14"/>
			<point x="596" y="79"/>
			<point x="596" y="261" type="curve" smooth="yes"/>
			<point x="596" y="462" type="line" smooth="yes"/>
			<point x="596" y="609"/>
			<point x="532" y="698"/>
			<point x="423" y="727" type="curve"/>
			<point x="424" y="727" type="line"/>
			<point x="537" y="726"/>
			<point x="576" y="749"/>
			<point x="576" y="828" type="curve" smooth="yes"/>
			<point x="576" y="846" type="line"/>
		</contour>
		<contour>
			<point x="340" y="736" type="curve" smooth="yes"/>
			<point x="498" y="736"/>
			<point x="595" y="643"/>
			<point x="595" y="462" type="curve" smooth="yes"/>
			<point x="595" y="261" type="line" smooth="yes"/>
			<point x="595" y="80"/>
			<point x="495" y="-13"/>
			<point x="336" y="-13" type="curve" smooth="yes"/>
			<point x="180" y="-13"/>
			<point x="81" y="80"/>
			<point x="81" y="261" type="curve" smooth="yes"/>
			<point x="81" y="462" type="line" smooth="yes"/>
			<point x="81" y="643"/>
			<point x="182" y="736"/>
		</contour>
	</outline>
</glyph>
<glyph name="Oslash.RECT" format="2">
	<advance width="676"/>
	<anchor x="340" y="727" name="top"/>
	<outline>
		<contour>
			<point x="100" y="-62" type="line"/>
			<point x="160" y="45" type="line"/>
			<point x="161" y="46" type="line"/>
			<point x="515" y="678" type="line"/>
			<point x="515" y="679" type="line"/>
			<point x="581" y="796" type="line"/>
			<point x="582" y="796" type="line"/>
			<point x="516" y="678" type="line"/>
			<point x="516" y="678" type="line"/>
			<point x="161" y="45" type="line"/>
			<point x="161" y="45" type="line"/>
			<point x="101" y="-62" type="line"/>
		</contour>
		<component base="O.RECT"/>
	</outline>
</glyph>
<glyph name="Oslash.RECT_open" format="2">
	<advance width="676"/>
	<guideline x="113" y="-142" angle="59.5259"/>
	<anchor x="340" y="727" name="top"/>
	<outline>
		<contour>
			<point x="76" y="-71" type="line"/>
			<point x="150" y="56" type="line"/>
			<point x="151" y="55" type="line"/>
			<point x="77" y="-71" type="line"/>
		</contour>
		<contour>
			<point x="516" y="678" type="line"/>
			<point x="590" y="803" type="line"/>
			<point x="591" y="803" type="line"/>
			<point x="517" y="677" type="line"/>
		</contour>
		<component base="O.RECT"/>
	</outline>
</glyph>
<glyph name="Oslash.open" format="2">
	<advance width="842"/>
	<guideline x="70" y="5" angle="45.4398"/>
	<anchor x="420" y="729" name="top"/>
	<outline>
		<contour>
			<point x="156" y="96" type="line"/>
			<point x="62" y="-1" type="line"/>
			<point x="61" y="0" type="line"/>
			<point x="156" y="97" type="line"/>
		</contour>
		<contour>
			<point x="686" y="631" type="line"/>
			<point x="686" y="632" type="line"/>
			<point x="780" y="728" type="line"/>
			<point x="781" y="727" type="line"/>
		</contour>
		<component base="O"/>
	</outline>
</glyph>
<glyph name="P.RECT" format="2">
	<advance width="584"/>
	<outline>
		<contour>
			<point x="85" y="0" type="line"/>
			<point x="86" y="0" type="line"/>
			<point x="86" y="726" type="line"/>
			<point x="342" y="726" type="line" smooth="yes"/>
			<point x="455" y="726"/>
			<point x="516" y="670"/>
			<point x="516" y="562" type="curve" smooth="yes"/>
			<point x="516" y="450" type="line" smooth="yes"/>
			<point x="516" y="342"/>
			<point x="452" y="286"/>
			<point x="338" y="286" type="curve" smooth="yes"/>
			<point x="86" y="286" type="line"/>
			<point x="86" y="285" type="line"/>
			<point x="338" y="285" type="line" smooth="yes"/>
			<point x="452" y="285"/>
			<point x="517" y="341"/>
			<point x="517" y="450" type="curve" smooth="yes"/>
			<point x="517" y="562" type="line" smooth="yes"/>
			<point x="517" y="671"/>
			<point x="455" y="727"/>
			<point x="342" y="727" type="curve" smooth="yes"/>
			<point x="85" y="727" type="line"/>
		</contour>
	</outline>
</glyph>
<glyph name="Q.RECT" format="2">
	<advance width="676"/>
	<guideline x="594" y="374" angle="37.3853"/>
	<outline>
		<contour>
			<point x="590" y="-16" type="line"/>
			<point x="523" y="53" type="line"/>
			<point x="522" y="53" type="line"/>
			<point x="373" y="205" type="line"/>
			<point x="373" y="206" type="line"/>
			<point x="523" y="54" type="line"/>
			<point x="523" y="54" type="line"/>
			<point x="591" y="-15" type="line"/>
		</contour>
		<component base="O.RECT"/>
	</outline>
</glyph>
<glyph name="Q.open" format="2">
	<advance width="854"/>
	<guideline x="1253" y="-31" angle="128.047"/>
	<outline>
		<contour>
			<point x="611" y="32" type="line"/>
			<point x="648" y="-15" type="line" smooth="yes"/>
			<point x="673" y="-48"/>
			<point x="696" y="-54"/>
			<point x="734" y="-54" type="curve" smooth="yes"/>
			<point x="803" y="-54" type="line"/>
			<point x="803" y="-55" type="line"/>
			<point x="734" y="-55" type="line"/>
			<point x="696" y="-55"/>
			<point x="672" y="-48"/>
			<point x="647" y="-16" type="curve" smooth="yes"/>
			<point x="611" y="31" type="line"/>
		</contour>
		<component base="O"/>
	</outline>
</glyph>
<glyph name="R.RECT" format="2">
	<advance width="607"/>
	<anchor x="295" y="727" name="top"/>
	<anchor x="295" y="0" name="bottom"/>
	<outline>
		<contour>
			<point x="353" y="286" type="line"/>
			<point x="352" y="286" type="line"/>
			<point x="540" y="0" type="line"/>
			<point x="541" y="0" type="line"/>
		</contour>
		<contour>
			<point x="353" y="285" type="line" smooth="yes"/>
			<point x="467" y="285"/>
			<point x="532" y="341"/>
			<point x="532" y="450" type="curve" smooth="yes"/>
			<point x="532" y="562" type="line" smooth="yes"/>
			<point x="532" y="671"/>
			<point x="470" y="727"/>
			<point x="357" y="727" type="curve" smooth="yes"/>
			<point x="85" y="727" type="line"/>
			<point x="85" y="0" type="line"/>
			<point x="86" y="0" type="line"/>
			<point x="86" y="285" type="line"/>
		</contour>
		<contour>
			<point x="353" y="286" type="curve" smooth="yes"/>
			<point x="86" y="286" type="line"/>
			<point x="86" y="726" type="line"/>
			<point x="357" y="726" type="line" smooth="yes"/>
			<point x="470" y="726"/>
			<point x="531" y="670"/>
			<point x="531" y="562" type="curve" smooth="yes"/>
			<point x="531" y="450" type="line" smooth="yes"/>
			<point x="531" y="342"/>
			<point x="467" y="286"/>
		</contour>
	</outline>
</glyph>
<glyph name="R.text" format="2">
	<advance width="586"/>
	<anchor x="290" y="727" name="top"/>
	<anchor x="290" y="0" name="bottom"/>
	<outline>
		<contour>
			<point x="308" y="308" type="line"/>
			<point x="306" y="308" type="line"/>
			<point x="514" y="0" type="line"/>
			<point x="516" y="0" type="line"/>
		</contour>
		<component base="P"/>
	</outline>
</glyph>
<glyph name="RD.ord" format="2">
	<advance width="667"/>
	<guideline x="725" y="544" angle="0"/>
	<outline>
		<contour>
			<point x="452" y="402" type="curve" smooth="yes"/>
			<point x="365" y="402" type="line"/>
			<point x="365" y="727" type="line"/>
			<point x="452" y="727" type="line" smooth="yes"/>
			<point x="560" y="727"/>
			<point x="627" y="665"/>
			<point x="627" y="564" type="curve" smooth="yes"/>
			<point x="627" y="464"/>
			<point x="561" y="402"/>
		</contour>
		<contour>
			<point x="452" y="726" type="curve" smooth="yes"/>
			<point x="366" y="726" type="line"/>
			<point x="366" y="403" type="line"/>
			<point x="452" y="403" type="line" smooth="yes"/>
			<point x="560" y="403"/>
			<point x="626" y="464"/>
			<point x="626" y="564" type="curve" smooth="yes"/>
			<point x="626" y="664"/>
			<point x="560" y="726"/>
		</contour>
		<contour>
			<point x="183" y="540" type="line"/>
			<point x="182" y="540" type="line"/>
			<point x="285" y="402" type="line"/>
			<point x="286" y="402" type="line"/>
		</contour>
		<contour>
			<point x="64" y="727" type="line"/>
			<point x="64" y="402" type="line"/>
			<point x="65" y="402" type="line"/>
			<point x="65" y="726" type="line"/>
			<point x="179" y="726" type="line" smooth="yes"/>
			<point x="241" y="726"/>
			<point x="284" y="689"/>
			<point x="284" y="633" type="curve" smooth="yes"/>
			<point x="284" y="575"/>
			<point x="244" y="540"/>
			<point x="179" y="540" type="curve" smooth="yes"/>
			<point x="64" y="540" type="line"/>
			<point x="64" y="539" type="line"/>
			<point x="179" y="539" type="line" smooth="yes"/>
			<point x="245" y="539"/>
			<point x="285" y="575"/>
			<point x="285" y="633" type="curve" smooth="yes"/>
			<point x="285" y="689"/>
			<point x="242" y="727"/>
			<point x="179" y="727" type="curve" smooth="yes"/>
		</contour>
		<contour>
			<point x="44" y="272" type="line"/>
			<point x="623" y="272" type="line"/>
			<point x="623" y="273" type="line"/>
			<point x="44" y="273" type="line"/>
		</contour>
	</outline>
</glyph>
<glyph name="ST.ord" format="2">
	<advance width="618"/>
	<guideline x="1173" y="1453" angle="90"/>
	<outline>
		<contour>
			<point x="55" y="659" type="curve" smooth="yes"/>
			<point x="55" y="621"/>
			<point x="77" y="599"/>
			<point x="130" y="583" type="curve" smooth="yes"/>
			<point x="179" y="569" type="line" smooth="yes"/>
			<point x="242" y="551"/>
			<point x="266" y="527"/>
			<point x="266" y="483" type="curve" smooth="yes"/>
			<point x="266" y="431"/>
			<point x="220" y="397"/>
			<point x="154" y="397" type="curve" smooth="yes"/>
			<point x="89" y="397"/>
			<point x="57" y="418"/>
			<point x="30" y="464" type="curve"/>
			<point x="29" y="463" type="line"/>
			<point x="56" y="417"/>
			<point x="89" y="396"/>
			<point x="154" y="396" type="curve" smooth="yes"/>
			<point x="221" y="396"/>
			<point x="267" y="430"/>
			<point x="267" y="483" type="curve" smooth="yes"/>
			<point x="267" y="528"/>
			<point x="243" y="552"/>
			<point x="180" y="570" type="curve" smooth="yes"/>
			<point x="130" y="584" type="line" smooth="yes"/>
			<point x="78" y="599"/>
			<point x="56" y="621"/>
			<point x="56" y="659" type="curve" smooth="yes"/>
			<point x="56" y="703"/>
			<point x="92" y="733"/>
			<point x="151" y="733" type="curve" smooth="yes"/>
			<point x="200" y="733"/>
			<point x="230" y="716"/>
			<point x="250" y="680" type="curve"/>
			<point x="251" y="681" type="line"/>
			<point x="231" y="717"/>
			<point x="200" y="734"/>
			<point x="151" y="734" type="curve" smooth="yes"/>
			<point x="91" y="734"/>
			<point x="55" y="704"/>
		</contour>
		<contour>
			<point x="320" y="726" type="line"/>
			<point x="453" y="726" type="line"/>
			<point x="453" y="402" type="line"/>
			<point x="454" y="402" type="line"/>
			<point x="454" y="726" type="line"/>
			<point x="587" y="726" type="line"/>
			<point x="587" y="727" type="line"/>
			<point x="320" y="727" type="line"/>
		</contour>
		<contour>
			<point x="587" y="272" type="line"/>
			<point x="587" y="273" type="line"/>
			<point x="44" y="273" type="line"/>
			<point x="44" y="272" type="line"/>
		</contour>
	</outline>
</glyph>
<glyph name="TH.ord" format="2">
	<advance width="688"/>
	<guideline x="602" y="1454" angle="0"/>
	<outline>
		<contour>
			<point x="374" y="727" type="line"/>
			<point x="373" y="727" type="line"/>
			<point x="373" y="402" type="line"/>
			<point x="374" y="402" type="line"/>
			<point x="374" y="569" type="line"/>
			<point x="624" y="569" type="line"/>
			<point x="624" y="402" type="line"/>
			<point x="625" y="402" type="line"/>
			<point x="625" y="727" type="line"/>
			<point x="624" y="727" type="line"/>
			<point x="624" y="570" type="line"/>
			<point x="374" y="570" type="line"/>
		</contour>
		<contour>
			<point x="31" y="726" type="line"/>
			<point x="158" y="726" type="line"/>
			<point x="158" y="402" type="line"/>
			<point x="159" y="402" type="line"/>
			<point x="159" y="726" type="line"/>
			<point x="285" y="726" type="line"/>
			<point x="285" y="727" type="line"/>
			<point x="31" y="727" type="line"/>
		</contour>
		<contour>
			<point x="34" y="272" type="line"/>
			<point x="633" y="272" type="line"/>
			<point x="633" y="273" type="line"/>
			<point x="34" y="273" type="line"/>
		</contour>
	</outline>
</glyph>
